<svg xmlns="http://www.w3.org/2000/svg" xmlns:xlink="http://www.w3.org/1999/xlink" contentStyleType="text/css" data-diagram-type="ACTIVITY" height="480px" preserveAspectRatio="none" style="width:636px;height:480px;background:#FFFFFF;" version="1.1" viewBox="0 0 636 480" width="636px" zoomAndPan="magnify"><defs/><g><ellipse cx="384.5759" cy="20" fill="#222222" rx="10" ry="10" style="stroke:#222222;stroke-width:1;"/><rect fill="#F1F1F1" height="33.9688" rx="12.5" ry="12.5" style="stroke:#181818;stroke-width:0.5;" width="262.0977" x="253.5271" y="50"/><text fill="#000000" font-family="sans-serif" font-size="12" lengthAdjust="spacing" textLength="242.0977" x="263.5271" y="71.1387">Receber dados do produto a ser editado</text><rect fill="#F1F1F1" height="33.9688" rx="12.5" ry="12.5" style="stroke:#181818;stroke-width:0.5;" width="256.6777" x="256.2371" y="103.9688"/><text fill="#000000" font-family="sans-serif" font-size="12" lengthAdjust="spacing" textLength="236.6777" x="266.2371" y="125.1074">Verificar validade dos dados fornecidos</text><polygon fill="#F1F1F1" points="343.1782,157.9375,425.9736,157.9375,437.9736,169.9375,425.9736,181.9375,343.1782,181.9375,331.1782,169.9375,343.1782,157.9375" style="stroke:#181818;stroke-width:0.5;"/><text fill="#000000" font-family="sans-serif" font-size="11" lengthAdjust="spacing" textLength="82.7954" x="343.1782" y="173.7456">Dados v&#225;lidos?</text><text fill="#000000" font-family="sans-serif" font-size="11" lengthAdjust="spacing" textLength="20.7539" x="310.4243" y="167.3433">Sim</text><text fill="#000000" font-family="sans-serif" font-size="11" lengthAdjust="spacing" textLength="21.6992" x="437.9736" y="167.3433">N&#227;o</text><rect fill="#F1F1F1" height="33.9688" rx="12.5" ry="12.5" style="stroke:#181818;stroke-width:0.5;" width="200.4453" x="129.3159" y="191.9375"/><text fill="#000000" font-family="sans-serif" font-size="12" lengthAdjust="spacing" textLength="180.4453" x="139.3159" y="213.0762">Buscar produto na plataforma</text><polygon fill="#F1F1F1" points="172.041,245.9063,287.0361,245.9063,299.0361,257.9063,287.0361,269.9063,172.041,269.9063,160.041,257.9063,172.041,245.9063" style="stroke:#181818;stroke-width:0.5;"/><text fill="#000000" font-family="sans-serif" font-size="11" lengthAdjust="spacing" textLength="114.9951" x="172.041" y="261.7144">Produto encontrado?</text><text fill="#000000" font-family="sans-serif" font-size="11" lengthAdjust="spacing" textLength="20.7539" x="139.2871" y="255.312">Sim</text><text fill="#000000" font-family="sans-serif" font-size="11" lengthAdjust="spacing" textLength="21.6992" x="299.0361" y="255.312">N&#227;o</text><rect fill="#F1F1F1" height="33.9688" rx="12.5" ry="12.5" style="stroke:#181818;stroke-width:0.5;" width="220.748" x="11" y="279.9063"/><text fill="#000000" font-family="sans-serif" font-size="12" lengthAdjust="spacing" textLength="200.748" x="21" y="301.0449">Atualizar informa&#231;&#245;es do produto</text><rect fill="#F1F1F1" height="33.9688" rx="12.5" ry="12.5" style="stroke:#181818;stroke-width:0.5;" width="195.002" x="23.873" y="333.875"/><text fill="#000000" font-family="sans-serif" font-size="12" lengthAdjust="spacing" textLength="175.002" x="33.873" y="355.0137">Exibir mensagem de sucesso</text><rect fill="#F1F1F1" height="33.9688" rx="12.5" ry="12.5" style="stroke:#181818;stroke-width:0.5;" width="171.9102" x="251.748" y="279.9063"/><text fill="#000000" font-family="sans-serif" font-size="12" lengthAdjust="spacing" textLength="151.9102" x="261.748" y="301.0449">Exibir mensagem de erro</text><polygon fill="#F1F1F1" points="229.5386,373.8438,241.5386,385.8438,229.5386,397.8438,217.5386,385.8438,229.5386,373.8438" style="stroke:#181818;stroke-width:0.5;"/><rect fill="#F1F1F1" height="33.9688" rx="12.5" ry="12.5" style="stroke:#181818;stroke-width:0.5;" width="171.9102" x="453.6582" y="191.9375"/><text fill="#000000" font-family="sans-serif" font-size="12" lengthAdjust="spacing" textLength="151.9102" x="463.6582" y="213.0762">Exibir mensagem de erro</text><polygon fill="#F1F1F1" points="384.5759,403.8438,396.5759,415.8438,384.5759,427.8438,372.5759,415.8438,384.5759,403.8438" style="stroke:#181818;stroke-width:0.5;"/><ellipse cx="384.5759" cy="458.8438" fill="none" rx="11" ry="11" style="stroke:#222222;stroke-width:1;"/><ellipse cx="384.5759" cy="458.8438" fill="#222222" rx="6" ry="6" style="stroke:#222222;stroke-width:1;"/><line style="stroke:#181818;stroke-width:1;" x1="384.5759" x2="384.5759" y1="30" y2="50"/><polygon fill="#181818" points="380.5759,40,384.5759,50,388.5759,40,384.5759,44" style="stroke:#181818;stroke-width:1;"/><line style="stroke:#181818;stroke-width:1;" x1="384.5759" x2="384.5759" y1="83.9688" y2="103.9688"/><polygon fill="#181818" points="380.5759,93.9688,384.5759,103.9688,388.5759,93.9688,384.5759,97.9688" style="stroke:#181818;stroke-width:1;"/><line style="stroke:#181818;stroke-width:1;" x1="121.374" x2="121.374" y1="313.875" y2="333.875"/><polygon fill="#181818" points="117.374,323.875,121.374,333.875,125.374,323.875,121.374,327.875" style="stroke:#181818;stroke-width:1;"/><line style="stroke:#181818;stroke-width:1;" x1="160.041" x2="121.374" y1="257.9063" y2="257.9063"/><line style="stroke:#181818;stroke-width:1;" x1="121.374" x2="121.374" y1="257.9063" y2="279.9063"/><polygon fill="#181818" points="117.374,269.9063,121.374,279.9063,125.374,269.9063,121.374,273.9063" style="stroke:#181818;stroke-width:1;"/><line style="stroke:#181818;stroke-width:1;" x1="299.0361" x2="337.7031" y1="257.9063" y2="257.9063"/><line style="stroke:#181818;stroke-width:1;" x1="337.7031" x2="337.7031" y1="257.9063" y2="279.9063"/><polygon fill="#181818" points="333.7031,269.9063,337.7031,279.9063,341.7031,269.9063,337.7031,273.9063" style="stroke:#181818;stroke-width:1;"/><line style="stroke:#181818;stroke-width:1;" x1="121.374" x2="121.374" y1="367.8438" y2="385.8438"/><line style="stroke:#181818;stroke-width:1;" x1="121.374" x2="217.5386" y1="385.8438" y2="385.8438"/><polygon fill="#181818" points="207.5386,381.8438,217.5386,385.8438,207.5386,389.8438,211.5386,385.8438" style="stroke:#181818;stroke-width:1;"/><line style="stroke:#181818;stroke-width:1;" x1="337.7031" x2="337.7031" y1="313.875" y2="385.8438"/><line style="stroke:#181818;stroke-width:1;" x1="337.7031" x2="241.5386" y1="385.8438" y2="385.8438"/><polygon fill="#181818" points="251.5386,381.8438,241.5386,385.8438,251.5386,389.8438,247.5386,385.8438" style="stroke:#181818;stroke-width:1;"/><line style="stroke:#181818;stroke-width:1;" x1="229.5386" x2="229.5386" y1="225.9063" y2="245.9063"/><polygon fill="#181818" points="225.5386,235.9063,229.5386,245.9063,233.5386,235.9063,229.5386,239.9063" style="stroke:#181818;stroke-width:1;"/><line style="stroke:#181818;stroke-width:1;" x1="331.1782" x2="229.5386" y1="169.9375" y2="169.9375"/><line style="stroke:#181818;stroke-width:1;" x1="229.5386" x2="229.5386" y1="169.9375" y2="191.9375"/><polygon fill="#181818" points="225.5386,181.9375,229.5386,191.9375,233.5386,181.9375,229.5386,185.9375" style="stroke:#181818;stroke-width:1;"/><line style="stroke:#181818;stroke-width:1;" x1="437.9736" x2="539.6133" y1="169.9375" y2="169.9375"/><line style="stroke:#181818;stroke-width:1;" x1="539.6133" x2="539.6133" y1="169.9375" y2="191.9375"/><polygon fill="#181818" points="535.6133,181.9375,539.6133,191.9375,543.6133,181.9375,539.6133,185.9375" style="stroke:#181818;stroke-width:1;"/><line style="stroke:#181818;stroke-width:1;" x1="229.5386" x2="229.5386" y1="397.8438" y2="415.8438"/><line style="stroke:#181818;stroke-width:1;" x1="229.5386" x2="372.5759" y1="415.8438" y2="415.8438"/><polygon fill="#181818" points="362.5759,411.8438,372.5759,415.8438,362.5759,419.8438,366.5759,415.8438" style="stroke:#181818;stroke-width:1;"/><line style="stroke:#181818;stroke-width:1;" x1="539.6133" x2="539.6133" y1="225.9063" y2="415.8438"/><line style="stroke:#181818;stroke-width:1;" x1="539.6133" x2="396.5759" y1="415.8438" y2="415.8438"/><polygon fill="#181818" points="406.5759,411.8438,396.5759,415.8438,406.5759,419.8438,402.5759,415.8438" style="stroke:#181818;stroke-width:1;"/><line style="stroke:#181818;stroke-width:1;" x1="384.5759" x2="384.5759" y1="137.9375" y2="157.9375"/><polygon fill="#181818" points="380.5759,147.9375,384.5759,157.9375,388.5759,147.9375,384.5759,151.9375" style="stroke:#181818;stroke-width:1;"/><line style="stroke:#181818;stroke-width:1;" x1="384.5759" x2="384.5759" y1="427.8438" y2="447.8438"/><polygon fill="#181818" points="380.5759,437.8438,384.5759,447.8438,388.5759,437.8438,384.5759,441.8438" style="stroke:#181818;stroke-width:1;"/><!--SRC=[TOz1JiGm34NtEOMNxHNQ1GB15Y6Gs7iI5oorIMMx8yHjHhFW19oW5yDDGGAasKNVxx_OQYWMGlT8aGuaa30LXLHWbf8MAu2W7bDYyqaVkcSI7ZYYm157TfoWDcflA98fiZ_xm0CqjpKzhgTnowvQi5VAq3pnr0Q0xcRHJVJpLKQOHpHqouIz0vlYuNj8EPPiuiB_6XTTs-BBlBkBSssl7-id_RwZty6xDpwmm4HPyOKcyErrYQHQ0HgLeBbVpwMzY9F8pkR4G_ZRkCplj5gPlm00]--></g></svg>