<?xml version="1.0" encoding="UTF-8" standalone="no"?><svg xmlns="http://www.w3.org/2000/svg" xmlns:xlink="http://www.w3.org/1999/xlink" contentStyleType="text/css" height="667px" preserveAspectRatio="none" style="width:1185px;height:667px;background:#FFFFFF;" version="1.1" viewBox="0 0 1185 667" width="1185px" zoomAndPan="magnify"><defs/><g><rect fill="#F1F1F1" height="35.0938" rx="12.5" ry="12.5" style="stroke:#181818;stroke-width:0.5;" width="158" x="609" y="11"/><text fill="#000000" font-family="sans-serif" font-size="12" lengthAdjust="spacing" textLength="138" x="619" y="33.457">Usuário clica em "Enviar"</text><rect fill="#F1F1F1" height="35.0938" rx="12.5" ry="12.5" style="stroke:#181818;stroke-width:0.5;" width="264" x="556" y="66.0938"/><text fill="#000000" font-family="sans-serif" font-size="12" lengthAdjust="spacing" textLength="244" x="566" y="88.5508">Sistema verifica se o e-mail está cadastrado</text><polygon fill="#F1F1F1" points="642,121.1875,734,121.1875,746,133.1875,734,145.1875,642,145.1875,630,133.1875,642,121.1875" style="stroke:#181818;stroke-width:0.5;"/><text fill="#000000" font-family="sans-serif" font-size="11" lengthAdjust="spacing" textLength="92" x="642" y="137.6885">E-mail cadastrado?</text><text fill="#000000" font-family="sans-serif" font-size="11" lengthAdjust="spacing" textLength="17" x="613" y="130.7705">Sim</text><text fill="#000000" font-family="sans-serif" font-size="11" lengthAdjust="spacing" textLength="19" x="746" y="130.7705">Não</text><rect fill="#F1F1F1" height="35.0938" rx="12.5" ry="12.5" style="stroke:#181818;stroke-width:0.5;" width="266" x="245.5" y="155.1875"/><text fill="#000000" font-family="sans-serif" font-size="12" lengthAdjust="spacing" textLength="246" x="255.5" y="177.6445">Sistema envia e-mail com link de redefinição</text><rect fill="#F1F1F1" height="35.0938" rx="12.5" ry="12.5" style="stroke:#181818;stroke-width:0.5;" width="233" x="262" y="210.2813"/><text fill="#000000" font-family="sans-serif" font-size="12" lengthAdjust="spacing" textLength="213" x="272" y="232.7383">Usuário acessa o e-mail e clica no link</text><rect fill="#F1F1F1" height="35.0938" rx="12.5" ry="12.5" style="stroke:#181818;stroke-width:0.5;" width="257" x="250" y="265.375"/><text fill="#000000" font-family="sans-serif" font-size="12" lengthAdjust="spacing" textLength="237" x="260" y="287.832">Sistema exibe tela de redefinição de senha</text><rect fill="#F1F1F1" height="35.0938" rx="12.5" ry="12.5" style="stroke:#181818;stroke-width:0.5;" width="230" x="263.5" y="320.4688"/><text fill="#000000" font-family="sans-serif" font-size="12" lengthAdjust="spacing" textLength="210" x="273.5" y="342.9258">Usuário insere nova senha e confirma</text><rect fill="#F1F1F1" height="35.0938" rx="12.5" ry="12.5" style="stroke:#181818;stroke-width:0.5;" width="196" x="280.5" y="375.5625"/><text fill="#000000" font-family="sans-serif" font-size="12" lengthAdjust="spacing" textLength="176" x="290.5" y="398.0195">Sistema valida a força da senha</text><polygon fill="#F1F1F1" points="310.5,430.6563,446.5,430.6563,458.5,442.6563,446.5,454.6563,310.5,454.6563,298.5,442.6563,310.5,430.6563" style="stroke:#181818;stroke-width:0.5;"/><text fill="#000000" font-family="sans-serif" font-size="11" lengthAdjust="spacing" textLength="136" x="310.5" y="447.1572">Senha atende aos critérios?</text><text fill="#000000" font-family="sans-serif" font-size="11" lengthAdjust="spacing" textLength="17" x="281.5" y="440.2393">Sim</text><text fill="#000000" font-family="sans-serif" font-size="11" lengthAdjust="spacing" textLength="19" x="458.5" y="440.2393">Não</text><rect fill="#F1F1F1" height="35.0938" rx="12.5" ry="12.5" style="stroke:#181818;stroke-width:0.5;" width="159" x="99" y="464.6563"/><text fill="#000000" font-family="sans-serif" font-size="12" lengthAdjust="spacing" textLength="139" x="109" y="487.1133">Sistema atualiza a senha</text><rect fill="#F1F1F1" height="35.0938" rx="12.5" ry="12.5" style="stroke:#181818;stroke-width:0.5;" width="335" x="11" y="519.75"/><text fill="#000000" font-family="sans-serif" font-size="12" lengthAdjust="spacing" textLength="315" x="21" y="542.207">Sistema exibe MSG06 ("Senha redefinida com sucesso.")</text><rect fill="#F1F1F1" height="35.0938" rx="12.5" ry="12.5" style="stroke:#181818;stroke-width:0.5;" width="425" x="366" y="464.6563"/><text fill="#000000" font-family="sans-serif" font-size="12" lengthAdjust="spacing" textLength="405" x="376" y="487.1133">Sistema exibe MSG29 ("Senha não atende aos requisitos de segurança.")</text><rect fill="#F1F1F1" height="35.0938" rx="12.5" ry="12.5" style="stroke:#181818;stroke-width:0.5;" width="233" x="462" y="519.75"/><text fill="#000000" font-family="sans-serif" font-size="12" lengthAdjust="spacing" textLength="213" x="472" y="542.207">Retorna à tela de redefinição de senha</text><polygon fill="#F1F1F1" points="378.5,560.8438,390.5,572.8438,378.5,584.8438,366.5,572.8438,378.5,560.8438" style="stroke:#181818;stroke-width:0.5;"/><rect fill="#F1F1F1" height="35.0938" rx="12.5" ry="12.5" style="stroke:#181818;stroke-width:0.5;" width="353" x="821" y="155.1875"/><text fill="#000000" font-family="sans-serif" font-size="12" lengthAdjust="spacing" textLength="333" x="831" y="177.6445">Sistema exibe MSG07 ("E-mail não cadastrado no sistema.")</text><rect fill="#F1F1F1" height="35.0938" rx="12.5" ry="12.5" style="stroke:#181818;stroke-width:0.5;" width="241" x="877" y="210.2813"/><text fill="#000000" font-family="sans-serif" font-size="12" lengthAdjust="spacing" textLength="221" x="887" y="232.7383">Retorna à tela de recuperação de senha</text><polygon fill="#F1F1F1" points="688,590.8438,700,602.8438,688,614.8438,676,602.8438,688,590.8438" style="stroke:#181818;stroke-width:0.5;"/><ellipse cx="688" cy="645.8438" fill="none" rx="11" ry="11" style="stroke:#222222;stroke-width:1.0;"/><ellipse cx="688" cy="645.8438" fill="#222222" rx="6" ry="6" style="stroke:#111111;stroke-width:1.0;"/><line style="stroke:#181818;stroke-width:1.0;" x1="688" x2="688" y1="46.0938" y2="66.0938"/><polygon fill="#181818" points="684,56.0938,688,66.0938,692,56.0938,688,60.0938" style="stroke:#181818;stroke-width:1.0;"/><line style="stroke:#181818;stroke-width:1.0;" x1="378.5" x2="378.5" y1="190.2813" y2="210.2813"/><polygon fill="#181818" points="374.5,200.2813,378.5,210.2813,382.5,200.2813,378.5,204.2813" style="stroke:#181818;stroke-width:1.0;"/><line style="stroke:#181818;stroke-width:1.0;" x1="378.5" x2="378.5" y1="245.375" y2="265.375"/><polygon fill="#181818" points="374.5,255.375,378.5,265.375,382.5,255.375,378.5,259.375" style="stroke:#181818;stroke-width:1.0;"/><line style="stroke:#181818;stroke-width:1.0;" x1="378.5" x2="378.5" y1="300.4688" y2="320.4688"/><polygon fill="#181818" points="374.5,310.4688,378.5,320.4688,382.5,310.4688,378.5,314.4688" style="stroke:#181818;stroke-width:1.0;"/><line style="stroke:#181818;stroke-width:1.0;" x1="378.5" x2="378.5" y1="355.5625" y2="375.5625"/><polygon fill="#181818" points="374.5,365.5625,378.5,375.5625,382.5,365.5625,378.5,369.5625" style="stroke:#181818;stroke-width:1.0;"/><line style="stroke:#181818;stroke-width:1.0;" x1="178.5" x2="178.5" y1="499.75" y2="519.75"/><polygon fill="#181818" points="174.5,509.75,178.5,519.75,182.5,509.75,178.5,513.75" style="stroke:#181818;stroke-width:1.0;"/><line style="stroke:#181818;stroke-width:1.0;" x1="578.5" x2="578.5" y1="499.75" y2="519.75"/><polygon fill="#181818" points="574.5,509.75,578.5,519.75,582.5,509.75,578.5,513.75" style="stroke:#181818;stroke-width:1.0;"/><line style="stroke:#181818;stroke-width:1.0;" x1="298.5" x2="178.5" y1="442.6563" y2="442.6563"/><line style="stroke:#181818;stroke-width:1.0;" x1="178.5" x2="178.5" y1="442.6563" y2="464.6563"/><polygon fill="#181818" points="174.5,454.6563,178.5,464.6563,182.5,454.6563,178.5,458.6563" style="stroke:#181818;stroke-width:1.0;"/><line style="stroke:#181818;stroke-width:1.0;" x1="458.5" x2="578.5" y1="442.6563" y2="442.6563"/><line style="stroke:#181818;stroke-width:1.0;" x1="578.5" x2="578.5" y1="442.6563" y2="464.6563"/><polygon fill="#181818" points="574.5,454.6563,578.5,464.6563,582.5,454.6563,578.5,458.6563" style="stroke:#181818;stroke-width:1.0;"/><line style="stroke:#181818;stroke-width:1.0;" x1="178.5" x2="178.5" y1="554.8438" y2="572.8438"/><line style="stroke:#181818;stroke-width:1.0;" x1="178.5" x2="366.5" y1="572.8438" y2="572.8438"/><polygon fill="#181818" points="356.5,568.8438,366.5,572.8438,356.5,576.8438,360.5,572.8438" style="stroke:#181818;stroke-width:1.0;"/><line style="stroke:#181818;stroke-width:1.0;" x1="578.5" x2="578.5" y1="554.8438" y2="572.8438"/><line style="stroke:#181818;stroke-width:1.0;" x1="578.5" x2="390.5" y1="572.8438" y2="572.8438"/><polygon fill="#181818" points="400.5,568.8438,390.5,572.8438,400.5,576.8438,396.5,572.8438" style="stroke:#181818;stroke-width:1.0;"/><line style="stroke:#181818;stroke-width:1.0;" x1="378.5" x2="378.5" y1="410.6563" y2="430.6563"/><polygon fill="#181818" points="374.5,420.6563,378.5,430.6563,382.5,420.6563,378.5,424.6563" style="stroke:#181818;stroke-width:1.0;"/><line style="stroke:#181818;stroke-width:1.0;" x1="997.5" x2="997.5" y1="190.2813" y2="210.2813"/><polygon fill="#181818" points="993.5,200.2813,997.5,210.2813,1001.5,200.2813,997.5,204.2813" style="stroke:#181818;stroke-width:1.0;"/><line style="stroke:#181818;stroke-width:1.0;" x1="630" x2="378.5" y1="133.1875" y2="133.1875"/><line style="stroke:#181818;stroke-width:1.0;" x1="378.5" x2="378.5" y1="133.1875" y2="155.1875"/><polygon fill="#181818" points="374.5,145.1875,378.5,155.1875,382.5,145.1875,378.5,149.1875" style="stroke:#181818;stroke-width:1.0;"/><line style="stroke:#181818;stroke-width:1.0;" x1="746" x2="997.5" y1="133.1875" y2="133.1875"/><line style="stroke:#181818;stroke-width:1.0;" x1="997.5" x2="997.5" y1="133.1875" y2="155.1875"/><polygon fill="#181818" points="993.5,145.1875,997.5,155.1875,1001.5,145.1875,997.5,149.1875" style="stroke:#181818;stroke-width:1.0;"/><line style="stroke:#181818;stroke-width:1.0;" x1="378.5" x2="378.5" y1="584.8438" y2="602.8438"/><line style="stroke:#181818;stroke-width:1.0;" x1="378.5" x2="676" y1="602.8438" y2="602.8438"/><polygon fill="#181818" points="666,598.8438,676,602.8438,666,606.8438,670,602.8438" style="stroke:#181818;stroke-width:1.0;"/><line style="stroke:#181818;stroke-width:1.0;" x1="997.5" x2="997.5" y1="245.375" y2="602.8438"/><line style="stroke:#181818;stroke-width:1.0;" x1="997.5" x2="700" y1="602.8438" y2="602.8438"/><polygon fill="#181818" points="710,598.8438,700,602.8438,710,606.8438,706,602.8438" style="stroke:#181818;stroke-width:1.0;"/><line style="stroke:#181818;stroke-width:1.0;" x1="688" x2="688" y1="101.1875" y2="121.1875"/><polygon fill="#181818" points="684,111.1875,688,121.1875,692,111.1875,688,115.1875" style="stroke:#181818;stroke-width:1.0;"/><line style="stroke:#181818;stroke-width:1.0;" x1="688" x2="688" y1="614.8438" y2="634.8438"/><polygon fill="#181818" points="684,624.8438,688,634.8438,692,624.8438,688,628.8438" style="stroke:#181818;stroke-width:1.0;"/><!--MD5=[31321b89982c9defee30f4bd6d6144f7]
@startuml
:Usuário clica em "Enviar";

:Sistema verifica se o e-mail está cadastrado;

if (E-mail cadastrado?) then (Sim)
    :Sistema envia e-mail com link de redefinição;    
    :Usuário acessa o e-mail e clica no link;
    :Sistema exibe tela de redefinição de senha;
    :Usuário insere nova senha e confirma;
    :Sistema valida a força da senha;

    if (Senha atende aos critérios?) then (Sim)
        :Sistema atualiza a senha;
        :Sistema exibe MSG06 ("Senha redefinida com sucesso.");
    else (Não)
        :Sistema exibe MSG29 ("Senha não atende aos requisitos de segurança.");
        :Retorna à tela de redefinição de senha;
    endif

else (Não)
    :Sistema exibe MSG07 ("E-mail não cadastrado no sistema.");
    :Retorna à tela de recuperação de senha;
endif

stop
@enduml

PlantUML version 1.2022.12(Sun Oct 23 15:12:26 BRT 2022)
(GPL source distribution)
Java Runtime: Java(TM) SE Runtime Environment
JVM: Java HotSpot(TM) 64-Bit Server VM
Default Encoding: UTF-8
Language: pt
Country: BR
--></g></svg>