<svg xmlns="http://www.w3.org/2000/svg" xmlns:xlink="http://www.w3.org/1999/xlink" contentStyleType="text/css" data-diagram-type="ACTIVITY" height="244px" preserveAspectRatio="none" style="width:328px;height:244px;background:#FFFFFF;" version="1.1" viewBox="0 0 328 244" width="328px" zoomAndPan="magnify"><defs/><g><ellipse cx="164.0742" cy="20" fill="#222222" rx="10" ry="10" style="stroke:#222222;stroke-width:1;"/><rect fill="#F1F1F1" height="33.9688" rx="12.5" ry="12.5" style="stroke:#181818;stroke-width:0.5;" width="306.1484" x="11" y="50"/><text fill="#000000" font-family="sans-serif" font-size="12" lengthAdjust="spacing" textLength="286.1484" x="21" y="71.1387">Receber destinat&#225;rio e conte&#250;do da mensagem</text><rect fill="#F1F1F1" height="33.9688" rx="12.5" ry="12.5" style="stroke:#181818;stroke-width:0.5;" width="246.6582" x="40.7451" y="103.9688"/><text fill="#000000" font-family="sans-serif" font-size="12" lengthAdjust="spacing" textLength="226.6582" x="50.7451" y="125.1074">Enviar mensagem para o destinat&#225;rio</text><rect fill="#F1F1F1" height="33.9688" rx="12.5" ry="12.5" style="stroke:#181818;stroke-width:0.5;" width="187.4844" x="70.332" y="157.9375"/><text fill="#000000" font-family="sans-serif" font-size="12" lengthAdjust="spacing" textLength="167.4844" x="80.332" y="179.0762">Exibir confirma&#231;&#227;o de envio</text><ellipse cx="164.0742" cy="222.9063" fill="none" rx="11" ry="11" style="stroke:#222222;stroke-width:1;"/><ellipse cx="164.0742" cy="222.9063" fill="#222222" rx="6" ry="6" style="stroke:#222222;stroke-width:1;"/><line style="stroke:#181818;stroke-width:1;" x1="164.0742" x2="164.0742" y1="30" y2="50"/><polygon fill="#181818" points="160.0742,40,164.0742,50,168.0742,40,164.0742,44" style="stroke:#181818;stroke-width:1;"/><line style="stroke:#181818;stroke-width:1;" x1="164.0742" x2="164.0742" y1="83.9688" y2="103.9688"/><polygon fill="#181818" points="160.0742,93.9688,164.0742,103.9688,168.0742,93.9688,164.0742,97.9688" style="stroke:#181818;stroke-width:1;"/><line style="stroke:#181818;stroke-width:1;" x1="164.0742" x2="164.0742" y1="137.9375" y2="157.9375"/><polygon fill="#181818" points="160.0742,147.9375,164.0742,157.9375,168.0742,147.9375,164.0742,151.9375" style="stroke:#181818;stroke-width:1;"/><line style="stroke:#181818;stroke-width:1;" x1="164.0742" x2="164.0742" y1="191.9063" y2="211.9063"/><polygon fill="#181818" points="160.0742,201.9063,164.0742,211.9063,168.0742,201.9063,164.0742,205.9063" style="stroke:#181818;stroke-width:1;"/><!--SRC=[LSon2SCm48NXNbEyEPpQ2sI3i_KShf3Ed8wGTOoBx91MYyKcO4Zxy_6t48-KXZjdJdHajj0gqJTN0p5R3VPFDcH1OMtoOBabO1ZhKyMlXbLSOF-37tpff7wU5lKY_Tttau77u10jRFq2]--></g></svg>