<svg xmlns="http://www.w3.org/2000/svg" xmlns:xlink="http://www.w3.org/1999/xlink" contentStyleType="text/css" data-diagram-type="ACTIVITY" height="308px" preserveAspectRatio="none" style="width:341px;height:308px;background:#FFFFFF;" version="1.1" viewBox="0 0 341 308" width="341px" zoomAndPan="magnify"><defs/><g><ellipse cx="159.4414" cy="20" fill="#222222" rx="10" ry="10" style="stroke:#222222;stroke-width:1;"/><rect fill="#F1F1F1" height="33.9688" rx="12.5" ry="12.5" style="stroke:#181818;stroke-width:0.5;" width="173.4395" x="72.7217" y="50"/><text fill="#000000" font-family="sans-serif" font-size="12" lengthAdjust="spacing" textLength="153.4395" x="82.7217" y="71.1387">Receber dados de acesso</text><rect fill="#F1F1F1" height="33.9688" rx="12.5" ry="12.5" style="stroke:#181818;stroke-width:0.5;" width="206.3164" x="56.2832" y="103.9688"/><text fill="#000000" font-family="sans-serif" font-size="12" lengthAdjust="spacing" textLength="186.3164" x="66.2832" y="125.1074">Verificar credenciais de acesso</text><polygon fill="#F1F1F1" points="103.2034,157.9375,215.6794,157.9375,227.6794,169.9375,215.6794,181.9375,103.2034,181.9375,91.2034,169.9375,103.2034,157.9375" style="stroke:#181818;stroke-width:0.5;"/><text fill="#000000" font-family="sans-serif" font-size="11" lengthAdjust="spacing" textLength="112.4761" x="103.2034" y="173.7456">Credenciais v&#225;lidas?</text><text fill="#000000" font-family="sans-serif" font-size="11" lengthAdjust="spacing" textLength="20.7539" x="70.4495" y="167.3433">Sim</text><text fill="#000000" font-family="sans-serif" font-size="11" lengthAdjust="spacing" textLength="21.6992" x="227.6794" y="167.3433">N&#227;o</text><rect fill="#F1F1F1" height="33.9688" rx="12.5" ry="12.5" style="stroke:#181818;stroke-width:0.5;" width="127.2852" x="11" y="191.9375"/><text fill="#000000" font-family="sans-serif" font-size="12" lengthAdjust="spacing" textLength="107.2852" x="21" y="213.0762">Acesso concedido</text><rect fill="#F1F1F1" height="33.9688" rx="12.5" ry="12.5" style="stroke:#181818;stroke-width:0.5;" width="171.9102" x="158.2852" y="191.9375"/><text fill="#000000" font-family="sans-serif" font-size="12" lengthAdjust="spacing" textLength="151.9102" x="168.2852" y="213.0762">Exibir mensagem de erro</text><polygon fill="#F1F1F1" points="159.4414,231.9063,171.4414,243.9063,159.4414,255.9063,147.4414,243.9063,159.4414,231.9063" style="stroke:#181818;stroke-width:0.5;"/><ellipse cx="159.4414" cy="286.9063" fill="none" rx="11" ry="11" style="stroke:#222222;stroke-width:1;"/><ellipse cx="159.4414" cy="286.9063" fill="#222222" rx="6" ry="6" style="stroke:#222222;stroke-width:1;"/><line style="stroke:#181818;stroke-width:1;" x1="159.4414" x2="159.4414" y1="30" y2="50"/><polygon fill="#181818" points="155.4414,40,159.4414,50,163.4414,40,159.4414,44" style="stroke:#181818;stroke-width:1;"/><line style="stroke:#181818;stroke-width:1;" x1="159.4414" x2="159.4414" y1="83.9688" y2="103.9688"/><polygon fill="#181818" points="155.4414,93.9688,159.4414,103.9688,163.4414,93.9688,159.4414,97.9688" style="stroke:#181818;stroke-width:1;"/><line style="stroke:#181818;stroke-width:1;" x1="91.2034" x2="74.6426" y1="169.9375" y2="169.9375"/><line style="stroke:#181818;stroke-width:1;" x1="74.6426" x2="74.6426" y1="169.9375" y2="191.9375"/><polygon fill="#181818" points="70.6426,181.9375,74.6426,191.9375,78.6426,181.9375,74.6426,185.9375" style="stroke:#181818;stroke-width:1;"/><line style="stroke:#181818;stroke-width:1;" x1="227.6794" x2="244.2402" y1="169.9375" y2="169.9375"/><line style="stroke:#181818;stroke-width:1;" x1="244.2402" x2="244.2402" y1="169.9375" y2="191.9375"/><polygon fill="#181818" points="240.2402,181.9375,244.2402,191.9375,248.2402,181.9375,244.2402,185.9375" style="stroke:#181818;stroke-width:1;"/><line style="stroke:#181818;stroke-width:1;" x1="74.6426" x2="74.6426" y1="225.9063" y2="243.9063"/><line style="stroke:#181818;stroke-width:1;" x1="74.6426" x2="147.4414" y1="243.9063" y2="243.9063"/><polygon fill="#181818" points="137.4414,239.9063,147.4414,243.9063,137.4414,247.9063,141.4414,243.9063" style="stroke:#181818;stroke-width:1;"/><line style="stroke:#181818;stroke-width:1;" x1="244.2402" x2="244.2402" y1="225.9063" y2="243.9063"/><line style="stroke:#181818;stroke-width:1;" x1="244.2402" x2="171.4414" y1="243.9063" y2="243.9063"/><polygon fill="#181818" points="181.4414,239.9063,171.4414,243.9063,181.4414,247.9063,177.4414,243.9063" style="stroke:#181818;stroke-width:1;"/><line style="stroke:#181818;stroke-width:1;" x1="159.4414" x2="159.4414" y1="137.9375" y2="157.9375"/><polygon fill="#181818" points="155.4414,147.9375,159.4414,157.9375,163.4414,147.9375,159.4414,151.9375" style="stroke:#181818;stroke-width:1;"/><line style="stroke:#181818;stroke-width:1;" x1="159.4414" x2="159.4414" y1="255.9063" y2="275.9063"/><polygon fill="#181818" points="155.4414,265.9063,159.4414,275.9063,163.4414,265.9063,159.4414,269.9063" style="stroke:#181818;stroke-width:1;"/><!--SRC=[LSqn3i9034JHVa_XChb2A112j1GWqJls12mbkyXU8Qw3E4ek1aa5zRolYSfUK-fE4FHmKjOIf20MH9HDwYvm6qpOIHoABCRs9soWPlypFURNQCgnRQdUaAavszGcecwt1YGb2zJqcs8CK7EStsK5XwVrvZGX1rynBITmNrnM6rBKSly0]--></g></svg>