<svg xmlns="http://www.w3.org/2000/svg" xmlns:xlink="http://www.w3.org/1999/xlink" contentStyleType="text/css" data-diagram-type="ACTIVITY" height="308px" preserveAspectRatio="none" style="width:417px;height:308px;background:#FFFFFF;" version="1.1" viewBox="0 0 417 308" width="417px" zoomAndPan="magnify"><defs/><g><ellipse cx="216.7505" cy="20" fill="#222222" rx="10" ry="10" style="stroke:#222222;stroke-width:1;"/><rect fill="#F1F1F1" height="33.9688" rx="12.5" ry="12.5" style="stroke:#181818;stroke-width:0.5;" width="263.4219" x="85.0396" y="50"/><text fill="#000000" font-family="sans-serif" font-size="12" lengthAdjust="spacing" textLength="243.4219" x="95.0396" y="71.1387">Receber dados bancarios para a compra</text><rect fill="#F1F1F1" height="33.9688" rx="12.5" ry="12.5" style="stroke:#181818;stroke-width:0.5;" width="102.1309" x="165.6851" y="103.9688"/><text fill="#000000" font-family="sans-serif" font-size="12" lengthAdjust="spacing" textLength="82.1309" x="175.6851" y="125.1074">Validar dados</text><polygon fill="#F1F1F1" points="175.3528,157.9375,258.1482,157.9375,270.1482,169.9375,258.1482,181.9375,175.3528,181.9375,163.3528,169.9375,175.3528,157.9375" style="stroke:#181818;stroke-width:0.5;"/><text fill="#000000" font-family="sans-serif" font-size="11" lengthAdjust="spacing" textLength="82.7954" x="175.3528" y="173.7456">Dados v&#225;lidos?</text><text fill="#000000" font-family="sans-serif" font-size="11" lengthAdjust="spacing" textLength="20.7539" x="142.5989" y="167.3433">Sim</text><text fill="#000000" font-family="sans-serif" font-size="11" lengthAdjust="spacing" textLength="21.6992" x="270.1482" y="167.3433">N&#227;o</text><rect fill="#F1F1F1" height="33.9688" rx="12.5" ry="12.5" style="stroke:#181818;stroke-width:0.5;" width="203.6973" x="11" y="191.9375"/><text fill="#000000" font-family="sans-serif" font-size="12" lengthAdjust="spacing" textLength="183.6973" x="21" y="213.0762">Salvar informa&#231;&#245;es da compra</text><rect fill="#F1F1F1" height="33.9688" rx="12.5" ry="12.5" style="stroke:#181818;stroke-width:0.5;" width="171.9102" x="234.6973" y="191.9375"/><text fill="#000000" font-family="sans-serif" font-size="12" lengthAdjust="spacing" textLength="151.9102" x="244.6973" y="213.0762">Exibir mensagem de erro</text><polygon fill="#F1F1F1" points="216.7505,231.9063,228.7505,243.9063,216.7505,255.9063,204.7505,243.9063,216.7505,231.9063" style="stroke:#181818;stroke-width:0.5;"/><ellipse cx="216.7505" cy="286.9063" fill="none" rx="11" ry="11" style="stroke:#222222;stroke-width:1;"/><ellipse cx="216.7505" cy="286.9063" fill="#222222" rx="6" ry="6" style="stroke:#222222;stroke-width:1;"/><line style="stroke:#181818;stroke-width:1;" x1="216.7505" x2="216.7505" y1="30" y2="50"/><polygon fill="#181818" points="212.7505,40,216.7505,50,220.7505,40,216.7505,44" style="stroke:#181818;stroke-width:1;"/><line style="stroke:#181818;stroke-width:1;" x1="216.7505" x2="216.7505" y1="83.9688" y2="103.9688"/><polygon fill="#181818" points="212.7505,93.9688,216.7505,103.9688,220.7505,93.9688,216.7505,97.9688" style="stroke:#181818;stroke-width:1;"/><line style="stroke:#181818;stroke-width:1;" x1="163.3528" x2="112.8486" y1="169.9375" y2="169.9375"/><line style="stroke:#181818;stroke-width:1;" x1="112.8486" x2="112.8486" y1="169.9375" y2="191.9375"/><polygon fill="#181818" points="108.8486,181.9375,112.8486,191.9375,116.8486,181.9375,112.8486,185.9375" style="stroke:#181818;stroke-width:1;"/><line style="stroke:#181818;stroke-width:1;" x1="270.1482" x2="320.6523" y1="169.9375" y2="169.9375"/><line style="stroke:#181818;stroke-width:1;" x1="320.6523" x2="320.6523" y1="169.9375" y2="191.9375"/><polygon fill="#181818" points="316.6523,181.9375,320.6523,191.9375,324.6523,181.9375,320.6523,185.9375" style="stroke:#181818;stroke-width:1;"/><line style="stroke:#181818;stroke-width:1;" x1="112.8486" x2="112.8486" y1="225.9063" y2="243.9063"/><line style="stroke:#181818;stroke-width:1;" x1="112.8486" x2="204.7505" y1="243.9063" y2="243.9063"/><polygon fill="#181818" points="194.7505,239.9063,204.7505,243.9063,194.7505,247.9063,198.7505,243.9063" style="stroke:#181818;stroke-width:1;"/><line style="stroke:#181818;stroke-width:1;" x1="320.6523" x2="320.6523" y1="225.9063" y2="243.9063"/><line style="stroke:#181818;stroke-width:1;" x1="320.6523" x2="228.7505" y1="243.9063" y2="243.9063"/><polygon fill="#181818" points="238.7505,239.9063,228.7505,243.9063,238.7505,247.9063,234.7505,243.9063" style="stroke:#181818;stroke-width:1;"/><line style="stroke:#181818;stroke-width:1;" x1="216.7505" x2="216.7505" y1="137.9375" y2="157.9375"/><polygon fill="#181818" points="212.7505,147.9375,216.7505,157.9375,220.7505,147.9375,216.7505,151.9375" style="stroke:#181818;stroke-width:1;"/><line style="stroke:#181818;stroke-width:1;" x1="216.7505" x2="216.7505" y1="255.9063" y2="275.9063"/><polygon fill="#181818" points="212.7505,265.9063,216.7505,275.9063,220.7505,265.9063,216.7505,269.9063" style="stroke:#181818;stroke-width:1;"/><!--SRC=[FOon3S9034LxJ-4oMI4fQA2b81AzatF0KkuSsQU8TH054p31BSOfGdHVUkzzpsGPeBlmn2CR1WhgE5AQoAIkbOoGSDAu6lNGNMcHG3-l1vcnEUx9LfwLg1zQp7TEs0mIMq3i1bgs6aYQrIALT_cmr_n_oOipDkVoqbq_FMGKmyZ9wSOH0oERQVLIa1d0iwvV]--></g></svg>