<svg xmlns="http://www.w3.org/2000/svg" xmlns:xlink="http://www.w3.org/1999/xlink" contentStyleType="text/css" data-diagram-type="ACTIVITY" height="244px" preserveAspectRatio="none" style="width:315px;height:244px;background:#FFFFFF;" version="1.1" viewBox="0 0 315 244" width="315px" zoomAndPan="magnify"><defs/><g><ellipse cx="157.6787" cy="20" fill="#222222" rx="10" ry="10" style="stroke:#222222;stroke-width:1;"/><rect fill="#F1F1F1" height="33.9688" rx="12.5" ry="12.5" style="stroke:#181818;stroke-width:0.5;" width="184.8242" x="65.2666" y="50"/><text fill="#000000" font-family="sans-serif" font-size="12" lengthAdjust="spacing" textLength="164.8242" x="75.2666" y="71.1387">Receber itens da transa&#231;&#227;o</text><rect fill="#F1F1F1" height="33.9688" rx="12.5" ry="12.5" style="stroke:#181818;stroke-width:0.5;" width="293.3574" x="11" y="103.9688"/><text fill="#000000" font-family="sans-serif" font-size="12" lengthAdjust="spacing" textLength="273.3574" x="21" y="125.1074">Calcular o total somando os valores dos itens</text><rect fill="#F1F1F1" height="33.9688" rx="12.5" ry="12.5" style="stroke:#181818;stroke-width:0.5;" width="167.252" x="74.0527" y="157.9375"/><text fill="#000000" font-family="sans-serif" font-size="12" lengthAdjust="spacing" textLength="147.252" x="84.0527" y="179.0762">Exibir total da transa&#231;&#227;o</text><ellipse cx="157.6787" cy="222.9063" fill="none" rx="11" ry="11" style="stroke:#222222;stroke-width:1;"/><ellipse cx="157.6787" cy="222.9063" fill="#222222" rx="6" ry="6" style="stroke:#222222;stroke-width:1;"/><line style="stroke:#181818;stroke-width:1;" x1="157.6787" x2="157.6787" y1="30" y2="50"/><polygon fill="#181818" points="153.6787,40,157.6787,50,161.6787,40,157.6787,44" style="stroke:#181818;stroke-width:1;"/><line style="stroke:#181818;stroke-width:1;" x1="157.6787" x2="157.6787" y1="83.9688" y2="103.9688"/><polygon fill="#181818" points="153.6787,93.9688,157.6787,103.9688,161.6787,93.9688,157.6787,97.9688" style="stroke:#181818;stroke-width:1;"/><line style="stroke:#181818;stroke-width:1;" x1="157.6787" x2="157.6787" y1="137.9375" y2="157.9375"/><polygon fill="#181818" points="153.6787,147.9375,157.6787,157.9375,161.6787,147.9375,157.6787,151.9375" style="stroke:#181818;stroke-width:1;"/><line style="stroke:#181818;stroke-width:1;" x1="157.6787" x2="157.6787" y1="191.9063" y2="211.9063"/><polygon fill="#181818" points="153.6787,201.9063,157.6787,211.9063,161.6787,201.9063,157.6787,205.9063" style="stroke:#181818;stroke-width:1;"/><!--SRC=[NOon3O0m30JxJE4ve4Gim0OFSH4fnCWsY7qe62IB4I4gkYlkpXpg8NGJBpopKd8kHX7aYcAeTxsa3zs0lEmPIa8kZamcAqeK4gC3MPHRrFZDcp-UQKxwkV-RkMmF]--></g></svg>