<svg xmlns="http://www.w3.org/2000/svg" xmlns:xlink="http://www.w3.org/1999/xlink" contentStyleType="text/css" data-diagram-type="ACTIVITY" height="308px" preserveAspectRatio="none" style="width:391px;height:308px;background:#FFFFFF;" version="1.1" viewBox="0 0 391 308" width="391px" zoomAndPan="magnify"><defs/><g><ellipse cx="197.0894" cy="20" fill="#222222" rx="10" ry="10" style="stroke:#222222;stroke-width:1;"/><rect fill="#F1F1F1" height="33.9688" rx="12.5" ry="12.5" style="stroke:#181818;stroke-width:0.5;" width="154.3613" x="119.9087" y="50"/><text fill="#000000" font-family="sans-serif" font-size="12" lengthAdjust="spacing" textLength="134.3613" x="129.9087" y="71.1387">Receber ID da compra</text><rect fill="#F1F1F1" height="33.9688" rx="12.5" ry="12.5" style="stroke:#181818;stroke-width:0.5;" width="302.457" x="45.8608" y="103.9688"/><text fill="#000000" font-family="sans-serif" font-size="12" lengthAdjust="spacing" textLength="282.457" x="55.8608" y="125.1074">Buscar detalhes da compra no banco de dados</text><polygon fill="#F1F1F1" points="139.342,157.9375,254.8367,157.9375,266.8367,169.9375,254.8367,181.9375,139.342,181.9375,127.342,169.9375,139.342,157.9375" style="stroke:#181818;stroke-width:0.5;"/><text fill="#000000" font-family="sans-serif" font-size="11" lengthAdjust="spacing" textLength="115.4946" x="139.342" y="173.7456">Compra encontrada?</text><text fill="#000000" font-family="sans-serif" font-size="11" lengthAdjust="spacing" textLength="20.7539" x="106.5881" y="167.3433">Sim</text><text fill="#000000" font-family="sans-serif" font-size="11" lengthAdjust="spacing" textLength="21.6992" x="266.8367" y="167.3433">N&#227;o</text><rect fill="#F1F1F1" height="33.9688" rx="12.5" ry="12.5" style="stroke:#181818;stroke-width:0.5;" width="177.4824" x="11" y="191.9375"/><text fill="#000000" font-family="sans-serif" font-size="12" lengthAdjust="spacing" textLength="157.4824" x="21" y="213.0762">Exibir detalhes da compra</text><rect fill="#F1F1F1" height="33.9688" rx="12.5" ry="12.5" style="stroke:#181818;stroke-width:0.5;" width="171.9102" x="208.4824" y="191.9375"/><text fill="#000000" font-family="sans-serif" font-size="12" lengthAdjust="spacing" textLength="151.9102" x="218.4824" y="213.0762">Exibir mensagem de erro</text><polygon fill="#F1F1F1" points="197.0894,231.9063,209.0894,243.9063,197.0894,255.9063,185.0894,243.9063,197.0894,231.9063" style="stroke:#181818;stroke-width:0.5;"/><ellipse cx="197.0894" cy="286.9063" fill="none" rx="11" ry="11" style="stroke:#222222;stroke-width:1;"/><ellipse cx="197.0894" cy="286.9063" fill="#222222" rx="6" ry="6" style="stroke:#222222;stroke-width:1;"/><line style="stroke:#181818;stroke-width:1;" x1="197.0894" x2="197.0894" y1="30" y2="50"/><polygon fill="#181818" points="193.0894,40,197.0894,50,201.0894,40,197.0894,44" style="stroke:#181818;stroke-width:1;"/><line style="stroke:#181818;stroke-width:1;" x1="197.0894" x2="197.0894" y1="83.9688" y2="103.9688"/><polygon fill="#181818" points="193.0894,93.9688,197.0894,103.9688,201.0894,93.9688,197.0894,97.9688" style="stroke:#181818;stroke-width:1;"/><line style="stroke:#181818;stroke-width:1;" x1="127.342" x2="99.7412" y1="169.9375" y2="169.9375"/><line style="stroke:#181818;stroke-width:1;" x1="99.7412" x2="99.7412" y1="169.9375" y2="191.9375"/><polygon fill="#181818" points="95.7412,181.9375,99.7412,191.9375,103.7412,181.9375,99.7412,185.9375" style="stroke:#181818;stroke-width:1;"/><line style="stroke:#181818;stroke-width:1;" x1="266.8367" x2="294.4375" y1="169.9375" y2="169.9375"/><line style="stroke:#181818;stroke-width:1;" x1="294.4375" x2="294.4375" y1="169.9375" y2="191.9375"/><polygon fill="#181818" points="290.4375,181.9375,294.4375,191.9375,298.4375,181.9375,294.4375,185.9375" style="stroke:#181818;stroke-width:1;"/><line style="stroke:#181818;stroke-width:1;" x1="99.7412" x2="99.7412" y1="225.9063" y2="243.9063"/><line style="stroke:#181818;stroke-width:1;" x1="99.7412" x2="185.0894" y1="243.9063" y2="243.9063"/><polygon fill="#181818" points="175.0894,239.9063,185.0894,243.9063,175.0894,247.9063,179.0894,243.9063" style="stroke:#181818;stroke-width:1;"/><line style="stroke:#181818;stroke-width:1;" x1="294.4375" x2="294.4375" y1="225.9063" y2="243.9063"/><line style="stroke:#181818;stroke-width:1;" x1="294.4375" x2="209.0894" y1="243.9063" y2="243.9063"/><polygon fill="#181818" points="219.0894,239.9063,209.0894,243.9063,219.0894,247.9063,215.0894,243.9063" style="stroke:#181818;stroke-width:1;"/><line style="stroke:#181818;stroke-width:1;" x1="197.0894" x2="197.0894" y1="137.9375" y2="157.9375"/><polygon fill="#181818" points="193.0894,147.9375,197.0894,157.9375,201.0894,147.9375,197.0894,151.9375" style="stroke:#181818;stroke-width:1;"/><line style="stroke:#181818;stroke-width:1;" x1="197.0894" x2="197.0894" y1="255.9063" y2="275.9063"/><polygon fill="#181818" points="193.0894,265.9063,197.0894,275.9063,201.0894,265.9063,197.0894,269.9063" style="stroke:#181818;stroke-width:1;"/><!--SRC=[RSqx3W8n30JGtgTmkNk5f43YKz1Gm0cSnCj6siGhEqZSXwDmCO8eeA2TDvgnHje0t9aZ1rOyxZ4HHYchaWUtlLaanSIDbfdjQrW50zKetNgQn3pa2OVTHxbBRKg9DYEscIiEbrn6G7I7UmxvtwG7NennE3qVyjiiN8skNDvFh2gzLrEU0Ap9-W80]--></g></svg>