<svg xmlns="http://www.w3.org/2000/svg" xmlns:xlink="http://www.w3.org/1999/xlink" contentStyleType="text/css" data-diagram-type="ACTIVITY" height="492px" preserveAspectRatio="none" style="width:1166px;height:492px;background:#FFFFFF;" version="1.1" viewBox="0 0 1166 492" width="1166px" zoomAndPan="magnify"><defs/><g><ellipse cx="661.583" cy="20" fill="#222222" rx="10" ry="10" style="stroke:#222222;stroke-width:1;"/><rect fill="#F1F1F1" height="33.9688" rx="12.5" ry="12.5" style="stroke:#181818;stroke-width:0.5;" width="282.8105" x="520.1777" y="50"/><text fill="#000000" font-family="sans-serif" font-size="12" lengthAdjust="spacing" textLength="262.8105" x="530.1777" y="71.1387">Expositor acessa a se&#231;&#227;o "Registrar Venda"</text><rect fill="#F1F1F1" height="33.9688" rx="12.5" ry="12.5" style="stroke:#181818;stroke-width:0.5;" width="292.9648" x="515.1006" y="103.9688"/><text fill="#000000" font-family="sans-serif" font-size="12" lengthAdjust="spacing" textLength="272.9648" x="525.1006" y="125.1074">Expositor clica em "Inserir registro de venda"</text><rect fill="#F1F1F1" height="33.9688" rx="12.5" ry="12.5" style="stroke:#181818;stroke-width:0.5;" width="231.4648" x="545.8506" y="157.9375"/><text fill="#000000" font-family="sans-serif" font-size="12" lengthAdjust="spacing" textLength="211.4648" x="555.8506" y="179.0762">Sistema solicita os dados da venda</text><polygon fill="#F1F1F1" points="523.0168,211.9063,800.1492,211.9063,812.1492,223.9063,800.1492,235.9063,523.0168,235.9063,511.0168,223.9063,523.0168,211.9063" style="stroke:#181818;stroke-width:0.5;"/><text fill="#000000" font-family="sans-serif" font-size="11" lengthAdjust="spacing" textLength="277.1323" x="523.0168" y="227.7144">Todos os dados foram preenchidos corretamente?</text><text fill="#000000" font-family="sans-serif" font-size="11" lengthAdjust="spacing" textLength="20.7539" x="490.2629" y="221.312">Sim</text><text fill="#000000" font-family="sans-serif" font-size="11" lengthAdjust="spacing" textLength="21.6992" x="812.1492" y="221.312">N&#227;o</text><polygon fill="#F1F1F1" points="236.8103,245.9063,501.428,245.9063,513.428,257.9063,501.428,269.9063,236.8103,269.9063,224.8103,257.9063,236.8103,245.9063" style="stroke:#181818;stroke-width:0.5;"/><text fill="#000000" font-family="sans-serif" font-size="11" lengthAdjust="spacing" textLength="264.6177" x="236.8103" y="261.7144">Expositor deseja confirmar o registro da venda?</text><text fill="#000000" font-family="sans-serif" font-size="11" lengthAdjust="spacing" textLength="20.7539" x="204.0564" y="255.312">Sim</text><text fill="#000000" font-family="sans-serif" font-size="11" lengthAdjust="spacing" textLength="21.6992" x="513.428" y="255.312">N&#227;o</text><rect fill="#F1F1F1" height="33.9688" rx="12.5" ry="12.5" style="stroke:#181818;stroke-width:0.5;" width="350.5801" x="11" y="279.9063"/><text fill="#000000" font-family="sans-serif" font-size="12" lengthAdjust="spacing" textLength="330.5801" x="21" y="301.0449">Sistema exibe MSG14 "Venda registrada com sucesso"</text><rect fill="#F1F1F1" height="33.9688" rx="12.5" ry="12.5" style="stroke:#181818;stroke-width:0.5;" width="340.7363" x="381.5801" y="279.9063"/><text fill="#000000" font-family="sans-serif" font-size="12" lengthAdjust="spacing" textLength="320.7363" x="391.5801" y="301.0449">Sistema exibe MSG15 "Registro da venda cancelado"</text><ellipse cx="551.9482" cy="344.875" fill="none" rx="11" ry="11" style="stroke:#222222;stroke-width:1;"/><ellipse cx="551.9482" cy="344.875" fill="#222222" rx="6" ry="6" style="stroke:#222222;stroke-width:1;"/><rect fill="#F1F1F1" height="33.9688" rx="12.5" ry="12.5" style="stroke:#181818;stroke-width:0.5;" width="252.0781" x="243.0801" y="375.875"/><text fill="#000000" font-family="sans-serif" font-size="12" lengthAdjust="spacing" textLength="232.0781" x="253.0801" y="397.0137">Sistema atualiza a listagem de vendas</text><rect fill="#F1F1F1" height="33.9688" rx="12.5" ry="12.5" style="stroke:#181818;stroke-width:0.5;" width="403.4609" x="752.3164" y="245.9063"/><text fill="#000000" font-family="sans-serif" font-size="12" lengthAdjust="spacing" textLength="383.4609" x="762.3164" y="267.0449">Sistema exibe MSG15 "Erro: Todos os campos s&#227;o obrigat&#243;rios"</text><polygon fill="#F1F1F1" points="661.583,415.8438,673.583,427.8438,661.583,439.8438,649.583,427.8438,661.583,415.8438" style="stroke:#181818;stroke-width:0.5;"/><ellipse cx="661.583" cy="470.8438" fill="none" rx="11" ry="11" style="stroke:#222222;stroke-width:1;"/><ellipse cx="661.583" cy="470.8438" fill="#222222" rx="6" ry="6" style="stroke:#222222;stroke-width:1;"/><line style="stroke:#181818;stroke-width:1;" x1="661.583" x2="661.583" y1="30" y2="50"/><polygon fill="#181818" points="657.583,40,661.583,50,665.583,40,661.583,44" style="stroke:#181818;stroke-width:1;"/><line style="stroke:#181818;stroke-width:1;" x1="661.583" x2="661.583" y1="83.9688" y2="103.9688"/><polygon fill="#181818" points="657.583,93.9688,661.583,103.9688,665.583,93.9688,661.583,97.9688" style="stroke:#181818;stroke-width:1;"/><line style="stroke:#181818;stroke-width:1;" x1="661.583" x2="661.583" y1="137.9375" y2="157.9375"/><polygon fill="#181818" points="657.583,147.9375,661.583,157.9375,665.583,147.9375,661.583,151.9375" style="stroke:#181818;stroke-width:1;"/><line style="stroke:#181818;stroke-width:1;" x1="551.9482" x2="551.9482" y1="313.875" y2="333.875"/><polygon fill="#181818" points="547.9482,323.875,551.9482,333.875,555.9482,323.875,551.9482,327.875" style="stroke:#181818;stroke-width:1;"/><line style="stroke:#181818;stroke-width:1;" x1="224.8103" x2="186.29" y1="257.9063" y2="257.9063"/><line style="stroke:#181818;stroke-width:1;" x1="186.29" x2="186.29" y1="257.9063" y2="279.9063"/><polygon fill="#181818" points="182.29,269.9063,186.29,279.9063,190.29,269.9063,186.29,273.9063" style="stroke:#181818;stroke-width:1;"/><line style="stroke:#181818;stroke-width:1;" x1="513.428" x2="551.9482" y1="257.9063" y2="257.9063"/><line style="stroke:#181818;stroke-width:1;" x1="551.9482" x2="551.9482" y1="257.9063" y2="279.9063"/><polygon fill="#181818" points="547.9482,269.9063,551.9482,279.9063,555.9482,269.9063,551.9482,273.9063" style="stroke:#181818;stroke-width:1;"/><line style="stroke:#181818;stroke-width:1;" x1="186.29" x2="186.29" y1="313.875" y2="360.875"/><line style="stroke:#181818;stroke-width:1;" x1="186.29" x2="369.1191" y1="360.875" y2="360.875"/><line style="stroke:#181818;stroke-width:1;" x1="369.1191" x2="369.1191" y1="360.875" y2="375.875"/><polygon fill="#181818" points="365.1191,365.875,369.1191,375.875,373.1191,365.875,369.1191,369.875" style="stroke:#181818;stroke-width:1;"/><line style="stroke:#181818;stroke-width:1;" x1="511.0168" x2="369.1191" y1="223.9063" y2="223.9063"/><line style="stroke:#181818;stroke-width:1;" x1="369.1191" x2="369.1191" y1="223.9063" y2="245.9063"/><polygon fill="#181818" points="365.1191,235.9063,369.1191,245.9063,373.1191,235.9063,369.1191,239.9063" style="stroke:#181818;stroke-width:1;"/><line style="stroke:#181818;stroke-width:1;" x1="812.1492" x2="954.0469" y1="223.9063" y2="223.9063"/><line style="stroke:#181818;stroke-width:1;" x1="954.0469" x2="954.0469" y1="223.9063" y2="245.9063"/><polygon fill="#181818" points="950.0469,235.9063,954.0469,245.9063,958.0469,235.9063,954.0469,239.9063" style="stroke:#181818;stroke-width:1;"/><line style="stroke:#181818;stroke-width:1;" x1="369.1191" x2="369.1191" y1="409.8438" y2="427.8438"/><line style="stroke:#181818;stroke-width:1;" x1="369.1191" x2="649.583" y1="427.8438" y2="427.8438"/><polygon fill="#181818" points="639.583,423.8438,649.583,427.8438,639.583,431.8438,643.583,427.8438" style="stroke:#181818;stroke-width:1;"/><line style="stroke:#181818;stroke-width:1;" x1="954.0469" x2="954.0469" y1="279.875" y2="427.8438"/><line style="stroke:#181818;stroke-width:1;" x1="954.0469" x2="673.583" y1="427.8438" y2="427.8438"/><polygon fill="#181818" points="683.583,423.8438,673.583,427.8438,683.583,431.8438,679.583,427.8438" style="stroke:#181818;stroke-width:1;"/><line style="stroke:#181818;stroke-width:1;" x1="661.583" x2="661.583" y1="191.9063" y2="211.9063"/><polygon fill="#181818" points="657.583,201.9063,661.583,211.9063,665.583,201.9063,661.583,205.9063" style="stroke:#181818;stroke-width:1;"/><line style="stroke:#181818;stroke-width:1;" x1="661.583" x2="661.583" y1="439.8438" y2="459.8438"/><polygon fill="#181818" points="657.583,449.8438,661.583,459.8438,665.583,449.8438,661.583,453.8438" style="stroke:#181818;stroke-width:1;"/><!--SRC=[ZL4nJWCn4EpzYjLLIOa4JL9GHOW22eBeD_PUikZiFUqwAE8x53o09-HZsBda4eIGSE5YF3EUdRMCcfsRBNQz66THG4zc20X6-y_zXq3pH6kshAZmGYbWCx-a-uuz0aLexfEHie8ET850y7OIB0j4iPXAuND648E0uN0FhBbptCBaMIeulhQY6A5NekGtN14lgfGnKifqEuMyeGIJ9SUfWtAgnJbS8ADNB9BKiiOoW5oaE_xxssCCIpjU4JmixwwkeJdCVf9ZgAuHR5lRaZ9X5L9d19F7KjgVHZTZdUS4u35vwigyHn_BqW-6AN3xqmhp5Zj-hmlg2eJhKlsfQ9kx_qLOgCeCngeznj8OMDssh9JNcFTVoc8bpn31rKZV]--></g></svg>