<svg xmlns="http://www.w3.org/2000/svg" xmlns:xlink="http://www.w3.org/1999/xlink" contentStyleType="text/css" data-diagram-type="ACTIVITY" height="308px" preserveAspectRatio="none" style="width:341px;height:308px;background:#FFFFFF;" version="1.1" viewBox="0 0 341 308" width="341px" zoomAndPan="magnify"><defs/><g><ellipse cx="159.7007" cy="20" fill="#222222" rx="10" ry="10" style="stroke:#222222;stroke-width:1;"/><rect fill="#F1F1F1" height="33.9688" rx="12.5" ry="12.5" style="stroke:#181818;stroke-width:0.5;" width="263.4219" x="27.9897" y="50"/><text fill="#000000" font-family="sans-serif" font-size="12" lengthAdjust="spacing" textLength="243.4219" x="37.9897" y="71.1387">Receber dados bancarios para a compra</text><rect fill="#F1F1F1" height="33.9688" rx="12.5" ry="12.5" style="stroke:#181818;stroke-width:0.5;" width="102.1309" x="108.6353" y="103.9688"/><text fill="#000000" font-family="sans-serif" font-size="12" lengthAdjust="spacing" textLength="82.1309" x="118.6353" y="125.1074">Validar dados</text><polygon fill="#F1F1F1" points="118.303,157.9375,201.0984,157.9375,213.0984,169.9375,201.0984,181.9375,118.303,181.9375,106.303,169.9375,118.303,157.9375" style="stroke:#181818;stroke-width:0.5;"/><text fill="#000000" font-family="sans-serif" font-size="11" lengthAdjust="spacing" textLength="82.7954" x="118.303" y="173.7456">Dados v&#225;lidos?</text><text fill="#000000" font-family="sans-serif" font-size="11" lengthAdjust="spacing" textLength="20.7539" x="85.5491" y="167.3433">Sim</text><text fill="#000000" font-family="sans-serif" font-size="11" lengthAdjust="spacing" textLength="21.6992" x="213.0984" y="167.3433">N&#227;o</text><rect fill="#F1F1F1" height="33.9688" rx="12.5" ry="12.5" style="stroke:#181818;stroke-width:0.5;" width="127.6309" x="11" y="191.9375"/><text fill="#000000" font-family="sans-serif" font-size="12" lengthAdjust="spacing" textLength="107.6309" x="21" y="213.0762">Processar compra</text><rect fill="#F1F1F1" height="33.9688" rx="12.5" ry="12.5" style="stroke:#181818;stroke-width:0.5;" width="171.9102" x="158.6309" y="191.9375"/><text fill="#000000" font-family="sans-serif" font-size="12" lengthAdjust="spacing" textLength="151.9102" x="168.6309" y="213.0762">Exibir mensagem de erro</text><polygon fill="#F1F1F1" points="159.7007,231.9063,171.7007,243.9063,159.7007,255.9063,147.7007,243.9063,159.7007,231.9063" style="stroke:#181818;stroke-width:0.5;"/><ellipse cx="159.7007" cy="286.9063" fill="none" rx="11" ry="11" style="stroke:#222222;stroke-width:1;"/><ellipse cx="159.7007" cy="286.9063" fill="#222222" rx="6" ry="6" style="stroke:#222222;stroke-width:1;"/><line style="stroke:#181818;stroke-width:1;" x1="159.7007" x2="159.7007" y1="30" y2="50"/><polygon fill="#181818" points="155.7007,40,159.7007,50,163.7007,40,159.7007,44" style="stroke:#181818;stroke-width:1;"/><line style="stroke:#181818;stroke-width:1;" x1="159.7007" x2="159.7007" y1="83.9688" y2="103.9688"/><polygon fill="#181818" points="155.7007,93.9688,159.7007,103.9688,163.7007,93.9688,159.7007,97.9688" style="stroke:#181818;stroke-width:1;"/><line style="stroke:#181818;stroke-width:1;" x1="106.303" x2="74.8154" y1="169.9375" y2="169.9375"/><line style="stroke:#181818;stroke-width:1;" x1="74.8154" x2="74.8154" y1="169.9375" y2="191.9375"/><polygon fill="#181818" points="70.8154,181.9375,74.8154,191.9375,78.8154,181.9375,74.8154,185.9375" style="stroke:#181818;stroke-width:1;"/><line style="stroke:#181818;stroke-width:1;" x1="213.0984" x2="244.5859" y1="169.9375" y2="169.9375"/><line style="stroke:#181818;stroke-width:1;" x1="244.5859" x2="244.5859" y1="169.9375" y2="191.9375"/><polygon fill="#181818" points="240.5859,181.9375,244.5859,191.9375,248.5859,181.9375,244.5859,185.9375" style="stroke:#181818;stroke-width:1;"/><line style="stroke:#181818;stroke-width:1;" x1="74.8154" x2="74.8154" y1="225.9063" y2="243.9063"/><line style="stroke:#181818;stroke-width:1;" x1="74.8154" x2="147.7007" y1="243.9063" y2="243.9063"/><polygon fill="#181818" points="137.7007,239.9063,147.7007,243.9063,137.7007,247.9063,141.7007,243.9063" style="stroke:#181818;stroke-width:1;"/><line style="stroke:#181818;stroke-width:1;" x1="244.5859" x2="244.5859" y1="225.9063" y2="243.9063"/><line style="stroke:#181818;stroke-width:1;" x1="244.5859" x2="171.7007" y1="243.9063" y2="243.9063"/><polygon fill="#181818" points="181.7007,239.9063,171.7007,243.9063,181.7007,247.9063,177.7007,243.9063" style="stroke:#181818;stroke-width:1;"/><line style="stroke:#181818;stroke-width:1;" x1="159.7007" x2="159.7007" y1="137.9375" y2="157.9375"/><polygon fill="#181818" points="155.7007,147.9375,159.7007,157.9375,163.7007,147.9375,159.7007,151.9375" style="stroke:#181818;stroke-width:1;"/><line style="stroke:#181818;stroke-width:1;" x1="159.7007" x2="159.7007" y1="255.9063" y2="275.9063"/><polygon fill="#181818" points="155.7007,265.9063,159.7007,275.9063,163.7007,265.9063,159.7007,269.9063" style="stroke:#181818;stroke-width:1;"/><!--SRC=[DOmn3i8m34Ltdy9ZUuLqO84L8P3OtSG5IqrSsL75TH17wSM8AjY-zDxxNiagGBXov94D4oLr7Ab4Ccbh8ICaZ9eNem72dMP9zFC6a0cxuvwisxiHzKEFzSa5kvla7X33nJIoUsl-9pmxOtVUFheBfvUCOfYvE3quOs9aCsrUIJ81UDNb2m00]--></g></svg>