<svg xmlns="http://www.w3.org/2000/svg" xmlns:xlink="http://www.w3.org/1999/xlink" contentStyleType="text/css" data-diagram-type="ACTIVITY" height="298px" preserveAspectRatio="none" style="width:358px;height:298px;background:#FFFFFF;" version="1.1" viewBox="0 0 358 298" width="358px" zoomAndPan="magnify"><defs/><g><ellipse cx="179.4639" cy="20" fill="#222222" rx="10" ry="10" style="stroke:#222222;stroke-width:1;"/><rect fill="#F1F1F1" height="33.9688" rx="12.5" ry="12.5" style="stroke:#181818;stroke-width:0.5;" width="305.5215" x="26.7031" y="50"/><text fill="#000000" font-family="sans-serif" font-size="12" lengthAdjust="spacing" textLength="285.5215" x="36.7031" y="71.1387">Receber ID do usu&#225;rio e descri&#231;&#227;o do problema</text><rect fill="#F1F1F1" height="33.9688" rx="12.5" ry="12.5" style="stroke:#181818;stroke-width:0.5;" width="206.5684" x="76.1797" y="103.9688"/><text fill="#000000" font-family="sans-serif" font-size="12" lengthAdjust="spacing" textLength="186.5684" x="86.1797" y="125.1074">Gerar um n&#250;mero de protocolo</text><rect fill="#F1F1F1" height="33.9688" rx="12.5" ry="12.5" style="stroke:#181818;stroke-width:0.5;" width="336.9277" x="11" y="157.9375"/><text fill="#000000" font-family="sans-serif" font-size="12" lengthAdjust="spacing" textLength="316.9277" x="21" y="179.0762">Registrar solicita&#231;&#227;o no sistema com status "Aberto"</text><rect fill="#F1F1F1" height="33.9688" rx="12.5" ry="12.5" style="stroke:#181818;stroke-width:0.5;" width="193.6016" x="82.6631" y="211.9063"/><text fill="#000000" font-family="sans-serif" font-size="12" lengthAdjust="spacing" textLength="173.6016" x="92.6631" y="233.0449">Exibir confirma&#231;&#227;o e registro</text><ellipse cx="179.4639" cy="276.875" fill="none" rx="11" ry="11" style="stroke:#222222;stroke-width:1;"/><ellipse cx="179.4639" cy="276.875" fill="#222222" rx="6" ry="6" style="stroke:#222222;stroke-width:1;"/><line style="stroke:#181818;stroke-width:1;" x1="179.4639" x2="179.4639" y1="30" y2="50"/><polygon fill="#181818" points="175.4639,40,179.4639,50,183.4639,40,179.4639,44" style="stroke:#181818;stroke-width:1;"/><line style="stroke:#181818;stroke-width:1;" x1="179.4639" x2="179.4639" y1="83.9688" y2="103.9688"/><polygon fill="#181818" points="175.4639,93.9688,179.4639,103.9688,183.4639,93.9688,179.4639,97.9688" style="stroke:#181818;stroke-width:1;"/><line style="stroke:#181818;stroke-width:1;" x1="179.4639" x2="179.4639" y1="137.9375" y2="157.9375"/><polygon fill="#181818" points="175.4639,147.9375,179.4639,157.9375,183.4639,147.9375,179.4639,151.9375" style="stroke:#181818;stroke-width:1;"/><line style="stroke:#181818;stroke-width:1;" x1="179.4639" x2="179.4639" y1="191.9063" y2="211.9063"/><polygon fill="#181818" points="175.4639,201.9063,179.4639,211.9063,183.4639,201.9063,179.4639,205.9063" style="stroke:#181818;stroke-width:1;"/><line style="stroke:#181818;stroke-width:1;" x1="179.4639" x2="179.4639" y1="245.875" y2="265.875"/><polygon fill="#181818" points="175.4639,255.875,179.4639,265.875,183.4639,255.875,179.4639,259.875" style="stroke:#181818;stroke-width:1;"/><!--SRC=[BSqn3i8m38NXFQUmUensGW8XLcwGf0PPQkhATYIkWnXw1zPS34Tb_ln-gqMn4COxPameS3l3p52rjhSG0yACceNQtZxSPHDE2vOuXV6A4WLgWRLz2uepTZRElF3KaqzIwpVA2sMoU5HM1dNm26Gke1QjAWmdVsyy-F3oeaJYk3v8od-584VFqsgy_G00]--></g></svg>