<svg xmlns="http://www.w3.org/2000/svg" xmlns:xlink="http://www.w3.org/1999/xlink" contentStyleType="text/css" data-diagram-type="ACTIVITY" height="254px" preserveAspectRatio="none" style="width:388px;height:254px;background:#FFFFFF;" version="1.1" viewBox="0 0 388 254" width="388px" zoomAndPan="magnify"><defs/><g><ellipse cx="195.2041" cy="20" fill="#222222" rx="10" ry="10" style="stroke:#222222;stroke-width:1;"/><rect fill="#F1F1F1" height="33.9688" rx="12.5" ry="12.5" style="stroke:#181818;stroke-width:0.5;" width="252.3359" x="69.0361" y="50"/><text fill="#000000" font-family="sans-serif" font-size="12" lengthAdjust="spacing" textLength="232.3359" x="79.0361" y="71.1387">Buscar expositores no banco de dados</text><polygon fill="#F1F1F1" points="124.2708,103.9688,266.1375,103.9688,278.1375,115.9688,266.1375,127.9688,124.2708,127.9688,112.2708,115.9688,124.2708,103.9688" style="stroke:#181818;stroke-width:0.5;"/><text fill="#000000" font-family="sans-serif" font-size="11" lengthAdjust="spacing" textLength="141.8667" x="124.2708" y="119.7769">Expositores encontrados?</text><text fill="#000000" font-family="sans-serif" font-size="11" lengthAdjust="spacing" textLength="20.7539" x="91.5168" y="113.3745">Sim</text><text fill="#000000" font-family="sans-serif" font-size="11" lengthAdjust="spacing" textLength="21.6992" x="278.1375" y="113.3745">N&#227;o</text><rect fill="#F1F1F1" height="33.9688" rx="12.5" ry="12.5" style="stroke:#181818;stroke-width:0.5;" width="174.9688" x="11" y="137.9688"/><text fill="#000000" font-family="sans-serif" font-size="12" lengthAdjust="spacing" textLength="154.9688" x="21" y="159.1074">Exibir lista de expositores</text><rect fill="#F1F1F1" height="33.9688" rx="12.5" ry="12.5" style="stroke:#181818;stroke-width:0.5;" width="171.9102" x="205.9688" y="137.9688"/><text fill="#000000" font-family="sans-serif" font-size="12" lengthAdjust="spacing" textLength="151.9102" x="215.9688" y="159.1074">Exibir mensagem de erro</text><polygon fill="#F1F1F1" points="195.2041,177.9375,207.2041,189.9375,195.2041,201.9375,183.2041,189.9375,195.2041,177.9375" style="stroke:#181818;stroke-width:0.5;"/><ellipse cx="195.2041" cy="232.9375" fill="none" rx="11" ry="11" style="stroke:#222222;stroke-width:1;"/><ellipse cx="195.2041" cy="232.9375" fill="#222222" rx="6" ry="6" style="stroke:#222222;stroke-width:1;"/><line style="stroke:#181818;stroke-width:1;" x1="195.2041" x2="195.2041" y1="30" y2="50"/><polygon fill="#181818" points="191.2041,40,195.2041,50,199.2041,40,195.2041,44" style="stroke:#181818;stroke-width:1;"/><line style="stroke:#181818;stroke-width:1;" x1="112.2708" x2="98.4844" y1="115.9688" y2="115.9688"/><line style="stroke:#181818;stroke-width:1;" x1="98.4844" x2="98.4844" y1="115.9688" y2="137.9688"/><polygon fill="#181818" points="94.4844,127.9688,98.4844,137.9688,102.4844,127.9688,98.4844,131.9688" style="stroke:#181818;stroke-width:1;"/><line style="stroke:#181818;stroke-width:1;" x1="278.1375" x2="291.9238" y1="115.9688" y2="115.9688"/><line style="stroke:#181818;stroke-width:1;" x1="291.9238" x2="291.9238" y1="115.9688" y2="137.9688"/><polygon fill="#181818" points="287.9238,127.9688,291.9238,137.9688,295.9238,127.9688,291.9238,131.9688" style="stroke:#181818;stroke-width:1;"/><line style="stroke:#181818;stroke-width:1;" x1="98.4844" x2="98.4844" y1="171.9375" y2="189.9375"/><line style="stroke:#181818;stroke-width:1;" x1="98.4844" x2="183.2041" y1="189.9375" y2="189.9375"/><polygon fill="#181818" points="173.2041,185.9375,183.2041,189.9375,173.2041,193.9375,177.2041,189.9375" style="stroke:#181818;stroke-width:1;"/><line style="stroke:#181818;stroke-width:1;" x1="291.9238" x2="291.9238" y1="171.9375" y2="189.9375"/><line style="stroke:#181818;stroke-width:1;" x1="291.9238" x2="207.2041" y1="189.9375" y2="189.9375"/><polygon fill="#181818" points="217.2041,185.9375,207.2041,189.9375,217.2041,193.9375,213.2041,189.9375" style="stroke:#181818;stroke-width:1;"/><line style="stroke:#181818;stroke-width:1;" x1="195.2041" x2="195.2041" y1="83.9688" y2="103.9688"/><polygon fill="#181818" points="191.2041,93.9688,195.2041,103.9688,199.2041,93.9688,195.2041,97.9688" style="stroke:#181818;stroke-width:1;"/><line style="stroke:#181818;stroke-width:1;" x1="195.2041" x2="195.2041" y1="201.9375" y2="221.9375"/><polygon fill="#181818" points="191.2041,211.9375,195.2041,221.9375,199.2041,211.9375,195.2041,215.9375" style="stroke:#181818;stroke-width:1;"/><!--SRC=[JSon3OD0343HtbEuF5Q08b8asZIPm70ciSITaUr8x9DHM2oGwkh_z3t80g2_VtmcGzutTGarTgoA4zLPCJDcoke3o89fR0YVkOPTyTPXlBbYUahf0B4VTvd4S1KFkXRDUW1UdJ4zZg-sjd1rUd7vSpCzNSso07ZezWC0]--></g></svg>