<svg xmlns="http://www.w3.org/2000/svg" xmlns:xlink="http://www.w3.org/1999/xlink" contentStyleType="text/css" data-diagram-type="ACTIVITY" height="254px" preserveAspectRatio="none" style="width:478px;height:254px;background:#FFFFFF;" version="1.1" viewBox="0 0 478 254" width="478px" zoomAndPan="magnify"><defs/><g><ellipse cx="244.8608" cy="20" fill="#222222" rx="10" ry="10" style="stroke:#222222;stroke-width:1;"/><rect fill="#F1F1F1" height="33.9688" rx="12.5" ry="12.5" style="stroke:#181818;stroke-width:0.5;" width="353.1348" x="68.2935" y="50"/><text fill="#000000" font-family="sans-serif" font-size="12" lengthAdjust="spacing" textLength="333.1348" x="78.2935" y="71.1387">Buscar produtos comprados associados ao participante</text><polygon fill="#F1F1F1" points="181.6323,103.9688,308.0894,103.9688,320.0894,115.9688,308.0894,127.9688,181.6323,127.9688,169.6323,115.9688,181.6323,103.9688" style="stroke:#181818;stroke-width:0.5;"/><text fill="#000000" font-family="sans-serif" font-size="11" lengthAdjust="spacing" textLength="126.457" x="181.6323" y="119.7769">Produtos encontrados?</text><text fill="#000000" font-family="sans-serif" font-size="11" lengthAdjust="spacing" textLength="20.7539" x="148.8784" y="113.3745">Sim</text><text fill="#000000" font-family="sans-serif" font-size="11" lengthAdjust="spacing" textLength="21.6992" x="320.0894" y="113.3745">N&#227;o</text><rect fill="#F1F1F1" height="33.9688" rx="12.5" ry="12.5" style="stroke:#181818;stroke-width:0.5;" width="229.2969" x="11" y="137.9688"/><text fill="#000000" font-family="sans-serif" font-size="12" lengthAdjust="spacing" textLength="209.2969" x="21" y="159.1074">Exibir lista de produtos comprados</text><rect fill="#F1F1F1" height="33.9688" rx="12.5" ry="12.5" style="stroke:#181818;stroke-width:0.5;" width="207.5527" x="260.2969" y="137.9688"/><text fill="#000000" font-family="sans-serif" font-size="12" lengthAdjust="spacing" textLength="187.5527" x="270.2969" y="159.1074">Exibir mensagem de lista vazia</text><polygon fill="#F1F1F1" points="244.8608,177.9375,256.8608,189.9375,244.8608,201.9375,232.8608,189.9375,244.8608,177.9375" style="stroke:#181818;stroke-width:0.5;"/><ellipse cx="244.8608" cy="232.9375" fill="none" rx="11" ry="11" style="stroke:#222222;stroke-width:1;"/><ellipse cx="244.8608" cy="232.9375" fill="#222222" rx="6" ry="6" style="stroke:#222222;stroke-width:1;"/><line style="stroke:#181818;stroke-width:1;" x1="244.8608" x2="244.8608" y1="30" y2="50"/><polygon fill="#181818" points="240.8608,40,244.8608,50,248.8608,40,244.8608,44" style="stroke:#181818;stroke-width:1;"/><line style="stroke:#181818;stroke-width:1;" x1="169.6323" x2="125.6484" y1="115.9688" y2="115.9688"/><line style="stroke:#181818;stroke-width:1;" x1="125.6484" x2="125.6484" y1="115.9688" y2="137.9688"/><polygon fill="#181818" points="121.6484,127.9688,125.6484,137.9688,129.6484,127.9688,125.6484,131.9688" style="stroke:#181818;stroke-width:1;"/><line style="stroke:#181818;stroke-width:1;" x1="320.0894" x2="364.0732" y1="115.9688" y2="115.9688"/><line style="stroke:#181818;stroke-width:1;" x1="364.0732" x2="364.0732" y1="115.9688" y2="137.9688"/><polygon fill="#181818" points="360.0732,127.9688,364.0732,137.9688,368.0732,127.9688,364.0732,131.9688" style="stroke:#181818;stroke-width:1;"/><line style="stroke:#181818;stroke-width:1;" x1="125.6484" x2="125.6484" y1="171.9375" y2="189.9375"/><line style="stroke:#181818;stroke-width:1;" x1="125.6484" x2="232.8608" y1="189.9375" y2="189.9375"/><polygon fill="#181818" points="222.8608,185.9375,232.8608,189.9375,222.8608,193.9375,226.8608,189.9375" style="stroke:#181818;stroke-width:1;"/><line style="stroke:#181818;stroke-width:1;" x1="364.0732" x2="364.0732" y1="171.9375" y2="189.9375"/><line style="stroke:#181818;stroke-width:1;" x1="364.0732" x2="256.8608" y1="189.9375" y2="189.9375"/><polygon fill="#181818" points="266.8608,185.9375,256.8608,189.9375,266.8608,193.9375,262.8608,189.9375" style="stroke:#181818;stroke-width:1;"/><line style="stroke:#181818;stroke-width:1;" x1="244.8608" x2="244.8608" y1="83.9688" y2="103.9688"/><polygon fill="#181818" points="240.8608,93.9688,244.8608,103.9688,248.8608,93.9688,244.8608,97.9688" style="stroke:#181818;stroke-width:1;"/><line style="stroke:#181818;stroke-width:1;" x1="244.8608" x2="244.8608" y1="201.9375" y2="221.9375"/><polygon fill="#181818" points="240.8608,211.9375,244.8608,221.9375,248.8608,211.9375,244.8608,215.9375" style="stroke:#181818;stroke-width:1;"/><!--SRC=[RSr12i9038NXVKwHPNk5TY48RaNm174crK1dCanI4Q_ZKRoOeqLmuUvVl8zdJjK1XkrYWIgMgd5nDGoQIgNOYimqo9gAfSqbIA7iF89Cs1s-X7FGx1-qwT4ldB4xIke1STZTv2GLPp4dZFpdPmIUZR7RFn_wIn9depEdjrhvbUv2RPwZJ03cMbu0]--></g></svg>