<svg xmlns="http://www.w3.org/2000/svg" xmlns:xlink="http://www.w3.org/1999/xlink" contentStyleType="text/css" data-diagram-type="ACTIVITY" height="254px" preserveAspectRatio="none" style="width:545px;height:254px;background:#FFFFFF;" version="1.1" viewBox="0 0 545 254" width="545px" zoomAndPan="magnify"><defs/><g><ellipse cx="294.5645" cy="20" fill="#222222" rx="10" ry="10" style="stroke:#222222;stroke-width:1;"/><rect fill="#F1F1F1" height="33.9688" rx="12.5" ry="12.5" style="stroke:#181818;stroke-width:0.5;" width="211.0859" x="189.0215" y="50"/><text fill="#000000" font-family="sans-serif" font-size="12" lengthAdjust="spacing" textLength="191.0859" x="199.0215" y="71.1387">Buscar mensagens na conversa</text><polygon fill="#F1F1F1" points="224.5603,103.9688,364.5686,103.9688,376.5686,115.9688,364.5686,127.9688,224.5603,127.9688,212.5603,115.9688,224.5603,103.9688" style="stroke:#181818;stroke-width:0.5;"/><text fill="#000000" font-family="sans-serif" font-size="11" lengthAdjust="spacing" textLength="140.0083" x="224.5603" y="119.7769">Mensagens encontradas?</text><text fill="#000000" font-family="sans-serif" font-size="11" lengthAdjust="spacing" textLength="20.7539" x="191.8064" y="113.3745">Sim</text><text fill="#000000" font-family="sans-serif" font-size="11" lengthAdjust="spacing" textLength="21.6992" x="376.5686" y="113.3745">N&#227;o</text><rect fill="#F1F1F1" height="33.9688" rx="12.5" ry="12.5" style="stroke:#181818;stroke-width:0.5;" width="295.1445" x="11" y="137.9688"/><text fill="#000000" font-family="sans-serif" font-size="12" lengthAdjust="spacing" textLength="275.1445" x="21" y="159.1074">Exibir hist&#243;rico de mensagens na tela do chat</text><rect fill="#F1F1F1" height="33.9688" rx="12.5" ry="12.5" style="stroke:#181818;stroke-width:0.5;" width="208.8242" x="326.1445" y="137.9688"/><text fill="#000000" font-family="sans-serif" font-size="12" lengthAdjust="spacing" textLength="188.8242" x="336.1445" y="159.1074">Exibir mensagem de chat vazio</text><polygon fill="#F1F1F1" points="294.5645,177.9375,306.5645,189.9375,294.5645,201.9375,282.5645,189.9375,294.5645,177.9375" style="stroke:#181818;stroke-width:0.5;"/><ellipse cx="294.5645" cy="232.9375" fill="none" rx="11" ry="11" style="stroke:#222222;stroke-width:1;"/><ellipse cx="294.5645" cy="232.9375" fill="#222222" rx="6" ry="6" style="stroke:#222222;stroke-width:1;"/><line style="stroke:#181818;stroke-width:1;" x1="294.5645" x2="294.5645" y1="30" y2="50"/><polygon fill="#181818" points="290.5645,40,294.5645,50,298.5645,40,294.5645,44" style="stroke:#181818;stroke-width:1;"/><line style="stroke:#181818;stroke-width:1;" x1="212.5603" x2="158.5723" y1="115.9688" y2="115.9688"/><line style="stroke:#181818;stroke-width:1;" x1="158.5723" x2="158.5723" y1="115.9688" y2="137.9688"/><polygon fill="#181818" points="154.5723,127.9688,158.5723,137.9688,162.5723,127.9688,158.5723,131.9688" style="stroke:#181818;stroke-width:1;"/><line style="stroke:#181818;stroke-width:1;" x1="376.5686" x2="430.5566" y1="115.9688" y2="115.9688"/><line style="stroke:#181818;stroke-width:1;" x1="430.5566" x2="430.5566" y1="115.9688" y2="137.9688"/><polygon fill="#181818" points="426.5566,127.9688,430.5566,137.9688,434.5566,127.9688,430.5566,131.9688" style="stroke:#181818;stroke-width:1;"/><line style="stroke:#181818;stroke-width:1;" x1="158.5723" x2="158.5723" y1="171.9375" y2="189.9375"/><line style="stroke:#181818;stroke-width:1;" x1="158.5723" x2="282.5645" y1="189.9375" y2="189.9375"/><polygon fill="#181818" points="272.5645,185.9375,282.5645,189.9375,272.5645,193.9375,276.5645,189.9375" style="stroke:#181818;stroke-width:1;"/><line style="stroke:#181818;stroke-width:1;" x1="430.5566" x2="430.5566" y1="171.9375" y2="189.9375"/><line style="stroke:#181818;stroke-width:1;" x1="430.5566" x2="306.5645" y1="189.9375" y2="189.9375"/><polygon fill="#181818" points="316.5645,185.9375,306.5645,189.9375,316.5645,193.9375,312.5645,189.9375" style="stroke:#181818;stroke-width:1;"/><line style="stroke:#181818;stroke-width:1;" x1="294.5645" x2="294.5645" y1="83.9688" y2="103.9688"/><polygon fill="#181818" points="290.5645,93.9688,294.5645,103.9688,298.5645,93.9688,294.5645,97.9688" style="stroke:#181818;stroke-width:1;"/><line style="stroke:#181818;stroke-width:1;" x1="294.5645" x2="294.5645" y1="201.9375" y2="221.9375"/><polygon fill="#181818" points="290.5645,211.9375,294.5645,221.9375,298.5645,211.9375,294.5645,215.9375" style="stroke:#181818;stroke-width:1;"/><!--SRC=[LOon3S9040Jpgs93kmKxG48YX8GAZlypFid-Ht-7PT4E9L226yEM489aavbPSovErEpl5hXWb6HyNGU94NAQf1Ytf1sgunT9MeaNZcox6jvBGdNMiIQWESnwqO9UpPTNqP0HvV_LPM34ZD2pjoI32QhJyio_-ISOjtZpCF53ysgdg1sHURwz0G00]--></g></svg>