<svg xmlns="http://www.w3.org/2000/svg" xmlns:xlink="http://www.w3.org/1999/xlink" contentStyleType="text/css" data-diagram-type="ACTIVITY" height="426px" preserveAspectRatio="none" style="width:585px;height:426px;background:#FFFFFF;" version="1.1" viewBox="0 0 585 426" width="585px" zoomAndPan="magnify"><defs/><g><ellipse cx="339.8843" cy="20" fill="#222222" rx="10" ry="10" style="stroke:#222222;stroke-width:1;"/><rect fill="#F1F1F1" height="33.9688" rx="12.5" ry="12.5" style="stroke:#181818;stroke-width:0.5;" width="166.7363" x="256.5161" y="50"/><text fill="#000000" font-family="sans-serif" font-size="12" lengthAdjust="spacing" textLength="146.7363" x="266.5161" y="71.1387">Receber email fornecido</text><rect fill="#F1F1F1" height="33.9688" rx="12.5" ry="12.5" style="stroke:#181818;stroke-width:0.5;" width="177.3887" x="251.1899" y="103.9688"/><text fill="#000000" font-family="sans-serif" font-size="12" lengthAdjust="spacing" textLength="157.3887" x="261.1899" y="125.1074">Verificar formato do email</text><polygon fill="#F1F1F1" points="303.4199,157.9375,376.3486,157.9375,388.3486,169.9375,376.3486,181.9375,303.4199,181.9375,291.4199,169.9375,303.4199,157.9375" style="stroke:#181818;stroke-width:0.5;"/><text fill="#000000" font-family="sans-serif" font-size="11" lengthAdjust="spacing" textLength="72.9287" x="303.4199" y="173.7456">Email v&#225;lido?</text><text fill="#000000" font-family="sans-serif" font-size="11" lengthAdjust="spacing" textLength="20.7539" x="270.666" y="167.3433">Sim</text><text fill="#000000" font-family="sans-serif" font-size="11" lengthAdjust="spacing" textLength="21.6992" x="388.3486" y="167.3433">N&#227;o</text><rect fill="#F1F1F1" height="33.9688" rx="12.5" ry="12.5" style="stroke:#181818;stroke-width:0.5;" width="190.8477" x="95.8076" y="191.9375"/><text fill="#000000" font-family="sans-serif" font-size="12" lengthAdjust="spacing" textLength="170.8477" x="105.8076" y="213.0762">Verificar exist&#234;ncia do email</text><polygon fill="#F1F1F1" points="139.916,245.9063,242.5469,245.9063,254.5469,257.9063,242.5469,269.9063,139.916,269.9063,127.916,257.9063,139.916,245.9063" style="stroke:#181818;stroke-width:0.5;"/><text fill="#000000" font-family="sans-serif" font-size="11" lengthAdjust="spacing" textLength="102.6309" x="139.916" y="261.7144">Email encontrado?</text><text fill="#000000" font-family="sans-serif" font-size="11" lengthAdjust="spacing" textLength="20.7539" x="107.1621" y="255.312">Sim</text><text fill="#000000" font-family="sans-serif" font-size="11" lengthAdjust="spacing" textLength="21.6992" x="254.5469" y="255.312">N&#227;o</text><rect fill="#F1F1F1" height="33.9688" rx="12.5" ry="12.5" style="stroke:#181818;stroke-width:0.5;" width="169.6719" x="11" y="279.9063"/><text fill="#000000" font-family="sans-serif" font-size="12" lengthAdjust="spacing" textLength="149.6719" x="21" y="301.0449">Email v&#225;lido e registrado</text><rect fill="#F1F1F1" height="33.9688" rx="12.5" ry="12.5" style="stroke:#181818;stroke-width:0.5;" width="171.9102" x="200.6719" y="279.9063"/><text fill="#000000" font-family="sans-serif" font-size="12" lengthAdjust="spacing" textLength="151.9102" x="210.6719" y="301.0449">Exibir mensagem de erro</text><polygon fill="#F1F1F1" points="191.2314,319.875,203.2314,331.875,191.2314,343.875,179.2314,331.875,191.2314,319.875" style="stroke:#181818;stroke-width:0.5;"/><rect fill="#F1F1F1" height="33.9688" rx="12.5" ry="12.5" style="stroke:#181818;stroke-width:0.5;" width="171.9102" x="402.582" y="191.9375"/><text fill="#000000" font-family="sans-serif" font-size="12" lengthAdjust="spacing" textLength="151.9102" x="412.582" y="213.0762">Exibir mensagem de erro</text><polygon fill="#F1F1F1" points="339.8843,349.875,351.8843,361.875,339.8843,373.875,327.8843,361.875,339.8843,349.875" style="stroke:#181818;stroke-width:0.5;"/><ellipse cx="339.8843" cy="404.875" fill="none" rx="11" ry="11" style="stroke:#222222;stroke-width:1;"/><ellipse cx="339.8843" cy="404.875" fill="#222222" rx="6" ry="6" style="stroke:#222222;stroke-width:1;"/><line style="stroke:#181818;stroke-width:1;" x1="339.8843" x2="339.8843" y1="30" y2="50"/><polygon fill="#181818" points="335.8843,40,339.8843,50,343.8843,40,339.8843,44" style="stroke:#181818;stroke-width:1;"/><line style="stroke:#181818;stroke-width:1;" x1="339.8843" x2="339.8843" y1="83.9688" y2="103.9688"/><polygon fill="#181818" points="335.8843,93.9688,339.8843,103.9688,343.8843,93.9688,339.8843,97.9688" style="stroke:#181818;stroke-width:1;"/><line style="stroke:#181818;stroke-width:1;" x1="127.916" x2="95.8359" y1="257.9063" y2="257.9063"/><line style="stroke:#181818;stroke-width:1;" x1="95.8359" x2="95.8359" y1="257.9063" y2="279.9063"/><polygon fill="#181818" points="91.8359,269.9063,95.8359,279.9063,99.8359,269.9063,95.8359,273.9063" style="stroke:#181818;stroke-width:1;"/><line style="stroke:#181818;stroke-width:1;" x1="254.5469" x2="286.627" y1="257.9063" y2="257.9063"/><line style="stroke:#181818;stroke-width:1;" x1="286.627" x2="286.627" y1="257.9063" y2="279.9063"/><polygon fill="#181818" points="282.627,269.9063,286.627,279.9063,290.627,269.9063,286.627,273.9063" style="stroke:#181818;stroke-width:1;"/><line style="stroke:#181818;stroke-width:1;" x1="95.8359" x2="95.8359" y1="313.875" y2="331.875"/><line style="stroke:#181818;stroke-width:1;" x1="95.8359" x2="179.2314" y1="331.875" y2="331.875"/><polygon fill="#181818" points="169.2314,327.875,179.2314,331.875,169.2314,335.875,173.2314,331.875" style="stroke:#181818;stroke-width:1;"/><line style="stroke:#181818;stroke-width:1;" x1="286.627" x2="286.627" y1="313.875" y2="331.875"/><line style="stroke:#181818;stroke-width:1;" x1="286.627" x2="203.2314" y1="331.875" y2="331.875"/><polygon fill="#181818" points="213.2314,327.875,203.2314,331.875,213.2314,335.875,209.2314,331.875" style="stroke:#181818;stroke-width:1;"/><line style="stroke:#181818;stroke-width:1;" x1="191.2314" x2="191.2314" y1="225.9063" y2="245.9063"/><polygon fill="#181818" points="187.2314,235.9063,191.2314,245.9063,195.2314,235.9063,191.2314,239.9063" style="stroke:#181818;stroke-width:1;"/><line style="stroke:#181818;stroke-width:1;" x1="291.4199" x2="191.2314" y1="169.9375" y2="169.9375"/><line style="stroke:#181818;stroke-width:1;" x1="191.2314" x2="191.2314" y1="169.9375" y2="191.9375"/><polygon fill="#181818" points="187.2314,181.9375,191.2314,191.9375,195.2314,181.9375,191.2314,185.9375" style="stroke:#181818;stroke-width:1;"/><line style="stroke:#181818;stroke-width:1;" x1="388.3486" x2="488.5371" y1="169.9375" y2="169.9375"/><line style="stroke:#181818;stroke-width:1;" x1="488.5371" x2="488.5371" y1="169.9375" y2="191.9375"/><polygon fill="#181818" points="484.5371,181.9375,488.5371,191.9375,492.5371,181.9375,488.5371,185.9375" style="stroke:#181818;stroke-width:1;"/><line style="stroke:#181818;stroke-width:1;" x1="191.2314" x2="191.2314" y1="343.875" y2="361.875"/><line style="stroke:#181818;stroke-width:1;" x1="191.2314" x2="327.8843" y1="361.875" y2="361.875"/><polygon fill="#181818" points="317.8843,357.875,327.8843,361.875,317.8843,365.875,321.8843,361.875" style="stroke:#181818;stroke-width:1;"/><line style="stroke:#181818;stroke-width:1;" x1="488.5371" x2="488.5371" y1="225.9063" y2="361.875"/><line style="stroke:#181818;stroke-width:1;" x1="488.5371" x2="351.8843" y1="361.875" y2="361.875"/><polygon fill="#181818" points="361.8843,357.875,351.8843,361.875,361.8843,365.875,357.8843,361.875" style="stroke:#181818;stroke-width:1;"/><line style="stroke:#181818;stroke-width:1;" x1="339.8843" x2="339.8843" y1="137.9375" y2="157.9375"/><polygon fill="#181818" points="335.8843,147.9375,339.8843,157.9375,343.8843,147.9375,339.8843,151.9375" style="stroke:#181818;stroke-width:1;"/><line style="stroke:#181818;stroke-width:1;" x1="339.8843" x2="339.8843" y1="373.875" y2="393.875"/><polygon fill="#181818" points="335.8843,383.875,339.8843,393.875,343.8843,383.875,339.8843,387.875" style="stroke:#181818;stroke-width:1;"/><!--SRC=[TSqn3e9048NXVa_nIhW255Qs5fhOhyi39s5tpUp6U1rZvpMuc20nGepjv7l_f6mr6rFjwNYYWjvAZpPge9CcrgOwKgKLPtMwUfiZcZYpsaYBOljUN8TxF_fDYNncG74GNnfWiUPDKXwUmObT581lWy75aDN-PiRGwWq8PJVs9Zn5s2UYs0sF-E4tEOd2CoJRqQCXg3hRq4Xhrel_VjOfnyiB]--></g></svg>