<svg xmlns="http://www.w3.org/2000/svg" xmlns:xlink="http://www.w3.org/1999/xlink" contentStyleType="text/css" data-diagram-type="ACTIVITY" height="244px" preserveAspectRatio="none" style="width:251px;height:244px;background:#FFFFFF;" version="1.1" viewBox="0 0 251 244" width="251px" zoomAndPan="magnify"><defs/><g><ellipse cx="125.9766" cy="20" fill="#222222" rx="10" ry="10" style="stroke:#222222;stroke-width:1;"/><rect fill="#F1F1F1" height="33.9688" rx="12.5" ry="12.5" style="stroke:#181818;stroke-width:0.5;" width="229.9531" x="11" y="50"/><text fill="#000000" font-family="sans-serif" font-size="12" lengthAdjust="spacing" textLength="209.9531" x="21" y="71.1387">Receber identifica&#231;&#227;o da avalia&#231;&#227;o</text><rect fill="#F1F1F1" height="33.9688" rx="12.5" ry="12.5" style="stroke:#181818;stroke-width:0.5;" width="135.1074" x="58.4229" y="103.9688"/><text fill="#000000" font-family="sans-serif" font-size="12" lengthAdjust="spacing" textLength="115.1074" x="68.4229" y="125.1074">Remover avalia&#231;&#227;o</text><rect fill="#F1F1F1" height="33.9688" rx="12.5" ry="12.5" style="stroke:#181818;stroke-width:0.5;" width="207.6875" x="22.1328" y="157.9375"/><text fill="#000000" font-family="sans-serif" font-size="12" lengthAdjust="spacing" textLength="187.6875" x="32.1328" y="179.0762">Exibir confirma&#231;&#227;o de exclus&#227;o</text><ellipse cx="125.9766" cy="222.9063" fill="none" rx="11" ry="11" style="stroke:#222222;stroke-width:1;"/><ellipse cx="125.9766" cy="222.9063" fill="#222222" rx="6" ry="6" style="stroke:#222222;stroke-width:1;"/><line style="stroke:#181818;stroke-width:1;" x1="125.9766" x2="125.9766" y1="30" y2="50"/><polygon fill="#181818" points="121.9766,40,125.9766,50,129.9766,40,125.9766,44" style="stroke:#181818;stroke-width:1;"/><line style="stroke:#181818;stroke-width:1;" x1="125.9766" x2="125.9766" y1="83.9688" y2="103.9688"/><polygon fill="#181818" points="121.9766,93.9688,125.9766,103.9688,129.9766,93.9688,125.9766,97.9688" style="stroke:#181818;stroke-width:1;"/><line style="stroke:#181818;stroke-width:1;" x1="125.9766" x2="125.9766" y1="137.9375" y2="157.9375"/><polygon fill="#181818" points="121.9766,147.9375,125.9766,157.9375,129.9766,147.9375,125.9766,151.9375" style="stroke:#181818;stroke-width:1;"/><line style="stroke:#181818;stroke-width:1;" x1="125.9766" x2="125.9766" y1="191.9063" y2="211.9063"/><polygon fill="#181818" points="121.9766,201.9063,125.9766,211.9063,129.9766,201.9063,125.9766,205.9063" style="stroke:#181818;stroke-width:1;"/><!--SRC=[Aov9B2hXuh8AIarEJKejKiXCISqhoKpBJ4uylFpmudo5b4I5nBB4d4m8rngaC3U_3AWGLTIr8ZCfiqWXEJylBRCe5wOtLI6r8Zcdj1YiXgku9By00000]--></g></svg>