<svg xmlns="http://www.w3.org/2000/svg" xmlns:xlink="http://www.w3.org/1999/xlink" contentStyleType="text/css" data-diagram-type="ACTIVITY" height="308px" preserveAspectRatio="none" style="width:408px;height:308px;background:#FFFFFF;" version="1.1" viewBox="0 0 408 308" width="408px" zoomAndPan="magnify"><defs/><g><ellipse cx="191.9419" cy="20" fill="#222222" rx="10" ry="10" style="stroke:#222222;stroke-width:1;"/><rect fill="#F1F1F1" height="33.9688" rx="12.5" ry="12.5" style="stroke:#181818;stroke-width:0.5;" width="200.0762" x="91.9038" y="50"/><text fill="#000000" font-family="sans-serif" font-size="12" lengthAdjust="spacing" textLength="180.0762" x="101.9038" y="71.1387">Solicitar listagem de produtos</text><rect fill="#F1F1F1" height="33.9688" rx="12.5" ry="12.5" style="stroke:#181818;stroke-width:0.5;" width="348.3535" x="17.7651" y="103.9688"/><text fill="#000000" font-family="sans-serif" font-size="12" lengthAdjust="spacing" textLength="328.3535" x="27.7651" y="125.1074">Consultar banco de dados para obter lista de produtos</text><polygon fill="#F1F1F1" points="128.7134,157.9375,255.1704,157.9375,267.1704,169.9375,255.1704,181.9375,128.7134,181.9375,116.7134,169.9375,128.7134,157.9375" style="stroke:#181818;stroke-width:0.5;"/><text fill="#000000" font-family="sans-serif" font-size="11" lengthAdjust="spacing" textLength="126.457" x="128.7134" y="173.7456">Produtos encontrados?</text><text fill="#000000" font-family="sans-serif" font-size="11" lengthAdjust="spacing" textLength="20.7539" x="95.9595" y="167.3433">Sim</text><text fill="#000000" font-family="sans-serif" font-size="11" lengthAdjust="spacing" textLength="21.6992" x="267.1704" y="167.3433">N&#227;o</text><rect fill="#F1F1F1" height="33.9688" rx="12.5" ry="12.5" style="stroke:#181818;stroke-width:0.5;" width="158.7383" x="11" y="191.9375"/><text fill="#000000" font-family="sans-serif" font-size="12" lengthAdjust="spacing" textLength="138.7383" x="21" y="213.0762">Exibir lista de produtos</text><rect fill="#F1F1F1" height="33.9688" rx="12.5" ry="12.5" style="stroke:#181818;stroke-width:0.5;" width="207.5527" x="189.7383" y="191.9375"/><text fill="#000000" font-family="sans-serif" font-size="12" lengthAdjust="spacing" textLength="187.5527" x="199.7383" y="213.0762">Exibir mensagem de lista vazia</text><polygon fill="#F1F1F1" points="191.9419,231.9063,203.9419,243.9063,191.9419,255.9063,179.9419,243.9063,191.9419,231.9063" style="stroke:#181818;stroke-width:0.5;"/><ellipse cx="191.9419" cy="286.9063" fill="none" rx="11" ry="11" style="stroke:#222222;stroke-width:1;"/><ellipse cx="191.9419" cy="286.9063" fill="#222222" rx="6" ry="6" style="stroke:#222222;stroke-width:1;"/><line style="stroke:#181818;stroke-width:1;" x1="191.9419" x2="191.9419" y1="30" y2="50"/><polygon fill="#181818" points="187.9419,40,191.9419,50,195.9419,40,191.9419,44" style="stroke:#181818;stroke-width:1;"/><line style="stroke:#181818;stroke-width:1;" x1="191.9419" x2="191.9419" y1="83.9688" y2="103.9688"/><polygon fill="#181818" points="187.9419,93.9688,191.9419,103.9688,195.9419,93.9688,191.9419,97.9688" style="stroke:#181818;stroke-width:1;"/><line style="stroke:#181818;stroke-width:1;" x1="116.7134" x2="90.3691" y1="169.9375" y2="169.9375"/><line style="stroke:#181818;stroke-width:1;" x1="90.3691" x2="90.3691" y1="169.9375" y2="191.9375"/><polygon fill="#181818" points="86.3691,181.9375,90.3691,191.9375,94.3691,181.9375,90.3691,185.9375" style="stroke:#181818;stroke-width:1;"/><line style="stroke:#181818;stroke-width:1;" x1="267.1704" x2="293.5146" y1="169.9375" y2="169.9375"/><line style="stroke:#181818;stroke-width:1;" x1="293.5146" x2="293.5146" y1="169.9375" y2="191.9375"/><polygon fill="#181818" points="289.5146,181.9375,293.5146,191.9375,297.5146,181.9375,293.5146,185.9375" style="stroke:#181818;stroke-width:1;"/><line style="stroke:#181818;stroke-width:1;" x1="90.3691" x2="90.3691" y1="225.9063" y2="243.9063"/><line style="stroke:#181818;stroke-width:1;" x1="90.3691" x2="179.9419" y1="243.9063" y2="243.9063"/><polygon fill="#181818" points="169.9419,239.9063,179.9419,243.9063,169.9419,247.9063,173.9419,243.9063" style="stroke:#181818;stroke-width:1;"/><line style="stroke:#181818;stroke-width:1;" x1="293.5146" x2="293.5146" y1="225.9063" y2="243.9063"/><line style="stroke:#181818;stroke-width:1;" x1="293.5146" x2="203.9419" y1="243.9063" y2="243.9063"/><polygon fill="#181818" points="213.9419,239.9063,203.9419,243.9063,213.9419,247.9063,209.9419,243.9063" style="stroke:#181818;stroke-width:1;"/><line style="stroke:#181818;stroke-width:1;" x1="191.9419" x2="191.9419" y1="137.9375" y2="157.9375"/><polygon fill="#181818" points="187.9419,147.9375,191.9419,157.9375,195.9419,147.9375,191.9419,151.9375" style="stroke:#181818;stroke-width:1;"/><line style="stroke:#181818;stroke-width:1;" x1="191.9419" x2="191.9419" y1="255.9063" y2="275.9063"/><polygon fill="#181818" points="187.9419,265.9063,191.9419,275.9063,195.9419,265.9063,191.9419,269.9063" style="stroke:#181818;stroke-width:1;"/><!--SRC=[ROv12i8m44NtESKisolKXGjnAq9FC6ccEf1cGcOgnUju52zcWnKKN7x-Uv-lXiMSwtg9FF0Q8B8QNcY2G92BXDb4TwuxID8vLi1Z6gIs0OCeP2m8ueqszTVZ4Phpbe1MCLcfshu5krA2fkUfTG3TSM7FVoSeAa5pUZxa6vmewUVcMxhXdN75K-3HEJN9Bm00]--></g></svg>