<svg xmlns="http://www.w3.org/2000/svg" xmlns:xlink="http://www.w3.org/1999/xlink" contentStyleType="text/css" data-diagram-type="ACTIVITY" height="254px" preserveAspectRatio="none" style="width:403px;height:254px;background:#FFFFFF;" version="1.1" viewBox="0 0 403 254" width="403px" zoomAndPan="magnify"><defs/><g><ellipse cx="202.8154" cy="20" fill="#222222" rx="10" ry="10" style="stroke:#222222;stroke-width:1;"/><rect fill="#F1F1F1" height="33.9688" rx="12.5" ry="12.5" style="stroke:#181818;stroke-width:0.5;" width="145.1563" x="130.2373" y="50"/><text fill="#000000" font-family="sans-serif" font-size="12" lengthAdjust="spacing" textLength="125.1563" x="140.2373" y="71.1387">Verificar status atual</text><polygon fill="#F1F1F1" points="158.1467,103.9688,247.4841,103.9688,259.4841,115.9688,247.4841,127.9688,158.1467,127.9688,146.1467,115.9688,158.1467,103.9688" style="stroke:#181818;stroke-width:0.5;"/><text fill="#000000" font-family="sans-serif" font-size="11" lengthAdjust="spacing" textLength="89.3374" x="158.1467" y="119.7769">Mensagem lida?</text><text fill="#000000" font-family="sans-serif" font-size="11" lengthAdjust="spacing" textLength="20.7539" x="125.3928" y="113.3745">Sim</text><text fill="#000000" font-family="sans-serif" font-size="11" lengthAdjust="spacing" textLength="21.6992" x="259.4841" y="113.3745">N&#227;o</text><rect fill="#F1F1F1" height="33.9688" rx="12.5" ry="12.5" style="stroke:#181818;stroke-width:0.5;" width="182.7734" x="11" y="137.9688"/><text fill="#000000" font-family="sans-serif" font-size="12" lengthAdjust="spacing" textLength="162.7734" x="21" y="159.1074">Atualizar status para &#8220;lida&#8221;</text><rect fill="#F1F1F1" height="33.9688" rx="12.5" ry="12.5" style="stroke:#181818;stroke-width:0.5;" width="178.9414" x="213.7734" y="137.9688"/><text fill="#000000" font-family="sans-serif" font-size="12" lengthAdjust="spacing" textLength="158.9414" x="223.7734" y="159.1074">Nenhuma a&#231;&#227;o necess&#225;ria</text><polygon fill="#F1F1F1" points="202.8154,177.9375,214.8154,189.9375,202.8154,201.9375,190.8154,189.9375,202.8154,177.9375" style="stroke:#181818;stroke-width:0.5;"/><ellipse cx="202.8154" cy="232.9375" fill="none" rx="11" ry="11" style="stroke:#222222;stroke-width:1;"/><ellipse cx="202.8154" cy="232.9375" fill="#222222" rx="6" ry="6" style="stroke:#222222;stroke-width:1;"/><line style="stroke:#181818;stroke-width:1;" x1="202.8154" x2="202.8154" y1="30" y2="50"/><polygon fill="#181818" points="198.8154,40,202.8154,50,206.8154,40,202.8154,44" style="stroke:#181818;stroke-width:1;"/><line style="stroke:#181818;stroke-width:1;" x1="146.1467" x2="102.3867" y1="115.9688" y2="115.9688"/><line style="stroke:#181818;stroke-width:1;" x1="102.3867" x2="102.3867" y1="115.9688" y2="137.9688"/><polygon fill="#181818" points="98.3867,127.9688,102.3867,137.9688,106.3867,127.9688,102.3867,131.9688" style="stroke:#181818;stroke-width:1;"/><line style="stroke:#181818;stroke-width:1;" x1="259.4841" x2="303.2441" y1="115.9688" y2="115.9688"/><line style="stroke:#181818;stroke-width:1;" x1="303.2441" x2="303.2441" y1="115.9688" y2="137.9688"/><polygon fill="#181818" points="299.2441,127.9688,303.2441,137.9688,307.2441,127.9688,303.2441,131.9688" style="stroke:#181818;stroke-width:1;"/><line style="stroke:#181818;stroke-width:1;" x1="102.3867" x2="102.3867" y1="171.9375" y2="189.9375"/><line style="stroke:#181818;stroke-width:1;" x1="102.3867" x2="190.8154" y1="189.9375" y2="189.9375"/><polygon fill="#181818" points="180.8154,185.9375,190.8154,189.9375,180.8154,193.9375,184.8154,189.9375" style="stroke:#181818;stroke-width:1;"/><line style="stroke:#181818;stroke-width:1;" x1="303.2441" x2="303.2441" y1="171.9375" y2="189.9375"/><line style="stroke:#181818;stroke-width:1;" x1="303.2441" x2="214.8154" y1="189.9375" y2="189.9375"/><polygon fill="#181818" points="224.8154,185.9375,214.8154,189.9375,224.8154,193.9375,220.8154,189.9375" style="stroke:#181818;stroke-width:1;"/><line style="stroke:#181818;stroke-width:1;" x1="202.8154" x2="202.8154" y1="83.9688" y2="103.9688"/><polygon fill="#181818" points="198.8154,93.9688,202.8154,103.9688,206.8154,93.9688,202.8154,97.9688" style="stroke:#181818;stroke-width:1;"/><line style="stroke:#181818;stroke-width:1;" x1="202.8154" x2="202.8154" y1="201.9375" y2="221.9375"/><polygon fill="#181818" points="198.8154,211.9375,202.8154,221.9375,206.8154,211.9375,202.8154,215.9375" style="stroke:#181818;stroke-width:1;"/><!--SRC=[HSkn3OD038NXtbEuF5Q08ie0eOcKtW8JBDqTw6oQL0n2YYX51hbDc2H7cZIlUFf-DKe6KDyuoI0T9LGZMnJBa6z01dGNZaft3kYbfrE5Dd94TvLG0M9zFg0y_kLCYN1VjqFlwxC1zihesloUVa7BSLm28ULFkJ1onwhvbOGAZRqC06hJ_0K0]--></g></svg>