<svg xmlns="http://www.w3.org/2000/svg" xmlns:xlink="http://www.w3.org/1999/xlink" contentStyleType="text/css" data-diagram-type="ACTIVITY" height="298px" preserveAspectRatio="none" style="width:334px;height:298px;background:#FFFFFF;" version="1.1" viewBox="0 0 334 298" width="334px" zoomAndPan="magnify"><defs/><g><ellipse cx="167.4902" cy="20" fill="#222222" rx="10" ry="10" style="stroke:#222222;stroke-width:1;"/><rect fill="#F1F1F1" height="33.9688" rx="12.5" ry="12.5" style="stroke:#181818;stroke-width:0.5;" width="312.9805" x="11" y="50"/><text fill="#000000" font-family="sans-serif" font-size="12" lengthAdjust="spacing" textLength="292.9805" x="21" y="71.1387">Receber ID do produto e percentual de desconto</text><rect fill="#F1F1F1" height="33.9688" rx="12.5" ry="12.5" style="stroke:#181818;stroke-width:0.5;" width="245.9844" x="44.498" y="103.9688"/><text fill="#000000" font-family="sans-serif" font-size="12" lengthAdjust="spacing" textLength="225.9844" x="54.498" y="125.1074">Aplicar desconto ao pre&#231;o do produto</text><rect fill="#F1F1F1" height="33.9688" rx="12.5" ry="12.5" style="stroke:#181818;stroke-width:0.5;" width="216.6875" x="59.1465" y="157.9375"/><text fill="#000000" font-family="sans-serif" font-size="12" lengthAdjust="spacing" textLength="196.6875" x="69.1465" y="179.0762">Salvar novo pre&#231;o com desconto</text><rect fill="#F1F1F1" height="33.9688" rx="12.5" ry="12.5" style="stroke:#181818;stroke-width:0.5;" width="132.0898" x="101.4453" y="211.9063"/><text fill="#000000" font-family="sans-serif" font-size="12" lengthAdjust="spacing" textLength="112.0898" x="111.4453" y="233.0449">Exibir confirma&#231;&#227;o</text><ellipse cx="167.4902" cy="276.875" fill="none" rx="11" ry="11" style="stroke:#222222;stroke-width:1;"/><ellipse cx="167.4902" cy="276.875" fill="#222222" rx="6" ry="6" style="stroke:#222222;stroke-width:1;"/><line style="stroke:#181818;stroke-width:1;" x1="167.4902" x2="167.4902" y1="30" y2="50"/><polygon fill="#181818" points="163.4902,40,167.4902,50,171.4902,40,167.4902,44" style="stroke:#181818;stroke-width:1;"/><line style="stroke:#181818;stroke-width:1;" x1="167.4902" x2="167.4902" y1="83.9688" y2="103.9688"/><polygon fill="#181818" points="163.4902,93.9688,167.4902,103.9688,171.4902,93.9688,167.4902,97.9688" style="stroke:#181818;stroke-width:1;"/><line style="stroke:#181818;stroke-width:1;" x1="167.4902" x2="167.4902" y1="137.9375" y2="157.9375"/><polygon fill="#181818" points="163.4902,147.9375,167.4902,157.9375,171.4902,147.9375,167.4902,151.9375" style="stroke:#181818;stroke-width:1;"/><line style="stroke:#181818;stroke-width:1;" x1="167.4902" x2="167.4902" y1="191.9063" y2="211.9063"/><polygon fill="#181818" points="163.4902,201.9063,167.4902,211.9063,171.4902,201.9063,167.4902,205.9063" style="stroke:#181818;stroke-width:1;"/><line style="stroke:#181818;stroke-width:1;" x1="167.4902" x2="167.4902" y1="245.875" y2="265.875"/><polygon fill="#181818" points="163.4902,255.875,167.4902,265.875,171.4902,255.875,167.4902,259.875" style="stroke:#181818;stroke-width:1;"/><!--SRC=[JOon3SCm30HxJS4vd2f0NAHD9g0f6X0WYm956zd7XGVHOcOQmy1Nz_VV3DL263vCFB72-mLHeAh4rGGOAYjniHKpHFOqacBo2CEpvaIe5mBypxWVSZjmxujvSwt8TlKao_rf_AKfgTCo9rsm7trt79f9FG40]--></g></svg>