<svg xmlns="http://www.w3.org/2000/svg" xmlns:xlink="http://www.w3.org/1999/xlink" contentStyleType="text/css" data-diagram-type="ACTIVITY" height="372px" preserveAspectRatio="none" style="width:676px;height:372px;background:#FFFFFF;" version="1.1" viewBox="0 0 676 372" width="676px" zoomAndPan="magnify"><defs/><g><ellipse cx="405.3093" cy="20" fill="#222222" rx="10" ry="10" style="stroke:#222222;stroke-width:1;"/><rect fill="#F1F1F1" height="33.9688" rx="12.5" ry="12.5" style="stroke:#181818;stroke-width:0.5;" width="224.2578" x="293.1804" y="50"/><text fill="#000000" font-family="sans-serif" font-size="12" lengthAdjust="spacing" textLength="204.2578" x="303.1804" y="71.1387">Receber ID da solicita&#231;&#227;o e status</text><rect fill="#F1F1F1" height="33.9688" rx="12.5" ry="12.5" style="stroke:#181818;stroke-width:0.5;" width="221.3105" x="294.6541" y="103.9688"/><text fill="#000000" font-family="sans-serif" font-size="12" lengthAdjust="spacing" textLength="201.3105" x="304.6541" y="125.1074">Verificar exist&#234;ncia da solicita&#231;&#227;o</text><polygon fill="#F1F1F1" points="339.4973,157.9375,471.1213,157.9375,483.1213,169.9375,471.1213,181.9375,339.4973,181.9375,327.4973,169.9375,339.4973,157.9375" style="stroke:#181818;stroke-width:0.5;"/><text fill="#000000" font-family="sans-serif" font-size="11" lengthAdjust="spacing" textLength="131.624" x="339.4973" y="173.7456">Solicita&#231;&#227;o encontrada?</text><text fill="#000000" font-family="sans-serif" font-size="11" lengthAdjust="spacing" textLength="20.7539" x="306.7434" y="167.3433">Sim</text><text fill="#000000" font-family="sans-serif" font-size="11" lengthAdjust="spacing" textLength="21.6992" x="483.1213" y="167.3433">N&#227;o</text><polygon fill="#F1F1F1" points="171.3972,191.9375,290.3401,191.9375,302.3401,203.9375,290.3401,215.9375,171.3972,215.9375,159.3972,203.9375,171.3972,191.9375" style="stroke:#181818;stroke-width:0.5;"/><text fill="#000000" font-family="sans-serif" font-size="11" lengthAdjust="spacing" textLength="118.9429" x="171.3972" y="207.7456">Solicita&#231;&#227;a resolvida?</text><text fill="#000000" font-family="sans-serif" font-size="11" lengthAdjust="spacing" textLength="20.7539" x="138.6433" y="201.3433">Sim</text><text fill="#000000" font-family="sans-serif" font-size="11" lengthAdjust="spacing" textLength="21.6992" x="302.3401" y="201.3433">N&#227;o</text><rect fill="#F1F1F1" height="33.9688" rx="12.5" ry="12.5" style="stroke:#181818;stroke-width:0.5;" width="203.3398" x="11" y="225.9375"/><text fill="#000000" font-family="sans-serif" font-size="12" lengthAdjust="spacing" textLength="183.3398" x="21" y="247.0762">Atualizar status para resolvido</text><rect fill="#F1F1F1" height="33.9688" rx="12.5" ry="12.5" style="stroke:#181818;stroke-width:0.5;" width="229.4551" x="234.3398" y="225.9375"/><text fill="#000000" font-family="sans-serif" font-size="12" lengthAdjust="spacing" textLength="209.4551" x="244.3398" y="247.0762">Atualizar status para n&#227;o resolvido</text><polygon fill="#F1F1F1" points="230.8687,265.9063,242.8687,277.9063,230.8687,289.9063,218.8687,277.9063,230.8687,265.9063" style="stroke:#181818;stroke-width:0.5;"/><rect fill="#F1F1F1" height="33.9688" rx="12.5" ry="12.5" style="stroke:#181818;stroke-width:0.5;" width="171.9102" x="493.7949" y="191.9375"/><text fill="#000000" font-family="sans-serif" font-size="12" lengthAdjust="spacing" textLength="151.9102" x="503.7949" y="213.0762">Exibir mensagem de erro</text><polygon fill="#F1F1F1" points="405.3093,295.9063,417.3093,307.9063,405.3093,319.9063,393.3093,307.9063,405.3093,295.9063" style="stroke:#181818;stroke-width:0.5;"/><ellipse cx="405.3093" cy="350.9063" fill="none" rx="11" ry="11" style="stroke:#222222;stroke-width:1;"/><ellipse cx="405.3093" cy="350.9063" fill="#222222" rx="6" ry="6" style="stroke:#222222;stroke-width:1;"/><line style="stroke:#181818;stroke-width:1;" x1="405.3093" x2="405.3093" y1="30" y2="50"/><polygon fill="#181818" points="401.3093,40,405.3093,50,409.3093,40,405.3093,44" style="stroke:#181818;stroke-width:1;"/><line style="stroke:#181818;stroke-width:1;" x1="405.3093" x2="405.3093" y1="83.9688" y2="103.9688"/><polygon fill="#181818" points="401.3093,93.9688,405.3093,103.9688,409.3093,93.9688,405.3093,97.9688" style="stroke:#181818;stroke-width:1;"/><line style="stroke:#181818;stroke-width:1;" x1="159.3972" x2="112.6699" y1="203.9375" y2="203.9375"/><line style="stroke:#181818;stroke-width:1;" x1="112.6699" x2="112.6699" y1="203.9375" y2="225.9375"/><polygon fill="#181818" points="108.6699,215.9375,112.6699,225.9375,116.6699,215.9375,112.6699,219.9375" style="stroke:#181818;stroke-width:1;"/><line style="stroke:#181818;stroke-width:1;" x1="302.3401" x2="349.0674" y1="203.9375" y2="203.9375"/><line style="stroke:#181818;stroke-width:1;" x1="349.0674" x2="349.0674" y1="203.9375" y2="225.9375"/><polygon fill="#181818" points="345.0674,215.9375,349.0674,225.9375,353.0674,215.9375,349.0674,219.9375" style="stroke:#181818;stroke-width:1;"/><line style="stroke:#181818;stroke-width:1;" x1="112.6699" x2="112.6699" y1="259.9063" y2="277.9063"/><line style="stroke:#181818;stroke-width:1;" x1="112.6699" x2="218.8687" y1="277.9063" y2="277.9063"/><polygon fill="#181818" points="208.8687,273.9063,218.8687,277.9063,208.8687,281.9063,212.8687,277.9063" style="stroke:#181818;stroke-width:1;"/><line style="stroke:#181818;stroke-width:1;" x1="349.0674" x2="349.0674" y1="259.9063" y2="277.9063"/><line style="stroke:#181818;stroke-width:1;" x1="349.0674" x2="242.8687" y1="277.9063" y2="277.9063"/><polygon fill="#181818" points="252.8687,273.9063,242.8687,277.9063,252.8687,281.9063,248.8687,277.9063" style="stroke:#181818;stroke-width:1;"/><line style="stroke:#181818;stroke-width:1;" x1="327.4973" x2="230.8687" y1="169.9375" y2="169.9375"/><line style="stroke:#181818;stroke-width:1;" x1="230.8687" x2="230.8687" y1="169.9375" y2="191.9375"/><polygon fill="#181818" points="226.8687,181.9375,230.8687,191.9375,234.8687,181.9375,230.8687,185.9375" style="stroke:#181818;stroke-width:1;"/><line style="stroke:#181818;stroke-width:1;" x1="483.1213" x2="579.75" y1="169.9375" y2="169.9375"/><line style="stroke:#181818;stroke-width:1;" x1="579.75" x2="579.75" y1="169.9375" y2="191.9375"/><polygon fill="#181818" points="575.75,181.9375,579.75,191.9375,583.75,181.9375,579.75,185.9375" style="stroke:#181818;stroke-width:1;"/><line style="stroke:#181818;stroke-width:1;" x1="230.8687" x2="230.8687" y1="289.9063" y2="307.9063"/><line style="stroke:#181818;stroke-width:1;" x1="230.8687" x2="393.3093" y1="307.9063" y2="307.9063"/><polygon fill="#181818" points="383.3093,303.9063,393.3093,307.9063,383.3093,311.9063,387.3093,307.9063" style="stroke:#181818;stroke-width:1;"/><line style="stroke:#181818;stroke-width:1;" x1="579.75" x2="579.75" y1="225.9063" y2="307.9063"/><line style="stroke:#181818;stroke-width:1;" x1="579.75" x2="417.3093" y1="307.9063" y2="307.9063"/><polygon fill="#181818" points="427.3093,303.9063,417.3093,307.9063,427.3093,311.9063,423.3093,307.9063" style="stroke:#181818;stroke-width:1;"/><line style="stroke:#181818;stroke-width:1;" x1="405.3093" x2="405.3093" y1="137.9375" y2="157.9375"/><polygon fill="#181818" points="401.3093,147.9375,405.3093,157.9375,409.3093,147.9375,405.3093,151.9375" style="stroke:#181818;stroke-width:1;"/><line style="stroke:#181818;stroke-width:1;" x1="405.3093" x2="405.3093" y1="319.9063" y2="339.9063"/><polygon fill="#181818" points="401.3093,329.9063,405.3093,339.9063,409.3093,329.9063,405.3093,333.9063" style="stroke:#181818;stroke-width:1;"/><!--SRC=[XOun2i9044NxFSMKvWf98O8MDXOAzfFTYGuaks5s8i7hM0XU8nTpGmf959pwlJylAeeQan_9Kaa2-oquX1XgjgmuF8T708Aeg5qiJ7ucuOej2b3FKOUNjunVHc6uWjLfFk9jy2heS9s1NiadW9lCGBebZI2K1c_y2nultsY7DTzJnvG6BSh7IW4ZHNKaM1tIzx-c7nENkdTScVb8lkkvP866VCGBDU08I2GP4ssYXlOD]--></g></svg>