<svg xmlns="http://www.w3.org/2000/svg" xmlns:xlink="http://www.w3.org/1999/xlink" contentStyleType="text/css" data-diagram-type="ACTIVITY" height="483px" preserveAspectRatio="none" style="width:709px;height:483px;background:#FFFFFF;" version="1.1" viewBox="0 0 709 483" width="709px" zoomAndPan="magnify"><defs/><g><rect fill="#F1F1F1" height="33.9688" rx="12.5" ry="12.5" style="stroke:#181818;stroke-width:0.5;" width="318.4355" x="185.4268" y="11"/><text fill="#000000" font-family="sans-serif" font-size="12" lengthAdjust="spacing" textLength="298.4355" x="195.4268" y="32.1387">Participante acessa a barra de busca de produtos</text><rect fill="#F1F1F1" height="33.9688" rx="12.5" ry="12.5" style="stroke:#181818;stroke-width:0.5;" width="316.4668" x="186.4111" y="64.9688"/><text fill="#000000" font-family="sans-serif" font-size="12" lengthAdjust="spacing" textLength="296.4668" x="196.4111" y="86.1074">Participante seleciona a op&#231;&#227;o de filtrar produtos</text><rect fill="#F1F1F1" height="33.9688" rx="12.5" ry="12.5" style="stroke:#181818;stroke-width:0.5;" width="499.5137" x="94.8877" y="118.9375"/><text fill="#000000" font-family="sans-serif" font-size="12" lengthAdjust="spacing" textLength="479.5137" x="104.8877" y="140.0762">Sistema exibe campo de pesquisa e op&#231;&#245;es de filtro (Nome, Segmento e Pre&#231;o)</text><rect fill="#555555" height="6" rx="2.5" ry="2.5" style="stroke:#555555;stroke-width:1;" width="509.5547" x="89.8672" y="172.9063"/><rect fill="#F1F1F1" height="33.9688" rx="12.5" ry="12.5" style="stroke:#181818;stroke-width:0.5;" width="248.7734" x="103.8672" y="198.9063"/><text fill="#000000" font-family="sans-serif" font-size="12" lengthAdjust="spacing" textLength="228.7734" x="113.8672" y="220.0449">Participante insere termo de pesquisa</text><rect fill="#F1F1F1" height="33.9688" rx="12.5" ry="12.5" style="stroke:#181818;stroke-width:0.5;" width="204.7813" x="380.6406" y="198.9063"/><text fill="#000000" font-family="sans-serif" font-size="12" lengthAdjust="spacing" textLength="184.7813" x="390.6406" y="220.0449">Participante pesquisa por filtro</text><rect fill="#555555" height="6" rx="2.5" ry="2.5" style="stroke:#555555;stroke-width:1;" width="509.5547" x="89.8672" y="252.875"/><polygon fill="#F1F1F1" points="219.5168,278.875,469.7722,278.875,481.7722,290.875,469.7722,302.875,219.5168,302.875,207.5168,290.875,219.5168,278.875" style="stroke:#181818;stroke-width:0.5;"/><text fill="#000000" font-family="sans-serif" font-size="11" lengthAdjust="spacing" textLength="250.2554" x="219.5168" y="294.6831">Existem produtos que atendem aos crit&#233;rios?</text><text fill="#000000" font-family="sans-serif" font-size="11" lengthAdjust="spacing" textLength="20.7539" x="186.7629" y="288.2808">Sim</text><text fill="#000000" font-family="sans-serif" font-size="11" lengthAdjust="spacing" textLength="21.6992" x="481.7722" y="288.2808">N&#227;o</text><rect fill="#F1F1F1" height="33.9688" rx="12.5" ry="12.5" style="stroke:#181818;stroke-width:0.5;" width="280.7891" x="27.4531" y="312.875"/><text fill="#000000" font-family="sans-serif" font-size="12" lengthAdjust="spacing" textLength="260.7891" x="37.4531" y="334.0137">Sistema exibe lista de produtos dispon&#237;veis</text><rect fill="#F1F1F1" height="33.9688" rx="12.5" ry="12.5" style="stroke:#181818;stroke-width:0.5;" width="313.6953" x="11" y="366.8438"/><text fill="#000000" font-family="sans-serif" font-size="12" lengthAdjust="spacing" textLength="293.6953" x="21" y="387.9824">Participante visualiza os detalhes de um produto</text><rect fill="#F1F1F1" height="33.9688" rx="12.5" ry="12.5" style="stroke:#181818;stroke-width:0.5;" width="353.4922" x="344.6953" y="312.875"/><text fill="#000000" font-family="sans-serif" font-size="12" lengthAdjust="spacing" textLength="333.4922" x="354.6953" y="334.0137">Sistema exibe MSG17 ("Nenhum produto encontrado.")</text><polygon fill="#F1F1F1" points="344.6445,406.8125,356.6445,418.8125,344.6445,430.8125,332.6445,418.8125,344.6445,406.8125" style="stroke:#181818;stroke-width:0.5;"/><ellipse cx="344.6445" cy="461.8125" fill="none" rx="11" ry="11" style="stroke:#222222;stroke-width:1;"/><ellipse cx="344.6445" cy="461.8125" fill="#222222" rx="6" ry="6" style="stroke:#222222;stroke-width:1;"/><line style="stroke:#181818;stroke-width:1;" x1="344.6445" x2="344.6445" y1="44.9688" y2="64.9688"/><polygon fill="#181818" points="340.6445,54.9688,344.6445,64.9688,348.6445,54.9688,344.6445,58.9688" style="stroke:#181818;stroke-width:1;"/><line style="stroke:#181818;stroke-width:1;" x1="344.6445" x2="344.6445" y1="98.9375" y2="118.9375"/><polygon fill="#181818" points="340.6445,108.9375,344.6445,118.9375,348.6445,108.9375,344.6445,112.9375" style="stroke:#181818;stroke-width:1;"/><line style="stroke:#181818;stroke-width:1;" x1="228.2539" x2="228.2539" y1="178.9063" y2="198.9063"/><polygon fill="#181818" points="224.2539,188.9063,228.2539,198.9063,232.2539,188.9063,228.2539,192.9063" style="stroke:#181818;stroke-width:1;"/><line style="stroke:#181818;stroke-width:1;" x1="483.0313" x2="483.0313" y1="178.9063" y2="198.9063"/><polygon fill="#181818" points="479.0313,188.9063,483.0313,198.9063,487.0313,188.9063,483.0313,192.9063" style="stroke:#181818;stroke-width:1;"/><line style="stroke:#181818;stroke-width:1;" x1="228.2539" x2="228.2539" y1="232.875" y2="252.875"/><polygon fill="#181818" points="224.2539,242.875,228.2539,252.875,232.2539,242.875,228.2539,246.875" style="stroke:#181818;stroke-width:1;"/><line style="stroke:#181818;stroke-width:1;" x1="483.0313" x2="483.0313" y1="232.875" y2="252.875"/><polygon fill="#181818" points="479.0313,242.875,483.0313,252.875,487.0313,242.875,483.0313,246.875" style="stroke:#181818;stroke-width:1;"/><line style="stroke:#181818;stroke-width:1;" x1="344.6445" x2="344.6445" y1="152.9063" y2="172.9063"/><polygon fill="#181818" points="340.6445,162.9063,344.6445,172.9063,348.6445,162.9063,344.6445,166.9063" style="stroke:#181818;stroke-width:1;"/><line style="stroke:#181818;stroke-width:1;" x1="167.8477" x2="167.8477" y1="346.8438" y2="366.8438"/><polygon fill="#181818" points="163.8477,356.8438,167.8477,366.8438,171.8477,356.8438,167.8477,360.8438" style="stroke:#181818;stroke-width:1;"/><line style="stroke:#181818;stroke-width:1;" x1="207.5168" x2="167.8477" y1="290.875" y2="290.875"/><line style="stroke:#181818;stroke-width:1;" x1="167.8477" x2="167.8477" y1="290.875" y2="312.875"/><polygon fill="#181818" points="163.8477,302.875,167.8477,312.875,171.8477,302.875,167.8477,306.875" style="stroke:#181818;stroke-width:1;"/><line style="stroke:#181818;stroke-width:1;" x1="481.7722" x2="521.4414" y1="290.875" y2="290.875"/><line style="stroke:#181818;stroke-width:1;" x1="521.4414" x2="521.4414" y1="290.875" y2="312.875"/><polygon fill="#181818" points="517.4414,302.875,521.4414,312.875,525.4414,302.875,521.4414,306.875" style="stroke:#181818;stroke-width:1;"/><line style="stroke:#181818;stroke-width:1;" x1="167.8477" x2="167.8477" y1="400.8125" y2="418.8125"/><line style="stroke:#181818;stroke-width:1;" x1="167.8477" x2="332.6445" y1="418.8125" y2="418.8125"/><polygon fill="#181818" points="322.6445,414.8125,332.6445,418.8125,322.6445,422.8125,326.6445,418.8125" style="stroke:#181818;stroke-width:1;"/><line style="stroke:#181818;stroke-width:1;" x1="521.4414" x2="521.4414" y1="346.8438" y2="418.8125"/><line style="stroke:#181818;stroke-width:1;" x1="521.4414" x2="356.6445" y1="418.8125" y2="418.8125"/><polygon fill="#181818" points="366.6445,414.8125,356.6445,418.8125,366.6445,422.8125,362.6445,418.8125" style="stroke:#181818;stroke-width:1;"/><line style="stroke:#181818;stroke-width:1;" x1="344.6445" x2="344.6445" y1="258.875" y2="278.875"/><polygon fill="#181818" points="340.6445,268.875,344.6445,278.875,348.6445,268.875,344.6445,272.875" style="stroke:#181818;stroke-width:1;"/><line style="stroke:#181818;stroke-width:1;" x1="344.6445" x2="344.6445" y1="430.8125" y2="450.8125"/><polygon fill="#181818" points="340.6445,440.8125,344.6445,450.8125,348.6445,440.8125,344.6445,444.8125" style="stroke:#181818;stroke-width:1;"/><!--SRC=[RL4xQiD04ErrYi6L127WAc0NgKAg68DEC5wDx27IpdfdPKokayAaI9aJw68PIq69YBVQNTwRzvdL5cDYnm5z8a17gWW8EumHeIBOTUg6IuXITKbqdQrc5AM678k_iYJqb_vThl2QcnGn_gMLh8bQ13hpZi1X6mPa83rsRAeqyhz8fm42-KPQkeEIzYtv90RQHkelKgopMk9h1dRcXjWhHO94iPtD7mc0UsH_WpRP219_nDSP-Ge66QuXVpeF0QP8SEoiiMGO-qHxkyYf_uWi-bX0Ef27lEIs6CNcwHjxpMg5YZM8xpzFn5RMVtydrWuRVhEMh_qaR0vZKTtaoFmsIbQPxU2cwalvl7o0VB4XV_Yb0NadthPLoVsY649pdMcIy0q0]--></g></svg>