<svg xmlns="http://www.w3.org/2000/svg" xmlns:xlink="http://www.w3.org/1999/xlink" contentStyleType="text/css" data-diagram-type="ACTIVITY" height="308px" preserveAspectRatio="none" style="width:337px;height:308px;background:#FFFFFF;" version="1.1" viewBox="0 0 337 308" width="337px" zoomAndPan="magnify"><defs/><g><ellipse cx="156.8311" cy="20" fill="#222222" rx="10" ry="10" style="stroke:#222222;stroke-width:1;"/><rect fill="#F1F1F1" height="33.9688" rx="12.5" ry="12.5" style="stroke:#181818;stroke-width:0.5;" width="141.8398" x="85.9111" y="50"/><text fill="#000000" font-family="sans-serif" font-size="12" lengthAdjust="spacing" textLength="121.8398" x="95.9111" y="71.1387">Receber credenciais</text><rect fill="#F1F1F1" height="33.9688" rx="12.5" ry="12.5" style="stroke:#181818;stroke-width:0.5;" width="208.9648" x="52.3486" y="103.9688"/><text fill="#000000" font-family="sans-serif" font-size="12" lengthAdjust="spacing" textLength="188.9648" x="62.3486" y="125.1074">Verificar credenciais fornecidas</text><polygon fill="#F1F1F1" points="100.593,157.9375,213.0691,157.9375,225.0691,169.9375,213.0691,181.9375,100.593,181.9375,88.593,169.9375,100.593,157.9375" style="stroke:#181818;stroke-width:0.5;"/><text fill="#000000" font-family="sans-serif" font-size="11" lengthAdjust="spacing" textLength="112.4761" x="100.593" y="173.7456">Credenciais v&#225;lidas?</text><text fill="#000000" font-family="sans-serif" font-size="11" lengthAdjust="spacing" textLength="20.7539" x="67.8391" y="167.3433">Sim</text><text fill="#000000" font-family="sans-serif" font-size="11" lengthAdjust="spacing" textLength="21.6992" x="225.0691" y="167.3433">N&#227;o</text><rect fill="#F1F1F1" height="33.9688" rx="12.5" ry="12.5" style="stroke:#181818;stroke-width:0.5;" width="123.8047" x="11" y="191.9375"/><text fill="#000000" font-family="sans-serif" font-size="12" lengthAdjust="spacing" textLength="103.8047" x="21" y="213.0762">Acesso permitido</text><rect fill="#F1F1F1" height="33.9688" rx="12.5" ry="12.5" style="stroke:#181818;stroke-width:0.5;" width="171.9102" x="154.8047" y="191.9375"/><text fill="#000000" font-family="sans-serif" font-size="12" lengthAdjust="spacing" textLength="151.9102" x="164.8047" y="213.0762">Exibir mensagem de erro</text><polygon fill="#F1F1F1" points="156.8311,231.9063,168.8311,243.9063,156.8311,255.9063,144.8311,243.9063,156.8311,231.9063" style="stroke:#181818;stroke-width:0.5;"/><ellipse cx="156.8311" cy="286.9063" fill="none" rx="11" ry="11" style="stroke:#222222;stroke-width:1;"/><ellipse cx="156.8311" cy="286.9063" fill="#222222" rx="6" ry="6" style="stroke:#222222;stroke-width:1;"/><line style="stroke:#181818;stroke-width:1;" x1="156.8311" x2="156.8311" y1="30" y2="50"/><polygon fill="#181818" points="152.8311,40,156.8311,50,160.8311,40,156.8311,44" style="stroke:#181818;stroke-width:1;"/><line style="stroke:#181818;stroke-width:1;" x1="156.8311" x2="156.8311" y1="83.9688" y2="103.9688"/><polygon fill="#181818" points="152.8311,93.9688,156.8311,103.9688,160.8311,93.9688,156.8311,97.9688" style="stroke:#181818;stroke-width:1;"/><line style="stroke:#181818;stroke-width:1;" x1="88.593" x2="72.9023" y1="169.9375" y2="169.9375"/><line style="stroke:#181818;stroke-width:1;" x1="72.9023" x2="72.9023" y1="169.9375" y2="191.9375"/><polygon fill="#181818" points="68.9023,181.9375,72.9023,191.9375,76.9023,181.9375,72.9023,185.9375" style="stroke:#181818;stroke-width:1;"/><line style="stroke:#181818;stroke-width:1;" x1="225.0691" x2="240.7598" y1="169.9375" y2="169.9375"/><line style="stroke:#181818;stroke-width:1;" x1="240.7598" x2="240.7598" y1="169.9375" y2="191.9375"/><polygon fill="#181818" points="236.7598,181.9375,240.7598,191.9375,244.7598,181.9375,240.7598,185.9375" style="stroke:#181818;stroke-width:1;"/><line style="stroke:#181818;stroke-width:1;" x1="72.9023" x2="72.9023" y1="225.9063" y2="243.9063"/><line style="stroke:#181818;stroke-width:1;" x1="72.9023" x2="144.8311" y1="243.9063" y2="243.9063"/><polygon fill="#181818" points="134.8311,239.9063,144.8311,243.9063,134.8311,247.9063,138.8311,243.9063" style="stroke:#181818;stroke-width:1;"/><line style="stroke:#181818;stroke-width:1;" x1="240.7598" x2="240.7598" y1="225.9063" y2="243.9063"/><line style="stroke:#181818;stroke-width:1;" x1="240.7598" x2="168.8311" y1="243.9063" y2="243.9063"/><polygon fill="#181818" points="178.8311,239.9063,168.8311,243.9063,178.8311,247.9063,174.8311,243.9063" style="stroke:#181818;stroke-width:1;"/><line style="stroke:#181818;stroke-width:1;" x1="156.8311" x2="156.8311" y1="137.9375" y2="157.9375"/><polygon fill="#181818" points="152.8311,147.9375,156.8311,157.9375,160.8311,147.9375,156.8311,151.9375" style="stroke:#181818;stroke-width:1;"/><line style="stroke:#181818;stroke-width:1;" x1="156.8311" x2="156.8311" y1="255.9063" y2="275.9063"/><polygon fill="#181818" points="152.8311,265.9063,156.8311,275.9063,160.8311,265.9063,156.8311,269.9063" style="stroke:#181818;stroke-width:1;"/><!--SRC=[LSen3i8m34RXtQVms5uX7H12h0mWiQV97x3K99KTLLm7SPHU3Ce4wtkVDQ-Do9qHC48vA29A42ysaBj29KdmVvrJrO8WqN-89EuEFszPdzDsTZstEmft5yazCRjzW5db6PgbIQm3OJ9mTrfVzGkE3nb5EQEOlo5p14DrSoLA8cjrVWC0]--></g></svg>