<svg xmlns="http://www.w3.org/2000/svg" xmlns:xlink="http://www.w3.org/1999/xlink" contentStyleType="text/css" data-diagram-type="ACTIVITY" height="588px" preserveAspectRatio="none" style="width:598px;height:588px;background:#FFFFFF;" version="1.1" viewBox="0 0 598 588" width="598px" zoomAndPan="magnify"><defs/><g><ellipse cx="351.2712" cy="20" fill="#222222" rx="10" ry="10" style="stroke:#222222;stroke-width:1;"/><rect fill="#F1F1F1" height="33.9688" rx="12.5" ry="12.5" style="stroke:#181818;stroke-width:0.5;" width="177.8867" x="262.3279" y="50"/><text fill="#000000" font-family="sans-serif" font-size="12" lengthAdjust="spacing" textLength="157.8867" x="272.3279" y="71.1387">Receber e-mail do usu&#225;rio</text><rect fill="#F1F1F1" height="33.9688" rx="12.5" ry="12.5" style="stroke:#181818;stroke-width:0.5;" width="240.5938" x="230.9744" y="103.9688"/><text fill="#000000" font-family="sans-serif" font-size="12" lengthAdjust="spacing" textLength="220.5938" x="240.9744" y="125.1074">Verificar se o e-mail est&#225; cadastrado</text><polygon fill="#F1F1F1" points="298.5942,157.9375,403.9482,157.9375,415.9482,169.9375,403.9482,181.9375,298.5942,181.9375,286.5942,169.9375,298.5942,157.9375" style="stroke:#181818;stroke-width:0.5;"/><text fill="#000000" font-family="sans-serif" font-size="11" lengthAdjust="spacing" textLength="105.354" x="298.5942" y="173.7456">E-mail cadastrado?</text><text fill="#000000" font-family="sans-serif" font-size="11" lengthAdjust="spacing" textLength="20.7539" x="265.8403" y="167.3433">Sim</text><text fill="#000000" font-family="sans-serif" font-size="11" lengthAdjust="spacing" textLength="21.6992" x="415.9482" y="167.3433">N&#227;o</text><rect fill="#F1F1F1" height="33.9688" rx="12.5" ry="12.5" style="stroke:#181818;stroke-width:0.5;" width="234.1602" x="83.9116" y="191.9375"/><text fill="#000000" font-family="sans-serif" font-size="12" lengthAdjust="spacing" textLength="214.1602" x="93.9116" y="213.0762">Gerar e enviar token de redefini&#231;&#227;o</text><rect fill="#F1F1F1" height="33.9688" rx="12.5" ry="12.5" style="stroke:#181818;stroke-width:0.5;" width="191.8613" x="105.061" y="245.9063"/><text fill="#000000" font-family="sans-serif" font-size="12" lengthAdjust="spacing" textLength="171.8613" x="115.061" y="267.0449">Receber nova senha e token</text><rect fill="#F1F1F1" height="33.9688" rx="12.5" ry="12.5" style="stroke:#181818;stroke-width:0.5;" width="99.9336" x="151.0249" y="299.875"/><text fill="#000000" font-family="sans-serif" font-size="12" lengthAdjust="spacing" textLength="79.9336" x="161.0249" y="321.0137">Validar token</text><polygon fill="#F1F1F1" points="163.0073,353.8438,238.9761,353.8438,250.9761,365.8438,238.9761,377.8438,163.0073,377.8438,151.0073,365.8438,163.0073,353.8438" style="stroke:#181818;stroke-width:0.5;"/><text fill="#000000" font-family="sans-serif" font-size="11" lengthAdjust="spacing" textLength="75.9688" x="163.0073" y="369.6519">Token v&#225;lido?</text><text fill="#000000" font-family="sans-serif" font-size="11" lengthAdjust="spacing" textLength="20.7539" x="130.2534" y="363.2495">Sim</text><text fill="#000000" font-family="sans-serif" font-size="11" lengthAdjust="spacing" textLength="21.6992" x="250.9761" y="363.2495">N&#227;o</text><rect fill="#F1F1F1" height="33.9688" rx="12.5" ry="12.5" style="stroke:#181818;stroke-width:0.5;" width="182.6855" x="11" y="387.8438"/><text fill="#000000" font-family="sans-serif" font-size="12" lengthAdjust="spacing" textLength="162.6855" x="21" y="408.9824">Atualizar senha no sistema</text><rect fill="#F1F1F1" height="33.9688" rx="12.5" ry="12.5" style="stroke:#181818;stroke-width:0.5;" width="132.0898" x="36.2979" y="441.8125"/><text fill="#000000" font-family="sans-serif" font-size="12" lengthAdjust="spacing" textLength="112.0898" x="46.2979" y="462.9512">Exibir confirma&#231;&#227;o</text><rect fill="#F1F1F1" height="33.9688" rx="12.5" ry="12.5" style="stroke:#181818;stroke-width:0.5;" width="171.9102" x="213.6855" y="387.8438"/><text fill="#000000" font-family="sans-serif" font-size="12" lengthAdjust="spacing" textLength="151.9102" x="223.6855" y="408.9824">Exibir mensagem de erro</text><polygon fill="#F1F1F1" points="200.9917,481.7813,212.9917,493.7813,200.9917,505.7813,188.9917,493.7813,200.9917,481.7813" style="stroke:#181818;stroke-width:0.5;"/><rect fill="#F1F1F1" height="33.9688" rx="12.5" ry="12.5" style="stroke:#181818;stroke-width:0.5;" width="171.9102" x="415.5957" y="191.9375"/><text fill="#000000" font-family="sans-serif" font-size="12" lengthAdjust="spacing" textLength="151.9102" x="425.5957" y="213.0762">Exibir mensagem de erro</text><polygon fill="#F1F1F1" points="351.2712,511.7813,363.2712,523.7813,351.2712,535.7813,339.2712,523.7813,351.2712,511.7813" style="stroke:#181818;stroke-width:0.5;"/><ellipse cx="351.2712" cy="566.7813" fill="none" rx="11" ry="11" style="stroke:#222222;stroke-width:1;"/><ellipse cx="351.2712" cy="566.7813" fill="#222222" rx="6" ry="6" style="stroke:#222222;stroke-width:1;"/><line style="stroke:#181818;stroke-width:1;" x1="351.2712" x2="351.2712" y1="30" y2="50"/><polygon fill="#181818" points="347.2712,40,351.2712,50,355.2712,40,351.2712,44" style="stroke:#181818;stroke-width:1;"/><line style="stroke:#181818;stroke-width:1;" x1="351.2712" x2="351.2712" y1="83.9688" y2="103.9688"/><polygon fill="#181818" points="347.2712,93.9688,351.2712,103.9688,355.2712,93.9688,351.2712,97.9688" style="stroke:#181818;stroke-width:1;"/><line style="stroke:#181818;stroke-width:1;" x1="200.9917" x2="200.9917" y1="225.9063" y2="245.9063"/><polygon fill="#181818" points="196.9917,235.9063,200.9917,245.9063,204.9917,235.9063,200.9917,239.9063" style="stroke:#181818;stroke-width:1;"/><line style="stroke:#181818;stroke-width:1;" x1="200.9917" x2="200.9917" y1="279.875" y2="299.875"/><polygon fill="#181818" points="196.9917,289.875,200.9917,299.875,204.9917,289.875,200.9917,293.875" style="stroke:#181818;stroke-width:1;"/><line style="stroke:#181818;stroke-width:1;" x1="102.3428" x2="102.3428" y1="421.8125" y2="441.8125"/><polygon fill="#181818" points="98.3428,431.8125,102.3428,441.8125,106.3428,431.8125,102.3428,435.8125" style="stroke:#181818;stroke-width:1;"/><line style="stroke:#181818;stroke-width:1;" x1="151.0073" x2="102.3428" y1="365.8438" y2="365.8438"/><line style="stroke:#181818;stroke-width:1;" x1="102.3428" x2="102.3428" y1="365.8438" y2="387.8438"/><polygon fill="#181818" points="98.3428,377.8438,102.3428,387.8438,106.3428,377.8438,102.3428,381.8438" style="stroke:#181818;stroke-width:1;"/><line style="stroke:#181818;stroke-width:1;" x1="250.9761" x2="299.6406" y1="365.8438" y2="365.8438"/><line style="stroke:#181818;stroke-width:1;" x1="299.6406" x2="299.6406" y1="365.8438" y2="387.8438"/><polygon fill="#181818" points="295.6406,377.8438,299.6406,387.8438,303.6406,377.8438,299.6406,381.8438" style="stroke:#181818;stroke-width:1;"/><line style="stroke:#181818;stroke-width:1;" x1="102.3428" x2="102.3428" y1="475.7813" y2="493.7813"/><line style="stroke:#181818;stroke-width:1;" x1="102.3428" x2="188.9917" y1="493.7813" y2="493.7813"/><polygon fill="#181818" points="178.9917,489.7813,188.9917,493.7813,178.9917,497.7813,182.9917,493.7813" style="stroke:#181818;stroke-width:1;"/><line style="stroke:#181818;stroke-width:1;" x1="299.6406" x2="299.6406" y1="421.8125" y2="493.7813"/><line style="stroke:#181818;stroke-width:1;" x1="299.6406" x2="212.9917" y1="493.7813" y2="493.7813"/><polygon fill="#181818" points="222.9917,489.7813,212.9917,493.7813,222.9917,497.7813,218.9917,493.7813" style="stroke:#181818;stroke-width:1;"/><line style="stroke:#181818;stroke-width:1;" x1="200.9917" x2="200.9917" y1="333.8438" y2="353.8438"/><polygon fill="#181818" points="196.9917,343.8438,200.9917,353.8438,204.9917,343.8438,200.9917,347.8438" style="stroke:#181818;stroke-width:1;"/><line style="stroke:#181818;stroke-width:1;" x1="286.5942" x2="200.9917" y1="169.9375" y2="169.9375"/><line style="stroke:#181818;stroke-width:1;" x1="200.9917" x2="200.9917" y1="169.9375" y2="191.9375"/><polygon fill="#181818" points="196.9917,181.9375,200.9917,191.9375,204.9917,181.9375,200.9917,185.9375" style="stroke:#181818;stroke-width:1;"/><line style="stroke:#181818;stroke-width:1;" x1="415.9482" x2="501.5508" y1="169.9375" y2="169.9375"/><line style="stroke:#181818;stroke-width:1;" x1="501.5508" x2="501.5508" y1="169.9375" y2="191.9375"/><polygon fill="#181818" points="497.5508,181.9375,501.5508,191.9375,505.5508,181.9375,501.5508,185.9375" style="stroke:#181818;stroke-width:1;"/><line style="stroke:#181818;stroke-width:1;" x1="200.9917" x2="200.9917" y1="505.7813" y2="523.7813"/><line style="stroke:#181818;stroke-width:1;" x1="200.9917" x2="339.2712" y1="523.7813" y2="523.7813"/><polygon fill="#181818" points="329.2712,519.7813,339.2712,523.7813,329.2712,527.7813,333.2712,523.7813" style="stroke:#181818;stroke-width:1;"/><line style="stroke:#181818;stroke-width:1;" x1="501.5508" x2="501.5508" y1="225.9063" y2="523.7813"/><line style="stroke:#181818;stroke-width:1;" x1="501.5508" x2="363.2712" y1="523.7813" y2="523.7813"/><polygon fill="#181818" points="373.2712,519.7813,363.2712,523.7813,373.2712,527.7813,369.2712,523.7813" style="stroke:#181818;stroke-width:1;"/><line style="stroke:#181818;stroke-width:1;" x1="351.2712" x2="351.2712" y1="137.9375" y2="157.9375"/><polygon fill="#181818" points="347.2712,147.9375,351.2712,157.9375,355.2712,147.9375,351.2712,151.9375" style="stroke:#181818;stroke-width:1;"/><line style="stroke:#181818;stroke-width:1;" x1="351.2712" x2="351.2712" y1="535.7813" y2="555.7813"/><polygon fill="#181818" points="347.2712,545.7813,351.2712,555.7813,355.2712,545.7813,351.2712,549.7813" style="stroke:#181818;stroke-width:1;"/><!--SRC=[TOz1JiGm34NtEOMNxO8BT1Q8nOWT2q2pzpGEOz4ao4uhn6qg5Xma5yDjLT08iKlyt__Vre9IdEiUgQSp2T1DH1x0PnXrhBDmFhZkHCA1UnHGWhmpfANEqAD7BOBUG0xG73VnTtpRGhbGWkQ9O-i0kdiIIoAWDB4zIdurrHC8UGgSk7xLJmipSbygvGcjEbtGR2k_oYSSsEy9osJfVrxZfZgRzgVRJ7TbDDl7UiiIc38eQw68XmqullEP1VgS0al4dsreiEER1_krLs2afFX2SJc1H3OsUGxksl4_xpRSQSbltm00]--></g></svg>