<svg xmlns="http://www.w3.org/2000/svg" xmlns:xlink="http://www.w3.org/1999/xlink" contentStyleType="text/css" data-diagram-type="ACTIVITY" height="254px" preserveAspectRatio="none" style="width:459px;height:254px;background:#FFFFFF;" version="1.1" viewBox="0 0 459 254" width="459px" zoomAndPan="magnify"><defs/><g><ellipse cx="212.8452" cy="20" fill="#222222" rx="10" ry="10" style="stroke:#222222;stroke-width:1;"/><rect fill="#F1F1F1" height="33.9688" rx="12.5" ry="12.5" style="stroke:#181818;stroke-width:0.5;" width="252.5176" x="86.5864" y="50"/><text fill="#000000" font-family="sans-serif" font-size="12" lengthAdjust="spacing" textLength="232.5176" x="96.5864" y="71.1387">Buscar solicita&#231;&#245;es no banco de dados</text><polygon fill="#F1F1F1" points="141.2888,103.9688,284.4016,103.9688,296.4016,115.9688,284.4016,127.9688,141.2888,127.9688,129.2888,115.9688,141.2888,103.9688" style="stroke:#181818;stroke-width:0.5;"/><text fill="#000000" font-family="sans-serif" font-size="11" lengthAdjust="spacing" textLength="143.1128" x="141.2888" y="119.7769">Solicita&#231;&#245;es encontradas?</text><text fill="#000000" font-family="sans-serif" font-size="11" lengthAdjust="spacing" textLength="20.7539" x="108.5349" y="113.3745">Sim</text><text fill="#000000" font-family="sans-serif" font-size="11" lengthAdjust="spacing" textLength="21.6992" x="296.4016" y="113.3745">N&#227;o</text><rect fill="#F1F1F1" height="33.9688" rx="12.5" ry="12.5" style="stroke:#181818;stroke-width:0.5;" width="175.1504" x="11" y="137.9688"/><text fill="#000000" font-family="sans-serif" font-size="12" lengthAdjust="spacing" textLength="155.1504" x="21" y="159.1074">Exibir lista de solicita&#231;&#245;es</text><rect fill="#F1F1F1" height="33.9688" rx="12.5" ry="12.5" style="stroke:#181818;stroke-width:0.5;" width="241.9297" x="206.1504" y="137.9688"/><text fill="#000000" font-family="sans-serif" font-size="12" lengthAdjust="spacing" textLength="221.9297" x="216.1504" y="159.1074">Exibir mensagem de n&#227;o encontrada</text><polygon fill="#F1F1F1" points="212.8452,177.9375,224.8452,189.9375,212.8452,201.9375,200.8452,189.9375,212.8452,177.9375" style="stroke:#181818;stroke-width:0.5;"/><ellipse cx="212.8452" cy="232.9375" fill="none" rx="11" ry="11" style="stroke:#222222;stroke-width:1;"/><ellipse cx="212.8452" cy="232.9375" fill="#222222" rx="6" ry="6" style="stroke:#222222;stroke-width:1;"/><line style="stroke:#181818;stroke-width:1;" x1="212.8452" x2="212.8452" y1="30" y2="50"/><polygon fill="#181818" points="208.8452,40,212.8452,50,216.8452,40,212.8452,44" style="stroke:#181818;stroke-width:1;"/><line style="stroke:#181818;stroke-width:1;" x1="129.2888" x2="98.5752" y1="115.9688" y2="115.9688"/><line style="stroke:#181818;stroke-width:1;" x1="98.5752" x2="98.5752" y1="115.9688" y2="137.9688"/><polygon fill="#181818" points="94.5752,127.9688,98.5752,137.9688,102.5752,127.9688,98.5752,131.9688" style="stroke:#181818;stroke-width:1;"/><line style="stroke:#181818;stroke-width:1;" x1="296.4016" x2="327.1152" y1="115.9688" y2="115.9688"/><line style="stroke:#181818;stroke-width:1;" x1="327.1152" x2="327.1152" y1="115.9688" y2="137.9688"/><polygon fill="#181818" points="323.1152,127.9688,327.1152,137.9688,331.1152,127.9688,327.1152,131.9688" style="stroke:#181818;stroke-width:1;"/><line style="stroke:#181818;stroke-width:1;" x1="98.5752" x2="98.5752" y1="171.9375" y2="189.9375"/><line style="stroke:#181818;stroke-width:1;" x1="98.5752" x2="200.8452" y1="189.9375" y2="189.9375"/><polygon fill="#181818" points="190.8452,185.9375,200.8452,189.9375,190.8452,193.9375,194.8452,189.9375" style="stroke:#181818;stroke-width:1;"/><line style="stroke:#181818;stroke-width:1;" x1="327.1152" x2="327.1152" y1="171.9375" y2="189.9375"/><line style="stroke:#181818;stroke-width:1;" x1="327.1152" x2="224.8452" y1="189.9375" y2="189.9375"/><polygon fill="#181818" points="234.8452,185.9375,224.8452,189.9375,234.8452,193.9375,230.8452,189.9375" style="stroke:#181818;stroke-width:1;"/><line style="stroke:#181818;stroke-width:1;" x1="212.8452" x2="212.8452" y1="83.9688" y2="103.9688"/><polygon fill="#181818" points="208.8452,93.9688,212.8452,103.9688,216.8452,93.9688,212.8452,97.9688" style="stroke:#181818;stroke-width:1;"/><line style="stroke:#181818;stroke-width:1;" x1="212.8452" x2="212.8452" y1="201.9375" y2="221.9375"/><polygon fill="#181818" points="208.8452,211.9375,212.8452,221.9375,216.8452,211.9375,212.8452,215.9375" style="stroke:#181818;stroke-width:1;"/><!--SRC=[LOqn3i8m34Ltdy9ZUuLsG49YPU44RkA2fSH1iP6u3mCdu0Iv6EdMpl-z_yofEi1qVbcWYbQI175gt_PZGosua8Q2aJ5IB3Q3h3ZSZXHtGhrI93kDw0_MZaWU0N6wl6MHYadCQNiv1cRWP8p3jNtA7i-iHdVEcw5zsoMweb5M0FFo_0C0]--></g></svg>