<svg xmlns="http://www.w3.org/2000/svg" xmlns:xlink="http://www.w3.org/1999/xlink" contentStyleType="text/css" data-diagram-type="ACTIVITY" height="308px" preserveAspectRatio="none" style="width:337px;height:308px;background:#FFFFFF;" version="1.1" viewBox="0 0 337 308" width="337px" zoomAndPan="magnify"><defs/><g><ellipse cx="156.8311" cy="20" fill="#222222" rx="10" ry="10" style="stroke:#222222;stroke-width:1;"/><rect fill="#F1F1F1" height="33.9688" rx="12.5" ry="12.5" style="stroke:#181818;stroke-width:0.5;" width="169.8535" x="71.9043" y="50"/><text fill="#000000" font-family="sans-serif" font-size="12" lengthAdjust="spacing" textLength="149.8535" x="81.9043" y="71.1387">Receber senha fornecida</text><rect fill="#F1F1F1" height="33.9688" rx="12.5" ry="12.5" style="stroke:#181818;stroke-width:0.5;" width="110.3164" x="101.6729" y="103.9688"/><text fill="#000000" font-family="sans-serif" font-size="12" lengthAdjust="spacing" textLength="90.3164" x="111.6729" y="125.1074">Verificar senha</text><polygon fill="#F1F1F1" points="115.1245,157.9375,198.5376,157.9375,210.5376,169.9375,198.5376,181.9375,115.1245,181.9375,103.1245,169.9375,115.1245,157.9375" style="stroke:#181818;stroke-width:0.5;"/><text fill="#000000" font-family="sans-serif" font-size="11" lengthAdjust="spacing" textLength="83.4131" x="115.1245" y="173.7456">Senha correta?</text><text fill="#000000" font-family="sans-serif" font-size="11" lengthAdjust="spacing" textLength="20.7539" x="82.3706" y="167.3433">Sim</text><text fill="#000000" font-family="sans-serif" font-size="11" lengthAdjust="spacing" textLength="21.6992" x="210.5376" y="167.3433">N&#227;o</text><rect fill="#F1F1F1" height="33.9688" rx="12.5" ry="12.5" style="stroke:#181818;stroke-width:0.5;" width="123.8047" x="11" y="191.9375"/><text fill="#000000" font-family="sans-serif" font-size="12" lengthAdjust="spacing" textLength="103.8047" x="21" y="213.0762">Acesso permitido</text><rect fill="#F1F1F1" height="33.9688" rx="12.5" ry="12.5" style="stroke:#181818;stroke-width:0.5;" width="171.9102" x="154.8047" y="191.9375"/><text fill="#000000" font-family="sans-serif" font-size="12" lengthAdjust="spacing" textLength="151.9102" x="164.8047" y="213.0762">Exibir mensagem de erro</text><polygon fill="#F1F1F1" points="156.8311,231.9063,168.8311,243.9063,156.8311,255.9063,144.8311,243.9063,156.8311,231.9063" style="stroke:#181818;stroke-width:0.5;"/><ellipse cx="156.8311" cy="286.9063" fill="none" rx="11" ry="11" style="stroke:#222222;stroke-width:1;"/><ellipse cx="156.8311" cy="286.9063" fill="#222222" rx="6" ry="6" style="stroke:#222222;stroke-width:1;"/><line style="stroke:#181818;stroke-width:1;" x1="156.8311" x2="156.8311" y1="30" y2="50"/><polygon fill="#181818" points="152.8311,40,156.8311,50,160.8311,40,156.8311,44" style="stroke:#181818;stroke-width:1;"/><line style="stroke:#181818;stroke-width:1;" x1="156.8311" x2="156.8311" y1="83.9688" y2="103.9688"/><polygon fill="#181818" points="152.8311,93.9688,156.8311,103.9688,160.8311,93.9688,156.8311,97.9688" style="stroke:#181818;stroke-width:1;"/><line style="stroke:#181818;stroke-width:1;" x1="103.1245" x2="72.9023" y1="169.9375" y2="169.9375"/><line style="stroke:#181818;stroke-width:1;" x1="72.9023" x2="72.9023" y1="169.9375" y2="191.9375"/><polygon fill="#181818" points="68.9023,181.9375,72.9023,191.9375,76.9023,181.9375,72.9023,185.9375" style="stroke:#181818;stroke-width:1;"/><line style="stroke:#181818;stroke-width:1;" x1="210.5376" x2="240.7598" y1="169.9375" y2="169.9375"/><line style="stroke:#181818;stroke-width:1;" x1="240.7598" x2="240.7598" y1="169.9375" y2="191.9375"/><polygon fill="#181818" points="236.7598,181.9375,240.7598,191.9375,244.7598,181.9375,240.7598,185.9375" style="stroke:#181818;stroke-width:1;"/><line style="stroke:#181818;stroke-width:1;" x1="72.9023" x2="72.9023" y1="225.9063" y2="243.9063"/><line style="stroke:#181818;stroke-width:1;" x1="72.9023" x2="144.8311" y1="243.9063" y2="243.9063"/><polygon fill="#181818" points="134.8311,239.9063,144.8311,243.9063,134.8311,247.9063,138.8311,243.9063" style="stroke:#181818;stroke-width:1;"/><line style="stroke:#181818;stroke-width:1;" x1="240.7598" x2="240.7598" y1="225.9063" y2="243.9063"/><line style="stroke:#181818;stroke-width:1;" x1="240.7598" x2="168.8311" y1="243.9063" y2="243.9063"/><polygon fill="#181818" points="178.8311,239.9063,168.8311,243.9063,178.8311,247.9063,174.8311,243.9063" style="stroke:#181818;stroke-width:1;"/><line style="stroke:#181818;stroke-width:1;" x1="156.8311" x2="156.8311" y1="137.9375" y2="157.9375"/><polygon fill="#181818" points="152.8311,147.9375,156.8311,157.9375,160.8311,147.9375,156.8311,151.9375" style="stroke:#181818;stroke-width:1;"/><line style="stroke:#181818;stroke-width:1;" x1="156.8311" x2="156.8311" y1="255.9063" y2="275.9063"/><polygon fill="#181818" points="152.8311,265.9063,156.8311,275.9063,160.8311,265.9063,156.8311,269.9063" style="stroke:#181818;stroke-width:1;"/><!--SRC=[BSen3i8m34RXtQVms5uX6H03AmD8x6doXreYSMLdu3uSXOi15UjxduzaWoXSaB70sD7Nn5Mj8qj9aS8D9bLo-hz8KdcwxYoh6KOwp3nMz6-LDXDpE6QuAs-m9aEAHiB3mTFv_T8Td9woY753ztH7umA6sS_r8fLywFO1]--></g></svg>