<svg xmlns="http://www.w3.org/2000/svg" xmlns:xlink="http://www.w3.org/1999/xlink" contentStyleType="text/css" data-diagram-type="ACTIVITY" height="244px" preserveAspectRatio="none" style="width:268px;height:244px;background:#FFFFFF;" version="1.1" viewBox="0 0 268 244" width="268px" zoomAndPan="magnify"><defs/><g><ellipse cx="134.4053" cy="20" fill="#222222" rx="10" ry="10" style="stroke:#222222;stroke-width:1;"/><rect fill="#F1F1F1" height="33.9688" rx="12.5" ry="12.5" style="stroke:#181818;stroke-width:0.5;" width="246.8105" x="11" y="50"/><text fill="#000000" font-family="sans-serif" font-size="12" lengthAdjust="spacing" textLength="226.8105" x="21" y="71.1387">Receber ID do expositor e mensagem</text><rect fill="#F1F1F1" height="33.9688" rx="12.5" ry="12.5" style="stroke:#181818;stroke-width:0.5;" width="229.5664" x="19.6221" y="103.9688"/><text fill="#000000" font-family="sans-serif" font-size="12" lengthAdjust="spacing" textLength="209.5664" x="29.6221" y="125.1074">Enviar notifica&#231;&#227;o para o expositor</text><rect fill="#F1F1F1" height="33.9688" rx="12.5" ry="12.5" style="stroke:#181818;stroke-width:0.5;" width="187.4844" x="40.6631" y="157.9375"/><text fill="#000000" font-family="sans-serif" font-size="12" lengthAdjust="spacing" textLength="167.4844" x="50.6631" y="179.0762">Exibir confirma&#231;&#227;o de envio</text><ellipse cx="134.4053" cy="222.9063" fill="none" rx="11" ry="11" style="stroke:#222222;stroke-width:1;"/><ellipse cx="134.4053" cy="222.9063" fill="#222222" rx="6" ry="6" style="stroke:#222222;stroke-width:1;"/><line style="stroke:#181818;stroke-width:1;" x1="134.4053" x2="134.4053" y1="30" y2="50"/><polygon fill="#181818" points="130.4053,40,134.4053,50,138.4053,40,134.4053,44" style="stroke:#181818;stroke-width:1;"/><line style="stroke:#181818;stroke-width:1;" x1="134.4053" x2="134.4053" y1="83.9688" y2="103.9688"/><polygon fill="#181818" points="130.4053,93.9688,134.4053,103.9688,138.4053,93.9688,134.4053,97.9688" style="stroke:#181818;stroke-width:1;"/><line style="stroke:#181818;stroke-width:1;" x1="134.4053" x2="134.4053" y1="137.9375" y2="157.9375"/><polygon fill="#181818" points="130.4053,147.9375,134.4053,157.9375,138.4053,147.9375,134.4053,151.9375" style="stroke:#181818;stroke-width:1;"/><line style="stroke:#181818;stroke-width:1;" x1="134.4053" x2="134.4053" y1="191.9063" y2="211.9063"/><polygon fill="#181818" points="130.4053,201.9063,134.4053,211.9063,138.4053,201.9063,134.4053,205.9063" style="stroke:#181818;stroke-width:1;"/><!--SRC=[JSkn3OCm40NGtbFyEQ0DHLesECmdki8-wtoAs2T51c4n4ec2_hqUuf7IC3DpeUFvm6hWtgnhc8Ceh5rUB6CQflfMSLGBtJJByJq-XYOkk9M_stLHHxQwgPVBhGH_tyRKmze9]--></g></svg>