<svg xmlns="http://www.w3.org/2000/svg" xmlns:xlink="http://www.w3.org/1999/xlink" contentStyleType="text/css" data-diagram-type="ACTIVITY" height="308px" preserveAspectRatio="none" style="width:420px;height:308px;background:#FFFFFF;" version="1.1" viewBox="0 0 420 308" width="420px" zoomAndPan="magnify"><defs/><g><ellipse cx="201.2144" cy="20" fill="#222222" rx="10" ry="10" style="stroke:#222222;stroke-width:1;"/><rect fill="#F1F1F1" height="33.9688" rx="12.5" ry="12.5" style="stroke:#181818;stroke-width:0.5;" width="212.4395" x="94.9946" y="50"/><text fill="#000000" font-family="sans-serif" font-size="12" lengthAdjust="spacing" textLength="192.4395" x="104.9946" y="71.1387">Solicitar listagem de transa&#231;&#245;es</text><rect fill="#F1F1F1" height="33.9688" rx="12.5" ry="12.5" style="stroke:#181818;stroke-width:0.5;" width="176.6504" x="112.8892" y="103.9688"/><text fill="#000000" font-family="sans-serif" font-size="12" lengthAdjust="spacing" textLength="156.6504" x="122.8892" y="125.1074">Consultar banco de dados</text><polygon fill="#F1F1F1" points="130.9363,157.9375,271.4924,157.9375,283.4924,169.9375,271.4924,181.9375,130.9363,181.9375,118.9363,169.9375,130.9363,157.9375" style="stroke:#181818;stroke-width:0.5;"/><text fill="#000000" font-family="sans-serif" font-size="11" lengthAdjust="spacing" textLength="140.5562" x="130.9363" y="173.7456">Transa&#231;&#245;es encontradas?</text><text fill="#000000" font-family="sans-serif" font-size="11" lengthAdjust="spacing" textLength="20.7539" x="98.1824" y="167.3433">Sim</text><text fill="#000000" font-family="sans-serif" font-size="11" lengthAdjust="spacing" textLength="21.6992" x="283.4924" y="167.3433">N&#227;o</text><rect fill="#F1F1F1" height="33.9688" rx="12.5" ry="12.5" style="stroke:#181818;stroke-width:0.5;" width="171.1016" x="11" y="191.9375"/><text fill="#000000" font-family="sans-serif" font-size="12" lengthAdjust="spacing" textLength="151.1016" x="21" y="213.0762">Exibir lista de transa&#231;&#245;es</text><rect fill="#F1F1F1" height="33.9688" rx="12.5" ry="12.5" style="stroke:#181818;stroke-width:0.5;" width="207.5527" x="202.1016" y="191.9375"/><text fill="#000000" font-family="sans-serif" font-size="12" lengthAdjust="spacing" textLength="187.5527" x="212.1016" y="213.0762">Exibir mensagem de lista vazia</text><polygon fill="#F1F1F1" points="201.2144,231.9063,213.2144,243.9063,201.2144,255.9063,189.2144,243.9063,201.2144,231.9063" style="stroke:#181818;stroke-width:0.5;"/><ellipse cx="201.2144" cy="286.9063" fill="none" rx="11" ry="11" style="stroke:#222222;stroke-width:1;"/><ellipse cx="201.2144" cy="286.9063" fill="#222222" rx="6" ry="6" style="stroke:#222222;stroke-width:1;"/><line style="stroke:#181818;stroke-width:1;" x1="201.2144" x2="201.2144" y1="30" y2="50"/><polygon fill="#181818" points="197.2144,40,201.2144,50,205.2144,40,201.2144,44" style="stroke:#181818;stroke-width:1;"/><line style="stroke:#181818;stroke-width:1;" x1="201.2144" x2="201.2144" y1="83.9688" y2="103.9688"/><polygon fill="#181818" points="197.2144,93.9688,201.2144,103.9688,205.2144,93.9688,201.2144,97.9688" style="stroke:#181818;stroke-width:1;"/><line style="stroke:#181818;stroke-width:1;" x1="118.9363" x2="96.5508" y1="169.9375" y2="169.9375"/><line style="stroke:#181818;stroke-width:1;" x1="96.5508" x2="96.5508" y1="169.9375" y2="191.9375"/><polygon fill="#181818" points="92.5508,181.9375,96.5508,191.9375,100.5508,181.9375,96.5508,185.9375" style="stroke:#181818;stroke-width:1;"/><line style="stroke:#181818;stroke-width:1;" x1="283.4924" x2="305.8779" y1="169.9375" y2="169.9375"/><line style="stroke:#181818;stroke-width:1;" x1="305.8779" x2="305.8779" y1="169.9375" y2="191.9375"/><polygon fill="#181818" points="301.8779,181.9375,305.8779,191.9375,309.8779,181.9375,305.8779,185.9375" style="stroke:#181818;stroke-width:1;"/><line style="stroke:#181818;stroke-width:1;" x1="96.5508" x2="96.5508" y1="225.9063" y2="243.9063"/><line style="stroke:#181818;stroke-width:1;" x1="96.5508" x2="189.2144" y1="243.9063" y2="243.9063"/><polygon fill="#181818" points="179.2144,239.9063,189.2144,243.9063,179.2144,247.9063,183.2144,243.9063" style="stroke:#181818;stroke-width:1;"/><line style="stroke:#181818;stroke-width:1;" x1="305.8779" x2="305.8779" y1="225.9063" y2="243.9063"/><line style="stroke:#181818;stroke-width:1;" x1="305.8779" x2="213.2144" y1="243.9063" y2="243.9063"/><polygon fill="#181818" points="223.2144,239.9063,213.2144,243.9063,223.2144,247.9063,219.2144,243.9063" style="stroke:#181818;stroke-width:1;"/><line style="stroke:#181818;stroke-width:1;" x1="201.2144" x2="201.2144" y1="137.9375" y2="157.9375"/><polygon fill="#181818" points="197.2144,147.9375,201.2144,157.9375,205.2144,147.9375,201.2144,151.9375" style="stroke:#181818;stroke-width:1;"/><line style="stroke:#181818;stroke-width:1;" x1="201.2144" x2="201.2144" y1="255.9063" y2="275.9063"/><polygon fill="#181818" points="197.2144,265.9063,201.2144,275.9063,205.2144,265.9063,201.2144,269.9063" style="stroke:#181818;stroke-width:1;"/><!--SRC=[PSwz3S9030NWtbEuJ5Ou2Wf4InCMS78EMBeV51yeOXqA9c22Mmn7f8X4QRtlwLaBJGN0TJd887PW42rquOYUiKoKbEgxVbXtu0uvwJqigASqv4LuyjaY6R4vRp2ovSdgddJVOhbomgQJs0AYEyxIophqly916PjJVUKjZcna_UfNVD1Jo7ZoCW9eoRSl]--></g></svg>