<svg xmlns="http://www.w3.org/2000/svg" xmlns:xlink="http://www.w3.org/1999/xlink" contentStyleType="text/css" data-diagram-type="ACTIVITY" height="254px" preserveAspectRatio="none" style="width:408px;height:254px;background:#FFFFFF;" version="1.1" viewBox="0 0 408 254" width="408px" zoomAndPan="magnify"><defs/><g><ellipse cx="191.9419" cy="20" fill="#222222" rx="10" ry="10" style="stroke:#222222;stroke-width:1;"/><rect fill="#F1F1F1" height="33.9688" rx="12.5" ry="12.5" style="stroke:#181818;stroke-width:0.5;" width="348.3535" x="17.7651" y="50"/><text fill="#000000" font-family="sans-serif" font-size="12" lengthAdjust="spacing" textLength="328.3535" x="27.7651" y="71.1387">Consultar banco de dados para obter lista de produtos</text><polygon fill="#F1F1F1" points="128.7134,103.9688,255.1704,103.9688,267.1704,115.9688,255.1704,127.9688,128.7134,127.9688,116.7134,115.9688,128.7134,103.9688" style="stroke:#181818;stroke-width:0.5;"/><text fill="#000000" font-family="sans-serif" font-size="11" lengthAdjust="spacing" textLength="126.457" x="128.7134" y="119.7769">Produtos encontrados?</text><text fill="#000000" font-family="sans-serif" font-size="11" lengthAdjust="spacing" textLength="20.7539" x="95.9595" y="113.3745">Sim</text><text fill="#000000" font-family="sans-serif" font-size="11" lengthAdjust="spacing" textLength="21.6992" x="267.1704" y="113.3745">N&#227;o</text><rect fill="#F1F1F1" height="33.9688" rx="12.5" ry="12.5" style="stroke:#181818;stroke-width:0.5;" width="158.7383" x="11" y="137.9688"/><text fill="#000000" font-family="sans-serif" font-size="12" lengthAdjust="spacing" textLength="138.7383" x="21" y="159.1074">Exibir lista de produtos</text><rect fill="#F1F1F1" height="33.9688" rx="12.5" ry="12.5" style="stroke:#181818;stroke-width:0.5;" width="207.5527" x="189.7383" y="137.9688"/><text fill="#000000" font-family="sans-serif" font-size="12" lengthAdjust="spacing" textLength="187.5527" x="199.7383" y="159.1074">Exibir mensagem de lista vazia</text><polygon fill="#F1F1F1" points="191.9419,177.9375,203.9419,189.9375,191.9419,201.9375,179.9419,189.9375,191.9419,177.9375" style="stroke:#181818;stroke-width:0.5;"/><ellipse cx="191.9419" cy="232.9375" fill="none" rx="11" ry="11" style="stroke:#222222;stroke-width:1;"/><ellipse cx="191.9419" cy="232.9375" fill="#222222" rx="6" ry="6" style="stroke:#222222;stroke-width:1;"/><line style="stroke:#181818;stroke-width:1;" x1="191.9419" x2="191.9419" y1="30" y2="50"/><polygon fill="#181818" points="187.9419,40,191.9419,50,195.9419,40,191.9419,44" style="stroke:#181818;stroke-width:1;"/><line style="stroke:#181818;stroke-width:1;" x1="116.7134" x2="90.3691" y1="115.9688" y2="115.9688"/><line style="stroke:#181818;stroke-width:1;" x1="90.3691" x2="90.3691" y1="115.9688" y2="137.9688"/><polygon fill="#181818" points="86.3691,127.9688,90.3691,137.9688,94.3691,127.9688,90.3691,131.9688" style="stroke:#181818;stroke-width:1;"/><line style="stroke:#181818;stroke-width:1;" x1="267.1704" x2="293.5146" y1="115.9688" y2="115.9688"/><line style="stroke:#181818;stroke-width:1;" x1="293.5146" x2="293.5146" y1="115.9688" y2="137.9688"/><polygon fill="#181818" points="289.5146,127.9688,293.5146,137.9688,297.5146,127.9688,293.5146,131.9688" style="stroke:#181818;stroke-width:1;"/><line style="stroke:#181818;stroke-width:1;" x1="90.3691" x2="90.3691" y1="171.9375" y2="189.9375"/><line style="stroke:#181818;stroke-width:1;" x1="90.3691" x2="179.9419" y1="189.9375" y2="189.9375"/><polygon fill="#181818" points="169.9419,185.9375,179.9419,189.9375,169.9419,193.9375,173.9419,189.9375" style="stroke:#181818;stroke-width:1;"/><line style="stroke:#181818;stroke-width:1;" x1="293.5146" x2="293.5146" y1="171.9375" y2="189.9375"/><line style="stroke:#181818;stroke-width:1;" x1="293.5146" x2="203.9419" y1="189.9375" y2="189.9375"/><polygon fill="#181818" points="213.9419,185.9375,203.9419,189.9375,213.9419,193.9375,209.9419,189.9375" style="stroke:#181818;stroke-width:1;"/><line style="stroke:#181818;stroke-width:1;" x1="191.9419" x2="191.9419" y1="83.9688" y2="103.9688"/><polygon fill="#181818" points="187.9419,93.9688,191.9419,103.9688,195.9419,93.9688,191.9419,97.9688" style="stroke:#181818;stroke-width:1;"/><line style="stroke:#181818;stroke-width:1;" x1="191.9419" x2="191.9419" y1="201.9375" y2="221.9375"/><polygon fill="#181818" points="187.9419,211.9375,191.9419,221.9375,195.9419,211.9375,191.9419,215.9375" style="stroke:#181818;stroke-width:1;"/><!--SRC=[ROmn3i8m40HxlsBBv0kXe42q28aNNF05Jh9zaU-24D_XANmCHr1GK8vsPisfUWZ3JeijgG56AcT5P4IAQfYf4dHqhaXYJkioLusBgss2JEYENmAti7XTisqFlt91TvBS1s3OtsMKlnUSZD4TNa_z5JCNemldrVr4Dte8DRr4cK8mr_aD]--></g></svg>