<svg xmlns="http://www.w3.org/2000/svg" xmlns:xlink="http://www.w3.org/1999/xlink" contentStyleType="text/css" data-diagram-type="ACTIVITY" height="244px" preserveAspectRatio="none" style="width:334px;height:244px;background:#FFFFFF;" version="1.1" viewBox="0 0 334 244" width="334px" zoomAndPan="magnify"><defs/><g><ellipse cx="167.4902" cy="20" fill="#222222" rx="10" ry="10" style="stroke:#222222;stroke-width:1;"/><rect fill="#F1F1F1" height="33.9688" rx="12.5" ry="12.5" style="stroke:#181818;stroke-width:0.5;" width="312.9805" x="11" y="50"/><text fill="#000000" font-family="sans-serif" font-size="12" lengthAdjust="spacing" textLength="292.9805" x="21" y="71.1387">Receber ID do produto e percentual de desconto</text><rect fill="#F1F1F1" height="33.9688" rx="12.5" ry="12.5" style="stroke:#181818;stroke-width:0.5;" width="265.4316" x="34.7744" y="103.9688"/><text fill="#000000" font-family="sans-serif" font-size="12" lengthAdjust="spacing" textLength="245.4316" x="44.7744" y="125.1074">Buscar usu&#225;rios interessados no produto</text><rect fill="#F1F1F1" height="33.9688" rx="12.5" ry="12.5" style="stroke:#181818;stroke-width:0.5;" width="204.9863" x="64.9971" y="157.9375"/><text fill="#000000" font-family="sans-serif" font-size="12" lengthAdjust="spacing" textLength="184.9863" x="74.9971" y="179.0762">Enviar notifica&#231;&#227;o de desconto</text><ellipse cx="167.4902" cy="222.9063" fill="none" rx="11" ry="11" style="stroke:#222222;stroke-width:1;"/><ellipse cx="167.4902" cy="222.9063" fill="#222222" rx="6" ry="6" style="stroke:#222222;stroke-width:1;"/><line style="stroke:#181818;stroke-width:1;" x1="167.4902" x2="167.4902" y1="30" y2="50"/><polygon fill="#181818" points="163.4902,40,167.4902,50,171.4902,40,167.4902,44" style="stroke:#181818;stroke-width:1;"/><line style="stroke:#181818;stroke-width:1;" x1="167.4902" x2="167.4902" y1="83.9688" y2="103.9688"/><polygon fill="#181818" points="163.4902,93.9688,167.4902,103.9688,171.4902,93.9688,167.4902,97.9688" style="stroke:#181818;stroke-width:1;"/><line style="stroke:#181818;stroke-width:1;" x1="167.4902" x2="167.4902" y1="137.9375" y2="157.9375"/><polygon fill="#181818" points="163.4902,147.9375,167.4902,157.9375,171.4902,147.9375,167.4902,151.9375" style="stroke:#181818;stroke-width:1;"/><line style="stroke:#181818;stroke-width:1;" x1="167.4902" x2="167.4902" y1="191.9063" y2="211.9063"/><polygon fill="#181818" points="163.4902,201.9063,167.4902,211.9063,171.4902,201.9063,167.4902,205.9063" style="stroke:#181818;stroke-width:1;"/><!--SRC=[LOmx2a91303xFKNEyLudMjXwWxniX80aIpxUHomyo5xChGHXce5X8j6pjUt6n0SxNC_G3OPRhpHW6Ep4ceKFwBm8CatRstQg87IegFboiG3HPES8x4lqzrZfHP-oKhMKkn3EptpR_wr5slW2]--></g></svg>