<svg xmlns="http://www.w3.org/2000/svg" xmlns:xlink="http://www.w3.org/1999/xlink" contentStyleType="text/css" data-diagram-type="ACTIVITY" height="577px" preserveAspectRatio="none" style="width:685px;height:577px;background:#FFFFFF;" version="1.1" viewBox="0 0 685 577" width="685px" zoomAndPan="magnify"><defs/><g><ellipse cx="299.8628" cy="20" fill="#222222" rx="10" ry="10" style="stroke:#222222;stroke-width:1;"/><rect fill="#F1F1F1" height="33.9688" rx="12.5" ry="12.5" style="stroke:#181818;stroke-width:0.5;" width="230.3984" x="184.6636" y="50"/><text fill="#000000" font-family="sans-serif" font-size="12" lengthAdjust="spacing" textLength="210.3984" x="194.6636" y="71.1387">Expositor acessa a se&#231;&#227;o "Vendas"</text><rect fill="#F1F1F1" height="33.9688" rx="12.5" ry="12.5" style="stroke:#181818;stroke-width:0.5;" width="275.8965" x="161.9146" y="103.9688"/><text fill="#000000" font-family="sans-serif" font-size="12" lengthAdjust="spacing" textLength="255.8965" x="171.9146" y="125.1074">Sistema exibe a lista de vendas realizadas</text><polygon fill="#F1F1F1" points="220.5291,157.9375,379.1965,157.9375,391.1965,169.9375,379.1965,181.9375,220.5291,181.9375,208.5291,169.9375,220.5291,157.9375" style="stroke:#181818;stroke-width:0.5;"/><text fill="#000000" font-family="sans-serif" font-size="11" lengthAdjust="spacing" textLength="158.6675" x="220.5291" y="173.7456">Existem vendas registradas?</text><text fill="#000000" font-family="sans-serif" font-size="11" lengthAdjust="spacing" textLength="20.7539" x="187.7751" y="167.3433">Sim</text><text fill="#000000" font-family="sans-serif" font-size="11" lengthAdjust="spacing" textLength="21.6992" x="391.1965" y="167.3433">N&#227;o</text><rect fill="#F1F1F1" height="33.9688" rx="12.5" ry="12.5" style="stroke:#181818;stroke-width:0.5;" width="260.3574" x="11" y="191.9375"/><text fill="#000000" font-family="sans-serif" font-size="12" lengthAdjust="spacing" textLength="240.3574" x="21" y="213.0762">Expositor visualiza a lista de transa&#231;&#245;es</text><rect fill="#F1F1F1" height="33.9688" rx="12.5" ry="12.5" style="stroke:#181818;stroke-width:0.5;" width="334.3789" x="291.3574" y="191.9375"/><text fill="#000000" font-family="sans-serif" font-size="12" lengthAdjust="spacing" textLength="314.3789" x="301.3574" y="213.0762">Sistema exibe MSG13 "Nenhuma venda registrada."</text><rect fill="#F1F1F1" height="33.9688" rx="12.5" ry="12.5" style="stroke:#181818;stroke-width:0.5;" width="292.9648" x="312.0645" y="294.3086"/><text fill="#000000" font-family="sans-serif" font-size="12" lengthAdjust="spacing" textLength="272.9648" x="322.0645" y="315.4473">Expositor clica em "Inserir registro de venda"</text><rect fill="#F1F1F1" height="33.9688" rx="12.5" ry="12.5" style="stroke:#181818;stroke-width:0.5;" width="256.5605" x="330.2666" y="348.2773"/><text fill="#000000" font-family="sans-serif" font-size="12" lengthAdjust="spacing" textLength="236.5605" x="340.2666" y="369.416">Sistema exibe formul&#225;rio para inser&#231;&#227;o</text><rect fill="#F1F1F1" height="33.9688" rx="12.5" ry="12.5" style="stroke:#181818;stroke-width:0.5;" width="242.4102" x="337.3418" y="402.2461"/><text fill="#000000" font-family="sans-serif" font-size="12" lengthAdjust="spacing" textLength="222.4102" x="347.3418" y="423.3848">Expositor insere os dados e confirma</text><rect fill="#F1F1F1" height="33.9688" rx="12.5" ry="12.5" style="stroke:#181818;stroke-width:0.5;" width="252.0781" x="332.5078" y="456.2148"/><text fill="#000000" font-family="sans-serif" font-size="12" lengthAdjust="spacing" textLength="232.0781" x="342.5078" y="477.3535">Sistema atualiza a listagem de vendas</text><polygon fill="#F1F1F1" points="309.1553,245.9063,607.9385,245.9063,619.9385,257.9063,607.9385,269.9063,309.1553,269.9063,297.1553,257.9063,309.1553,245.9063" style="stroke:#181818;stroke-width:0.5;"/><text fill="#000000" font-family="sans-serif" font-size="11" lengthAdjust="spacing" textLength="20.7539" x="462.5469" y="280.1167">Sim</text><text fill="#000000" font-family="sans-serif" font-size="11" lengthAdjust="spacing" textLength="298.7832" x="309.1553" y="261.7144">Expositor deseja adicionar um registro manualmente?</text><text fill="#000000" font-family="sans-serif" font-size="11" lengthAdjust="spacing" textLength="21.6992" x="619.9385" y="255.312">N&#227;o</text><ellipse cx="663.6377" cy="257.9063" fill="none" rx="11" ry="11" style="stroke:#222222;stroke-width:1;"/><ellipse cx="663.6377" cy="257.9063" fill="#222222" rx="6" ry="6" style="stroke:#222222;stroke-width:1;"/><polygon fill="#F1F1F1" points="299.8628,500.1836,311.8628,512.1836,299.8628,524.1836,287.8628,512.1836,299.8628,500.1836" style="stroke:#181818;stroke-width:0.5;"/><ellipse cx="299.8628" cy="555.1836" fill="none" rx="11" ry="11" style="stroke:#222222;stroke-width:1;"/><ellipse cx="299.8628" cy="555.1836" fill="#222222" rx="6" ry="6" style="stroke:#222222;stroke-width:1;"/><line style="stroke:#181818;stroke-width:1;" x1="299.8628" x2="299.8628" y1="30" y2="50"/><polygon fill="#181818" points="295.8628,40,299.8628,50,303.8628,40,299.8628,44" style="stroke:#181818;stroke-width:1;"/><line style="stroke:#181818;stroke-width:1;" x1="299.8628" x2="299.8628" y1="83.9688" y2="103.9688"/><polygon fill="#181818" points="295.8628,93.9688,299.8628,103.9688,303.8628,93.9688,299.8628,97.9688" style="stroke:#181818;stroke-width:1;"/><line style="stroke:#181818;stroke-width:1;" x1="458.5469" x2="458.5469" y1="328.2773" y2="348.2773"/><polygon fill="#181818" points="454.5469,338.2773,458.5469,348.2773,462.5469,338.2773,458.5469,342.2773" style="stroke:#181818;stroke-width:1;"/><line style="stroke:#181818;stroke-width:1;" x1="458.5469" x2="458.5469" y1="382.2461" y2="402.2461"/><polygon fill="#181818" points="454.5469,392.2461,458.5469,402.2461,462.5469,392.2461,458.5469,396.2461" style="stroke:#181818;stroke-width:1;"/><line style="stroke:#181818;stroke-width:1;" x1="458.5469" x2="458.5469" y1="436.2148" y2="456.2148"/><polygon fill="#181818" points="454.5469,446.2148,458.5469,456.2148,462.5469,446.2148,458.5469,450.2148" style="stroke:#181818;stroke-width:1;"/><line style="stroke:#181818;stroke-width:1;" x1="458.5469" x2="458.5469" y1="269.9063" y2="294.3086"/><polygon fill="#181818" points="454.5469,284.3086,458.5469,294.3086,462.5469,284.3086,458.5469,288.3086" style="stroke:#181818;stroke-width:1;"/><line style="stroke:#181818;stroke-width:1;" x1="619.9385" x2="652.6377" y1="257.9063" y2="257.9063"/><polygon fill="#181818" points="642.6377,253.9063,652.6377,257.9063,642.6377,261.9063,646.6377,257.9063" style="stroke:#181818;stroke-width:1;"/><line style="stroke:#181818;stroke-width:1;" x1="458.5469" x2="458.5469" y1="490.1836" y2="512.1836"/><line style="stroke:#181818;stroke-width:1;" x1="458.5469" x2="311.8628" y1="512.1836" y2="512.1836"/><polygon fill="#181818" points="321.8628,508.1836,311.8628,512.1836,321.8628,516.1836,317.8628,512.1836" style="stroke:#181818;stroke-width:1;"/><line style="stroke:#181818;stroke-width:1;" x1="458.5469" x2="458.5469" y1="225.9063" y2="245.9063"/><polygon fill="#181818" points="454.5469,235.9063,458.5469,245.9063,462.5469,235.9063,458.5469,239.9063" style="stroke:#181818;stroke-width:1;"/><line style="stroke:#181818;stroke-width:1;" x1="208.5291" x2="141.1787" y1="169.9375" y2="169.9375"/><line style="stroke:#181818;stroke-width:1;" x1="141.1787" x2="141.1787" y1="169.9375" y2="191.9375"/><polygon fill="#181818" points="137.1787,181.9375,141.1787,191.9375,145.1787,181.9375,141.1787,185.9375" style="stroke:#181818;stroke-width:1;"/><line style="stroke:#181818;stroke-width:1;" x1="391.1965" x2="458.5469" y1="169.9375" y2="169.9375"/><line style="stroke:#181818;stroke-width:1;" x1="458.5469" x2="458.5469" y1="169.9375" y2="191.9375"/><polygon fill="#181818" points="454.5469,181.9375,458.5469,191.9375,462.5469,181.9375,458.5469,185.9375" style="stroke:#181818;stroke-width:1;"/><line style="stroke:#181818;stroke-width:1;" x1="141.1787" x2="141.1787" y1="225.9063" y2="512.1836"/><line style="stroke:#181818;stroke-width:1;" x1="141.1787" x2="287.8628" y1="512.1836" y2="512.1836"/><polygon fill="#181818" points="277.8628,508.1836,287.8628,512.1836,277.8628,516.1836,281.8628,512.1836" style="stroke:#181818;stroke-width:1;"/><line style="stroke:#181818;stroke-width:1;" x1="299.8628" x2="299.8628" y1="137.9375" y2="157.9375"/><polygon fill="#181818" points="295.8628,147.9375,299.8628,157.9375,303.8628,147.9375,299.8628,151.9375" style="stroke:#181818;stroke-width:1;"/><line style="stroke:#181818;stroke-width:1;" x1="299.8628" x2="299.8628" y1="524.1836" y2="544.1836"/><polygon fill="#181818" points="295.8628,534.1836,299.8628,544.1836,303.8628,534.1836,299.8628,538.1836" style="stroke:#181818;stroke-width:1;"/><!--SRC=[RP4nRiCm34LtdOBmb2m5Ycx9q2aeEZIBWUwiHISiBCaGvS3eROeEFK5Fa8kLLkB6IQr1CAN_-PyfIHYJCQjDtmRX529WHI8824B7x-DNWEALl4KfrcPLiYHo2DJp6wcaqHh14Xoo129Xmn-edsjZk8R5fi-Eo_rEwpW87fUGzkHXKR9R6j0rOJYmTBdJD4DzNb2PVaZRKoC4Ywq2djtNR2_bq_q355lo-quFS_ua_ax_Pd2T6CTOIqBlcccvuk0nGkT6Jm27NfaS-KJ_sM_uguOh9N5GF7kXoF7IPXpM6M06lGxHTStnCtA05YC23ptoMwpdml8rGH2mQ7Kdg8AlEJgSYS1qFTYTGlwztqL_EzrXIGfjBbJBjJdjPZZz1G00]--></g></svg>