<?xml version="1.0" encoding="UTF-8" standalone="no"?><svg xmlns="http://www.w3.org/2000/svg" xmlns:xlink="http://www.w3.org/1999/xlink" contentStyleType="text/css" height="1711px" preserveAspectRatio="none" style="width:795px;height:1711px;background:#FFFFFF;" version="1.1" viewBox="0 0 795 1711" width="795px" zoomAndPan="magnify"><defs/><g><!--MD5=[9bfb495dd0d5163c3761a061aba0db94]
cluster SGFPO--><g id="cluster_SGFPO"><rect fill="none" height="1435" rx="2.5" ry="2.5" style="stroke:#181818;stroke-width:1.0;" width="658" x="131" y="69.5"/><text fill="#000000" font-family="sans-serif" font-size="14" font-weight="bold" lengthAdjust="spacing" textLength="49" x="435.5" y="86.0332">SGFPO</text></g><g id="elem_Acessar sistema"><ellipse cx="656.6002" cy="1053.52" fill="#F1F1F1" rx="75.6002" ry="17.52" style="stroke:#181818;stroke-width:0.5;"/><text fill="#000000" font-family="sans-serif" font-size="14" lengthAdjust="spacing" textLength="103" x="602.1002" y="1058.0366">Acessar sistema</text></g><g id="elem_Recuperar senha"><ellipse cx="281.2877" cy="431.5575" fill="#F1F1F1" rx="78.2877" ry="18.0575" style="stroke:#181818;stroke-width:0.5;"/><text fill="#000000" font-family="sans-serif" font-size="14" lengthAdjust="spacing" textLength="110" x="224.5149" y="435.7774">Recuperar senha</text></g><g id="elem_Acesso sem login"><ellipse cx="281.2877" cy="974.5575" fill="#F1F1F1" rx="78.2877" ry="18.0575" style="stroke:#181818;stroke-width:0.5;"/><text fill="#000000" font-family="sans-serif" font-size="14" lengthAdjust="spacing" textLength="110" x="224.5149" y="978.7774">Acesso sem login</text></g><g id="elem_Gerenciar perfil expositor"><ellipse cx="281.6681" cy="127.7336" fill="#F1F1F1" rx="99.1681" ry="22.2336" style="stroke:#181818;stroke-width:0.5;"/><text fill="#000000" font-family="sans-serif" font-size="14" lengthAdjust="spacing" textLength="159" x="202.1681" y="131.4621">Gerenciar perfil expositor</text></g><g id="elem_Gerenciar produtos"><ellipse cx="281.5873" cy="203.6175" fill="#F1F1F1" rx="83.5873" ry="19.1175" style="stroke:#181818;stroke-width:0.5;"/><text fill="#000000" font-family="sans-serif" font-size="14" lengthAdjust="spacing" textLength="123" x="220.0873" y="207.346">Gerenciar produtos</text></g><g id="elem_Notificar estoque"><ellipse cx="281.7363" cy="275.7473" fill="#F1F1F1" rx="76.7363" ry="17.7473" style="stroke:#181818;stroke-width:0.5;"/><text fill="#000000" font-family="sans-serif" font-size="14" lengthAdjust="spacing" textLength="106" x="226.2006" y="280.1555">Notificar estoque</text></g><g id="elem_Visualizar registro das vendas"><ellipse cx="281.7192" cy="353.4438" fill="#F1F1F1" rx="112.7192" ry="24.9438" style="stroke:#181818;stroke-width:0.5;"/><text fill="#000000" font-family="sans-serif" font-size="14" lengthAdjust="spacing" textLength="189" x="187.2192" y="357.1724">Visualizar registro das vendas</text></g><g id="elem_Registrar vendas manualmente"><ellipse cx="656.3945" cy="295.6789" fill="#F1F1F1" rx="116.3945" ry="25.6789" style="stroke:#181818;stroke-width:0.5;"/><text fill="#000000" font-family="sans-serif" font-size="14" lengthAdjust="spacing" textLength="197" x="557.8945" y="299.4074">Registrar vendas manualmente</text></g><g id="elem_Notificar vendas on-line"><ellipse cx="281.313" cy="506.2626" fill="#F1F1F1" rx="94.313" ry="21.2626" style="stroke:#181818;stroke-width:0.5;"/><text fill="#000000" font-family="sans-serif" font-size="14" lengthAdjust="spacing" textLength="148" x="207.313" y="509.9911">Notificar vendas on-line</text></g><g id="elem_Visualizar histórico de compras"><ellipse cx="281.4736" cy="1053.4947" fill="#F1F1F1" rx="115.4736" ry="25.4947" style="stroke:#181818;stroke-width:0.5;"/><text fill="#000000" font-family="sans-serif" font-size="14" lengthAdjust="spacing" textLength="195" x="183.9736" y="1057.2232">Visualizar histórico de compras</text></g><g id="elem_Filtrar produtos"><ellipse cx="281.376" cy="1131.5752" fill="#F1F1F1" rx="73.376" ry="17.0752" style="stroke:#181818;stroke-width:0.5;"/><text fill="#000000" font-family="sans-serif" font-size="14" lengthAdjust="spacing" textLength="97" x="229.876" y="1136.0918">Filtrar produtos</text></g><g id="elem_Enviar mensagem ao expositor"><ellipse cx="281.5137" cy="1209.4027" fill="#F1F1F1" rx="115.0137" ry="25.4027" style="stroke:#181818;stroke-width:0.5;"/><text fill="#000000" font-family="sans-serif" font-size="14" lengthAdjust="spacing" textLength="194" x="184.5137" y="1213.1313">Enviar mensagem ao expositor</text></g><g id="elem_Suporte técnico ao participante"><ellipse cx="281.3945" cy="1295.6789" fill="#F1F1F1" rx="116.3945" ry="25.6789" style="stroke:#181818;stroke-width:0.5;"/><text fill="#000000" font-family="sans-serif" font-size="14" lengthAdjust="spacing" textLength="197" x="182.8945" y="1299.4074">Suporte técnico ao participante</text></g><g id="elem_Suporte técnico ao expositor"><ellipse cx="281.6128" cy="587.6226" fill="#F1F1F1" rx="108.6128" ry="24.1226" style="stroke:#181818;stroke-width:0.5;"/><text fill="#000000" font-family="sans-serif" font-size="14" lengthAdjust="spacing" textLength="180" x="191.6128" y="591.3511">Suporte técnico ao expositor</text></g><g id="elem_Adicionar à lista de desejos"><ellipse cx="281.4418" cy="824.4884" fill="#F1F1F1" rx="105.4418" ry="23.4884" style="stroke:#181818;stroke-width:0.5;"/><text fill="#000000" font-family="sans-serif" font-size="14" lengthAdjust="spacing" textLength="173" x="194.9418" y="828.2169">Adicionar à lista de desejos</text></g><g id="elem_Personalizar aparência da plataforma"><ellipse cx="281.5829" cy="1385.3166" fill="#F1F1F1" rx="134.5829" ry="29.3166" style="stroke:#181818;stroke-width:0.5;"/><text fill="#000000" font-family="sans-serif" font-size="14" lengthAdjust="spacing" textLength="236" x="163.5829" y="1389.0451">Personalizar aparência da plataforma</text></g><g id="elem_Avaliar compra"><ellipse cx="656.2859" cy="1366.3572" fill="#F1F1F1" rx="72.2859" ry="16.8572" style="stroke:#181818;stroke-width:0.5;"/><text fill="#000000" font-family="sans-serif" font-size="14" lengthAdjust="spacing" textLength="94" x="606.2859" y="1370.8738">Avaliar compra</text></g><g id="elem_Oferecer descontos"><ellipse cx="281.4267" cy="666.2853" fill="#F1F1F1" rx="84.4267" ry="19.2853" style="stroke:#181818;stroke-width:0.5;"/><text fill="#000000" font-family="sans-serif" font-size="14" lengthAdjust="spacing" textLength="125" x="218.9267" y="670.0139">Oferecer descontos</text></g><g id="elem_Notificar descontos"><ellipse cx="281.3351" cy="902.367" fill="#F1F1F1" rx="82.3351" ry="18.867" style="stroke:#181818;stroke-width:0.5;"/><text fill="#000000" font-family="sans-serif" font-size="14" lengthAdjust="spacing" textLength="120" x="221.3351" y="906.0955">Notificar descontos</text></g><g id="elem_Realizar operações offline"><ellipse cx="281.3975" cy="743.6795" fill="#F1F1F1" rx="101.3975" ry="22.6795" style="stroke:#181818;stroke-width:0.5;"/><text fill="#000000" font-family="sans-serif" font-size="14" lengthAdjust="spacing" textLength="164" x="199.3975" y="747.408">Realizar operações offline</text></g><g id="elem_Visualizar relatórios"><ellipse cx="281.5873" cy="1469.6175" fill="#F1F1F1" rx="83.5873" ry="19.1175" style="stroke:#181818;stroke-width:0.5;"/><text fill="#000000" font-family="sans-serif" font-size="14" lengthAdjust="spacing" textLength="123" x="220.0873" y="1473.346">Visualizar relatórios</text></g><!--MD5=[128f0757cf0ea77f14e95a88885fd9f7]
entity Usuario--><g id="elem_Usuario"><ellipse cx="281.5" cy="1532" fill="#F1F1F1" rx="8" ry="8" style="stroke:#181818;stroke-width:0.5;"/><path d="M281.5,1540 L281.5,1567 M268.5,1548 L294.5,1548 M281.5,1567 L268.5,1582 M281.5,1567 L294.5,1582 " fill="none" style="stroke:#181818;stroke-width:0.5;"/><text fill="#000000" font-family="sans-serif" font-size="14" lengthAdjust="spacing" textLength="97" x="233" y="1598.0332">Usuário comum</text></g><!--MD5=[0e07ace55da6feeb15fadfa92f806ed7]
entity Expositor--><g id="elem_Expositor"><ellipse cx="45" cy="404" fill="#F1F1F1" rx="8" ry="8" style="stroke:#181818;stroke-width:0.5;"/><path d="M45,412 L45,439 M32,420 L58,420 M45,439 L32,454 M45,439 L58,454 " fill="none" style="stroke:#181818;stroke-width:0.5;"/><text fill="#000000" font-family="sans-serif" font-size="14" lengthAdjust="spacing" textLength="58" x="16" y="470.0332">Expositor</text></g><!--MD5=[26f19a92cbc8a9be75502bfce1735486]
entity Participante--><g id="elem_Participante"><ellipse cx="45" cy="1101" fill="#F1F1F1" rx="8" ry="8" style="stroke:#181818;stroke-width:0.5;"/><path d="M45,1109 L45,1136 M32,1117 L58,1117 M45,1136 L32,1151 M45,1136 L58,1151 " fill="none" style="stroke:#181818;stroke-width:0.5;"/><text fill="#000000" font-family="sans-serif" font-size="14" lengthAdjust="spacing" textLength="75" x="7.5" y="1167.0332">Participante</text></g><!--MD5=[0c55bab172805cca2008645a19f76a7f]
entity Organizador--><g id="elem_Organizador"><ellipse cx="45" cy="1565" fill="#F1F1F1" rx="8" ry="8" style="stroke:#181818;stroke-width:0.5;"/><path d="M45,1573 L45,1600 M32,1581 L58,1581 M45,1600 L32,1615 M45,1600 L58,1615 " fill="none" style="stroke:#181818;stroke-width:0.5;"/><text fill="#000000" font-family="sans-serif" font-size="14" lengthAdjust="spacing" textLength="78" x="6" y="1631.0332">Organizador</text></g><!--MD5=[efe28e98b8471257eccbed0591f050c4]
link Expositor to Usuario--><g id="link_Expositor_Usuario"><path d="M48.24,473.63 C59.18,663.84 107.17,1483.45 123,1504.5 C144.15,1532.61 180.39,1547.11 212.78,1554.58 " fill="none" id="Expositor-to-Usuario" style="stroke:#181818;stroke-width:1.0;"/><polygon fill="none" points="214.49,1547.78,232.79,1558.46,211.82,1561.52,214.49,1547.78" style="stroke:#181818;stroke-width:1.0;"/></g><!--MD5=[cf7750ced67fe71aad9aae3f4cbb24b8]
link Participante to Usuario--><g id="link_Participante_Usuario"><path d="M49.31,1170.68 C57.24,1255.91 79.97,1454.51 123,1504.5 C145.72,1530.89 181.55,1545.28 213.3,1553.12 " fill="none" id="Participante-to-Usuario" style="stroke:#181818;stroke-width:1.0;"/><polygon fill="none" points="214.79,1546.28,232.89,1557.3,211.87,1559.97,214.79,1546.28" style="stroke:#181818;stroke-width:1.0;"/></g><!--MD5=[d0a2a2d510c0943fcf0f8bdbc00ccf34]
link Organizador to Usuario--><g id="link_Organizador_Usuario"><path d="M84.2,1590.12 C119.03,1585.22 171.28,1577.87 213.12,1571.98 " fill="none" id="Organizador-to-Usuario" style="stroke:#181818;stroke-width:1.0;"/><polygon fill="none" points="212.22,1565.04,233,1569.18,214.17,1578.9,212.22,1565.04" style="stroke:#181818;stroke-width:1.0;"/></g><!--MD5=[4663ee31c4931adde6e17cd701874563]
link Usuario to Acessar sistema--><g id="link_Usuario_Acessar sistema"><path d="M330.16,1550.38 C357.83,1541.41 391.88,1526.8 416,1504.5 C488.5,1437.46 616.16,1145.63 648.1,1070.95 " fill="none" id="Usuario-Acessar sistema" style="stroke:#181818;stroke-width:1.0;"/></g><!--MD5=[18a32525852073d2988f2f042b8ff93b]
reverse link Recuperar senha to Acessar sistema--><g id="link_Recuperar senha_Acessar sistema"><path d="M359.09,439.61 C379.46,444.9 400.17,453.52 416,467.5 C600.58,630.4 645.51,956.88 653.86,1035.95 " fill="none" id="Recuperar senha-backto-Acessar sistema" style="stroke:#181818;stroke-width:1.0;stroke-dasharray:7.0,7.0;"/><polygon fill="#181818" points="354.2,438.4,361.9779,444.4419,359.0541,439.5992,363.8967,436.6754,354.2,438.4" style="stroke:#181818;stroke-width:1.0;"/><text fill="#000000" font-family="sans-serif" font-size="13" lengthAdjust="spacing" textLength="60" x="448" y="499.9951">«extends»</text></g><!--MD5=[41092da2e945cfd17546ad7b87edec89]
link Participante to Acesso sem login--><g id="link_Participante_Acesso sem login"><path d="M61.29,1092.43 C73.87,1065.38 94.31,1030.73 123,1010.5 C147.07,993.52 177.89,984.41 205.87,979.57 " fill="none" id="Participante-Acesso sem login" style="stroke:#181818;stroke-width:1.0;"/></g><!--MD5=[3f1af80ec76b8bda53c09dfda3a2198b]
link Expositor to Gerenciar perfil expositor--><g id="link_Expositor_Gerenciar perfil expositor"><path d="M45.69,395.1 C47.47,336.69 59.73,227.46 123,166.5 C140.34,149.78 163.67,139.88 187.05,134.11 " fill="none" id="Expositor-Gerenciar perfil expositor" style="stroke:#181818;stroke-width:1.0;"/></g><!--MD5=[8694ef5bf6508ba65801c18fdae3670a]
link Expositor to Gerenciar produtos--><g id="link_Expositor_Gerenciar produtos"><path d="M50.77,395.19 C58.26,350.96 77.04,280.14 123,240.5 C144.16,222.24 172.67,212.58 199.61,207.6 " fill="none" id="Expositor-Gerenciar produtos" style="stroke:#181818;stroke-width:1.0;"/></g><!--MD5=[93126d341120b056d0919fb22891589f]
link Expositor to Notificar estoque--><g id="link_Expositor_Notificar estoque"><path d="M60.62,395.3 C73.02,367.44 93.55,331.39 123,310.5 C147.33,293.24 178.68,284.28 206.99,279.71 " fill="none" id="Expositor-Notificar estoque" style="stroke:#181818;stroke-width:1.0;"/></g><!--MD5=[f572dc19954b0f81970583200ebb6c44]
link Expositor to Visualizar registro das vendas--><g id="link_Expositor_Visualizar registro das vendas"><path d="M74.24,418.41 C88.53,410.73 106.34,401.86 123,395.5 C147.98,385.96 175.98,377.74 201.37,371.16 " fill="none" id="Expositor-Visualizar registro das vendas" style="stroke:#181818;stroke-width:1.0;"/></g><!--MD5=[0a1698f8b458862ec0c737592c29ea2d]
reverse link Visualizar registro das vendas to Registrar vendas manualmente--><g id="link_Visualizar registro das vendas_Registrar vendas manualmente"><path d="M389.01,364.13 C427.46,365.55 470.99,364.34 510,356.5 C545.85,349.28 583.88,333.01 612.06,319.08 " fill="none" id="Visualizar registro das vendas-backto-Registrar vendas manualmente" style="stroke:#181818;stroke-width:1.0;stroke-dasharray:7.0,7.0;"/><polygon fill="#181818" points="383.86,363.92,392.6929,368.2765,388.856,364.1198,393.0127,360.2829,383.86,363.92" style="stroke:#181818;stroke-width:1.0;"/><text fill="#000000" font-family="sans-serif" font-size="13" lengthAdjust="spacing" textLength="60" x="448" y="352.9951">«extends»</text></g><!--MD5=[0a1698f8b458862ec0c737592c29ea2d]
reverse link Visualizar registro das vendas to Registrar vendas manualmente--><g id="link_Visualizar registro das vendas_Registrar vendas manualmente"><path d="M379.25,338.45 C435.2,329.75 505.3,318.85 560.88,310.21 " fill="none" id="Visualizar registro das vendas-backto-Registrar vendas manualmente-1" style="stroke:#181818;stroke-width:1.0;stroke-dasharray:7.0,7.0;"/><polygon fill="#181818" points="374.22,339.23,383.7219,341.8212,379.1624,338.4729,382.5106,333.9134,374.22,339.23" style="stroke:#181818;stroke-width:1.0;"/><text fill="#000000" font-family="sans-serif" font-size="13" lengthAdjust="spacing" textLength="62" x="447" y="315.9951">«includes»</text></g><!--MD5=[fdde8de7fd262e0a94cc01ff35f19a88]
link Expositor to Registrar vendas manualmente--><g id="link_Expositor_Registrar vendas manualmente"><path d="M48.7,395.33 C55.3,312.87 75.29,125.78 123,87.5 C224.57,6 294.01,41.92 416,87.5 C515.31,124.6 600.69,223.51 636.93,270.3 " fill="none" id="Expositor-Registrar vendas manualmente" style="stroke:#181818;stroke-width:1.0;"/></g><!--MD5=[1b68b8a2773ecce611a6542686375269]
link Expositor to Notificar vendas on-line--><g id="link_Expositor_Notificar vendas on-line"><path d="M74.15,447.35 C88.57,453.64 106.52,461.01 123,466.5 C152.04,476.16 184.76,484.82 212.82,491.59 " fill="none" id="Expositor-Notificar vendas on-line" style="stroke:#181818;stroke-width:1.0;"/></g><!--MD5=[38daed9a5879980867ab8e0b3ffa0870]
link Participante to Visualizar histórico de compras--><g id="link_Participante_Visualizar histórico de compras"><path d="M82.71,1113.36 C95.3,1107.53 109.6,1101.33 123,1096.5 C148.46,1087.3 176.84,1078.98 202.42,1072.17 " fill="none" id="Participante-Visualizar histórico de compras" style="stroke:#181818;stroke-width:1.0;"/></g><!--MD5=[ed00a9310141be96bbe72028b1c4d937]
link Participante to Filtrar produtos--><g id="link_Participante_Filtrar produtos"><path d="M82.64,1131.5 C116,1131.5 166.24,1131.5 207.75,1131.5 " fill="none" id="Participante-Filtrar produtos" style="stroke:#181818;stroke-width:1.0;"/></g><!--MD5=[52c9723d1985ccadcc036c280d35e10f]
link Participante to Enviar mensagem ao expositor--><g id="link_Participante_Enviar mensagem ao expositor"><path d="M82.77,1149.02 C95.37,1154.67 109.66,1160.71 123,1165.5 C149.06,1174.83 178.11,1183.44 204.1,1190.52 " fill="none" id="Participante-Enviar mensagem ao expositor" style="stroke:#181818;stroke-width:1.0;"/></g><!--MD5=[0d62b4d7f793e2bfa766588472e69daa]
link Participante to Suporte técnico ao participante--><g id="link_Participante_Suporte técnico ao participante"><path d="M61.82,1170.77 C74.54,1197.56 94.94,1231.81 123,1252.5 C141.02,1265.78 162.92,1274.96 184.59,1281.31 " fill="none" id="Participante-Suporte técnico ao participante" style="stroke:#181818;stroke-width:1.0;"/></g><!--MD5=[ff9e300c74e6c19ee55e14d234ad4514]
link Expositor to Suporte técnico ao expositor--><g id="link_Expositor_Suporte técnico ao expositor"><path d="M64.13,473.52 C77.24,497.64 97.19,527.36 123,545.5 C142.57,559.24 166.38,568.49 189.5,574.71 " fill="none" id="Expositor-Suporte técnico ao expositor" style="stroke:#181818;stroke-width:1.0;"/></g><!--MD5=[b5cad0a607058392e1d45bb9ee45c4f2]
link Participante to Adicionar à lista de desejos--><g id="link_Participante_Adicionar à lista de desejos"><path d="M45.88,1092.49 C47.9,1034.62 60.47,926.35 123,865.5 C139.4,849.53 161.19,839.57 183.32,833.4 " fill="none" id="Participante-Adicionar à lista de desejos" style="stroke:#181818;stroke-width:1.0;"/></g><!--MD5=[a5c34cc25b614b974960623719088729]
link Usuario to Personalizar aparência da plataforma--><g id="link_Usuario_Personalizar aparência da plataforma"><path d="M232.8,1553.68 C171.51,1539.98 77.24,1508.84 103.5,1450 C114.68,1424.93 137.51,1409.36 163.19,1399.75 " fill="none" id="Usuario-Personalizar aparência da plataforma" style="stroke:#181818;stroke-width:1.0;"/></g><!--MD5=[bec655fafbd402f76638d366800ab0c4]
link Participante to Avaliar compra--><g id="link_Participante_Avaliar compra"><path d="M49.28,1170.66 C58.95,1281.34 88.81,1590.28 123,1619.5 C222,1704.1 296.38,1670.97 416,1619.5 C532.39,1569.41 618.68,1431.86 646.19,1383.55 " fill="none" id="Participante-Avaliar compra" style="stroke:#181818;stroke-width:1.0;"/></g><!--MD5=[406029ca23a2a892cdfea9bd70920401]
reverse link Visualizar histórico de compras to Avaliar compra--><g id="link_Visualizar histórico de compras_Avaliar compra"><path d="M367.36,1073.3 C384.24,1079.27 401.28,1086.88 416,1096.5 C525.39,1167.92 615.46,1302.1 645.12,1349.43 " fill="none" id="Visualizar histórico de compras-backto-Avaliar compra" style="stroke:#181818;stroke-width:1.0;stroke-dasharray:7.0,7.0;"/><polygon fill="#181818" points="362.61,1071.66,369.8169,1078.3727,367.3375,1073.2882,372.422,1070.8088,362.61,1071.66" style="stroke:#181818;stroke-width:1.0;"/><text fill="#000000" font-family="sans-serif" font-size="13" lengthAdjust="spacing" textLength="62" x="447" y="1115.9951">«includes»</text></g><!--MD5=[65ad85113a1e8afda61780253cb1ee6c]
link Expositor to Oferecer descontos--><g id="link_Expositor_Oferecer descontos"><path d="M50.81,473.76 C58.34,517.93 77.16,588.71 123,628.5 C144.03,646.75 172.35,656.57 199.17,661.75 " fill="none" id="Expositor-Oferecer descontos" style="stroke:#181818;stroke-width:1.0;"/></g><!--MD5=[52134e5efc1ff11155bcc2942b47d737]
link Participante to Notificar descontos--><g id="link_Participante_Notificar descontos"><path d="M50.79,1092.33 C58.3,1048.29 77.09,977.79 123,938.5 C144.31,920.26 173,910.77 200.06,905.99 " fill="none" id="Participante-Notificar descontos" style="stroke:#181818;stroke-width:1.0;"/></g><!--MD5=[9706fa6b0415dcdbc42decd75af62943]
link Expositor to Realizar operações offline--><g id="link_Expositor_Realizar operações offline"><path d="M45.68,473.5 C47.4,531.94 59.55,641.93 123,703.5 C140.01,720 162.81,729.98 185.78,735.94 " fill="none" id="Expositor-Realizar operações offline" style="stroke:#181818;stroke-width:1.0;"/></g><!--MD5=[dcb453359a675e101a6cb56764bf9bc3]
link Organizador to Visualizar relatórios--><g id="link_Organizador_Visualizar relatórios"><path d="M70.9,1556.18 C84.26,1538.15 102.24,1518.05 123,1505.5 C147.36,1490.76 177.16,1482.05 204.26,1476.91 " fill="none" id="Organizador-Visualizar relatórios" style="stroke:#181818;stroke-width:1.0;"/></g><!--MD5=[1cdd1361445cc9a19c14fc67136e4e98]
@startuml
left to right direction
skinparam packageStyle rect

' Definição dos atores e hierarquia
actor "Usuário comum" as Usuario
actor "Expositor" as Expositor
actor "Participante" as Participante
actor "Organizador" as Organizador

Expositor - -|> Usuario
Participante - -|> Usuario
Organizador - -|> Usuario


' Pacotes de casos de uso
package "SGFPO" {
    Usuario - - (Acessar sistema)
    (Recuperar senha)<.. (Acessar sistema) : <<extends>>
     Participante  - - (Acesso sem login)
  Expositor - - (Gerenciar perfil expositor) 
  Expositor - - (Gerenciar produtos)
  Expositor - - (Notificar estoque) 
  Expositor - - (Visualizar registro das vendas) 
  (Visualizar registro das vendas) <..(Registrar vendas manualmente): <<extends>>
  Expositor - - (Registrar vendas manualmente) 
  (Visualizar registro das vendas)  <..(Registrar vendas manualmente): <<includes>>
  Expositor - - (Notificar vendas on-line)  
  Participante - - (Visualizar histórico de compras)
  Participante - - (Filtrar produtos)
 Participante - - (Enviar mensagem ao expositor)
 Participante - - (Suporte técnico ao participante)
 Expositor - - (Suporte técnico ao expositor)
 Participante - - (Adicionar à lista de desejos)
 Usuario - - (Personalizar aparência da plataforma)
 Participante - - (Avaliar compra)
(Visualizar histórico de compras)  <..(Avaliar compra): <<includes>>
   Expositor - - (Oferecer descontos)
   Participante - - (Notificar descontos)
  Expositor - - (Realizar operações offline)
  Organizador - - (Visualizar relatórios)
}
@enduml

@startuml
left to right direction
skinparam packageStyle rect

actor "Usuário comum" as Usuario
actor "Expositor" as Expositor
actor "Participante" as Participante
actor "Organizador" as Organizador

Expositor - -|> Usuario
Participante - -|> Usuario
Organizador - -|> Usuario


package "SGFPO" {
    Usuario - - (Acessar sistema)
    (Recuperar senha)<.. (Acessar sistema) : <<extends>>
     Participante  - - (Acesso sem login)
  Expositor - - (Gerenciar perfil expositor) 
  Expositor - - (Gerenciar produtos)
  Expositor - - (Notificar estoque) 
  Expositor - - (Visualizar registro das vendas) 
  (Visualizar registro das vendas) <..(Registrar vendas manualmente): <<extends>>
  Expositor - - (Registrar vendas manualmente) 
  (Visualizar registro das vendas)  <..(Registrar vendas manualmente): <<includes>>
  Expositor - - (Notificar vendas on-line)  
  Participante - - (Visualizar histórico de compras)
  Participante - - (Filtrar produtos)
 Participante - - (Enviar mensagem ao expositor)
 Participante - - (Suporte técnico ao participante)
 Expositor - - (Suporte técnico ao expositor)
 Participante - - (Adicionar à lista de desejos)
 Usuario - - (Personalizar aparência da plataforma)
 Participante - - (Avaliar compra)
(Visualizar histórico de compras)  <..(Avaliar compra): <<includes>>
   Expositor - - (Oferecer descontos)
   Participante - - (Notificar descontos)
  Expositor - - (Realizar operações offline)
  Organizador - - (Visualizar relatórios)
}
@enduml

PlantUML version 1.2022.12(Sun Oct 23 15:12:26 BRT 2022)
(GPL source distribution)
Java Runtime: Java(TM) SE Runtime Environment
JVM: Java HotSpot(TM) 64-Bit Server VM
Default Encoding: UTF-8
Language: pt
Country: BR
--></g></svg>