<svg xmlns="http://www.w3.org/2000/svg" xmlns:xlink="http://www.w3.org/1999/xlink" contentStyleType="text/css" data-diagram-type="DESCRIPTION" height="1990px" preserveAspectRatio="none" style="width:853px;height:1990px;background:#FFFFFF;" version="1.1" viewBox="0 0 853 1990" width="853px" zoomAndPan="magnify"><defs/><g><!--cluster SGFPO--><g class="cluster" data-entity="SGFPO" data-source-line="16" data-uid="ent0009" id="cluster_SGFPO"><rect fill="none" height="1668" rx="2.5" ry="2.5" style="stroke:#181818;stroke-width:1;" width="708.49" x="139.14" y="109.41"/><text fill="#000000" font-family="sans-serif" font-size="14" font-weight="bold" lengthAdjust="spacing" textLength="53.2998" x="466.7351" y="124.4051">SGFPO</text></g><g class="entity" data-entity="Acessar sistema" data-source-line="17" data-uid="ent0010" id="entity_Acessar sistema"><ellipse cx="705.1683" cy="1496.4057" fill="#F1F1F1" rx="78.1783" ry="18.0357" style="stroke:#181818;stroke-width:0.5;"/><text fill="#000000" font-family="sans-serif" font-size="14" lengthAdjust="spacing" textLength="114.0576" x="645.7597" y="1499.9886">Acessar sistema</text></g><g class="entity" data-entity="Recuperar senha" data-source-line="18" data-uid="ent0012" id="entity_Recuperar senha"><ellipse cx="301.4326" cy="1383.4145" fill="#F1F1F1" rx="80.2726" ry="18.4545" style="stroke:#181818;stroke-width:0.5;"/><text fill="#000000" font-family="sans-serif" font-size="14" lengthAdjust="spacing" textLength="119.1846" x="240.2765" y="1386.7647">Recuperar senha</text></g><g class="entity" data-entity="Acesso sem login" data-source-line="19" data-uid="ent0014" id="entity_Acesso sem login"><ellipse cx="301.4341" cy="1311.4148" fill="#F1F1F1" rx="81.2741" ry="18.6548" style="stroke:#181818;stroke-width:0.5;"/><text fill="#000000" font-family="sans-serif" font-size="14" lengthAdjust="spacing" textLength="121.5908" x="239.4425" y="1314.6537">Acesso sem login</text></g><g class="entity" data-entity="Gerenciar perfil expositor" data-source-line="20" data-uid="ent0016" id="entity_Gerenciar perfil expositor"><ellipse cx="301.4317" cy="581.4103" fill="#F1F1F1" rx="106.7517" ry="23.7503" style="stroke:#181818;stroke-width:0.5;"/><text fill="#000000" font-family="sans-serif" font-size="14" lengthAdjust="spacing" textLength="178.835" x="212.0142" y="584.257">Gerenciar perfil expositor</text></g><g class="entity" data-entity="Gerenciar produtos" data-source-line="21" data-uid="ent0018" id="entity_Gerenciar produtos"><ellipse cx="301.4285" cy="660.4117" fill="#F1F1F1" rx="87.2085" ry="19.8417" style="stroke:#181818;stroke-width:0.5;"/><text fill="#000000" font-family="sans-serif" font-size="14" lengthAdjust="spacing" textLength="135.3926" x="233.7322" y="663.2584">Gerenciar produtos</text></g><g class="entity" data-entity="Notificar estoque" data-source-line="22" data-uid="ent0020" id="entity_Notificar estoque"><ellipse cx="301.4326" cy="733.4065" fill="#F1F1F1" rx="80.6326" ry="18.5265" style="stroke:#181818;stroke-width:0.5;"/><text fill="#000000" font-family="sans-serif" font-size="14" lengthAdjust="spacing" textLength="120.0527" x="239.9762" y="736.7167">Notificar estoque</text></g><g class="entity" data-entity="Visualizar registro das vendas" data-source-line="23" data-uid="ent0022" id="entity_Visualizar registro das vendas"><ellipse cx="301.4273" cy="171.4115" fill="#F1F1F1" rx="121.5073" ry="26.7015" style="stroke:#181818;stroke-width:0.5;"/><text fill="#000000" font-family="sans-serif" font-size="14" lengthAdjust="spacing" textLength="210.5674" x="196.1436" y="174.2581">Visualizar registro das vendas</text></g><g class="entity" data-entity="Registrar vendas manualmente" data-source-line="24" data-uid="ent0024" id="entity_Registrar vendas manualmente"><ellipse cx="705.167" cy="172.4114" fill="#F1F1F1" rx="126.457" ry="27.6914" style="stroke:#181818;stroke-width:0.5;"/><text fill="#000000" font-family="sans-serif" font-size="14" lengthAdjust="spacing" textLength="221.0811" x="594.6264" y="175.2581">Registrar vendas manualmente</text></g><g class="entity" data-entity="Notificar vendas on-line" data-source-line="27" data-uid="ent0028" id="entity_Notificar vendas on-line"><ellipse cx="301.4291" cy="255.4078" fill="#F1F1F1" rx="101.0891" ry="22.6178" style="stroke:#181818;stroke-width:0.5;"/><text fill="#000000" font-family="sans-serif" font-size="14" lengthAdjust="spacing" textLength="166.4551" x="218.2016" y="258.2545">Notificar vendas on-line</text></g><g class="entity" data-entity="Visualizar hist&#243;rico de compras" data-source-line="28" data-uid="ent0030" id="entity_Visualizar hist&#243;rico de compras"><ellipse cx="301.4272" cy="1464.4114" fill="#F1F1F1" rx="125.4572" ry="27.4914" style="stroke:#181818;stroke-width:0.5;"/><text fill="#000000" font-family="sans-serif" font-size="14" lengthAdjust="spacing" textLength="218.9619" x="191.9463" y="1467.2581">Visualizar hist&#243;rico de compras</text></g><g class="entity" data-entity="Filtrar produtos" data-source-line="29" data-uid="ent0032" id="entity_Filtrar produtos"><ellipse cx="301.4254" cy="804.4091" fill="#F1F1F1" rx="75.8454" ry="17.5691" style="stroke:#181818;stroke-width:0.5;"/><text fill="#000000" font-family="sans-serif" font-size="14" lengthAdjust="spacing" textLength="108.1787" x="244.336" y="808.1566">Filtrar produtos</text></g><g class="entity" data-entity="Enviar mensagem ao expositor" data-source-line="30" data-uid="ent0034" id="entity_Enviar mensagem ao expositor"><ellipse cx="301.4295" cy="884.4099" fill="#F1F1F1" rx="125.0995" ry="27.4199" style="stroke:#181818;stroke-width:0.5;"/><text fill="#000000" font-family="sans-serif" font-size="14" lengthAdjust="spacing" textLength="218.2031" x="192.328" y="887.2566">Enviar mensagem ao expositor</text></g><g class="entity" data-entity="Comprar produto com autentica&#231;&#227;o" data-source-line="31" data-uid="ent0036" id="entity_Comprar produto com autentica&#231;&#227;o"><ellipse cx="301.433" cy="977.4126" fill="#F1F1F1" rx="140.263" ry="30.4526" style="stroke:#181818;stroke-width:0.5;"/><text fill="#000000" font-family="sans-serif" font-size="14" lengthAdjust="spacing" textLength="250.1543" x="176.3559" y="980.2593">Comprar produto com autentica&#231;&#227;o</text></g><g class="entity" data-entity="Suporte t&#233;cnico ao participante" data-source-line="32" data-uid="ent0038" id="entity_Suporte t&#233;cnico ao participante"><ellipse cx="301.4279" cy="1070.4056" fill="#F1F1F1" rx="126.4279" ry="27.6856" style="stroke:#181818;stroke-width:0.5;"/><text fill="#000000" font-family="sans-serif" font-size="14" lengthAdjust="spacing" textLength="221.0195" x="190.9182" y="1073.2523">Suporte t&#233;cnico ao participante</text></g><g class="entity" data-entity="Suporte t&#233;cnico ao expositor" data-source-line="33" data-uid="ent0040" id="entity_Suporte t&#233;cnico ao expositor"><ellipse cx="301.4306" cy="338.4141" fill="#F1F1F1" rx="117.3706" ry="25.8741" style="stroke:#181818;stroke-width:0.5;"/><text fill="#000000" font-family="sans-serif" font-size="14" lengthAdjust="spacing" textLength="201.7354" x="200.5629" y="341.2608">Suporte t&#233;cnico ao expositor</text></g><g class="entity" data-entity="Adicionar &#224; lista de desejos" data-source-line="34" data-uid="ent0042" id="entity_Adicionar &#224; lista de desejos"><ellipse cx="301.4256" cy="1158.4071" fill="#F1F1F1" rx="112.7856" ry="24.9571" style="stroke:#181818;stroke-width:0.5;"/><text fill="#000000" font-family="sans-serif" font-size="14" lengthAdjust="spacing" textLength="191.8916" x="205.4798" y="1161.2538">Adicionar &#224; lista de desejos</text></g><g class="entity" data-entity="Personalizar apar&#234;ncia da plataforma" data-source-line="35" data-uid="ent0044" id="entity_Personalizar apar&#234;ncia da plataforma"><ellipse cx="301.4274" cy="1654.4075" fill="#F1F1F1" rx="146.2874" ry="31.6575" style="stroke:#181818;stroke-width:0.5;"/><text fill="#000000" font-family="sans-serif" font-size="14" lengthAdjust="spacing" textLength="262.7461" x="170.0544" y="1657.2542">Personalizar apar&#234;ncia da plataforma</text></g><g class="entity" data-entity="Comprar produto sem autentica&#231;&#227;o" data-source-line="36" data-uid="ent0046" id="entity_Comprar produto sem autentica&#231;&#227;o"><ellipse cx="301.4333" cy="1557.4087" fill="#F1F1F1" rx="140.0933" ry="30.4187" style="stroke:#181818;stroke-width:0.5;"/><text fill="#000000" font-family="sans-serif" font-size="14" lengthAdjust="spacing" textLength="249.7988" x="176.5339" y="1560.2553">Comprar produto sem autentica&#231;&#227;o</text></g><g class="entity" data-entity="Avaliar compra" data-source-line="37" data-uid="ent0048" id="entity_Avaliar compra"><ellipse cx="705.1746" cy="1674.4089" fill="#F1F1F1" rx="75.0446" ry="17.4089" style="stroke:#181818;stroke-width:0.5;"/><text fill="#000000" font-family="sans-serif" font-size="14" lengthAdjust="spacing" textLength="106.1279" x="649.1106" y="1678.1565">Avaliar compra</text></g><g class="entity" data-entity="Oferecer descontos" data-source-line="39" data-uid="ent0051" id="entity_Oferecer descontos"><ellipse cx="301.4324" cy="419.4085" fill="#F1F1F1" rx="87.7924" ry="19.9585" style="stroke:#181818;stroke-width:0.5;"/><text fill="#000000" font-family="sans-serif" font-size="14" lengthAdjust="spacing" textLength="136.7256" x="233.0696" y="422.2552">Oferecer descontos</text></g><g class="entity" data-entity="Notificar descontos" data-source-line="40" data-uid="ent0053" id="entity_Notificar descontos"><ellipse cx="301.425" cy="1238.407" fill="#F1F1F1" rx="87.035" ry="19.807" style="stroke:#181818;stroke-width:0.5;"/><text fill="#000000" font-family="sans-serif" font-size="14" lengthAdjust="spacing" textLength="134.9961" x="233.927" y="1241.2537">Notificar descontos</text></g><g class="entity" data-entity="Realizar opera&#231;&#245;es offline" data-source-line="41" data-uid="ent0055" id="entity_Realizar opera&#231;&#245;es offline"><ellipse cx="301.4279" cy="498.4096" fill="#F1F1F1" rx="107.9979" ry="23.9996" style="stroke:#181818;stroke-width:0.5;"/><text fill="#000000" font-family="sans-serif" font-size="14" lengthAdjust="spacing" textLength="181.542" x="210.6569" y="501.2563">Realizar opera&#231;&#245;es offline</text></g><g class="entity" data-entity="Visualizar relat&#243;rios" data-source-line="42" data-uid="ent0057" id="entity_Visualizar relat&#243;rios"><ellipse cx="301.4318" cy="1741.4064" fill="#F1F1F1" rx="88.5818" ry="20.1164" style="stroke:#181818;stroke-width:0.5;"/><text fill="#000000" font-family="sans-serif" font-size="14" lengthAdjust="spacing" textLength="138.5234" x="232.1701" y="1744.253">Visualizar relat&#243;rios</text></g><!--entity Usuario--><g class="entity" data-entity="Usuario" data-source-line="5" data-uid="ent0002" id="entity_Usuario"><ellipse cx="301.4227" cy="1804.76" fill="#F1F1F1" rx="8" ry="8" style="stroke:#181818;stroke-width:0.5;"/><path d="M301.4227,1812.76 L301.4227,1839.76 M288.4227,1820.76 L314.4227,1820.76 M301.4227,1839.76 L288.4227,1854.76 M301.4227,1839.76 L314.4227,1854.76 " fill="none" style="stroke:#181818;stroke-width:0.5;"/><text fill="#000000" font-family="sans-serif" font-size="14" lengthAdjust="spacing" textLength="110.0654" x="246.39" y="1869.2551">Usu&#225;rio comum</text></g><!--entity Expositor--><g class="entity" data-entity="Expositor" data-source-line="6" data-uid="ent0003" id="entity_Expositor"><ellipse cx="49.0686" cy="429.76" fill="#F1F1F1" rx="8" ry="8" style="stroke:#181818;stroke-width:0.5;"/><path d="M49.0686,437.76 L49.0686,464.76 M36.0686,445.76 L62.0686,445.76 M49.0686,464.76 L36.0686,479.76 M49.0686,464.76 L62.0686,479.76 " fill="none" style="stroke:#181818;stroke-width:0.5;"/><text fill="#000000" font-family="sans-serif" font-size="14" lengthAdjust="spacing" textLength="65.5771" x="16.28" y="494.2551">Expositor</text></g><!--entity Participante--><g class="entity" data-entity="Participante" data-source-line="7" data-uid="ent0004" id="entity_Participante"><ellipse cx="49.0723" cy="1167.76" fill="#F1F1F1" rx="8" ry="8" style="stroke:#181818;stroke-width:0.5;"/><path d="M49.0723,1175.76 L49.0723,1202.76 M36.0723,1183.76 L62.0723,1183.76 M49.0723,1202.76 L36.0723,1217.76 M49.0723,1202.76 L62.0723,1217.76 " fill="none" style="stroke:#181818;stroke-width:0.5;"/><text fill="#000000" font-family="sans-serif" font-size="14" lengthAdjust="spacing" textLength="84.1846" x="6.98" y="1232.2551">Participante</text></g><!--entity Organizador--><g class="entity" data-entity="Organizador" data-source-line="8" data-uid="ent0005" id="entity_Organizador"><ellipse cx="49.0698" cy="1836.76" fill="#F1F1F1" rx="8" ry="8" style="stroke:#181818;stroke-width:0.5;"/><path d="M49.0698,1844.76 L49.0698,1871.76 M36.0698,1852.76 L62.0698,1852.76 M49.0698,1871.76 L36.0698,1886.76 M49.0698,1871.76 L62.0698,1886.76 " fill="none" style="stroke:#181818;stroke-width:0.5;"/><text fill="#000000" font-family="sans-serif" font-size="14" lengthAdjust="spacing" textLength="86.1396" x="6" y="1901.2551">Organizador</text></g><!--link Expositor to Usuario--><g class="link" data-entity-1="Expositor" data-entity-2="Usuario" data-source-line="10" data-uid="lnk6" id="link_Expositor_Usuario"><path d="M52.45,497.87 C58.86,601.68 77.07,896.31 92.14,1141.41 C93.23,1159.08 120.38,1763.36 131.14,1777.41 C158.01,1812.49 189.5842,1823.7544 228.1142,1828.9944 " fill="none" id="Expositor-to-Usuario" style="stroke:#181818;stroke-width:1;"/><polygon fill="none" points="245.95,1831.42,228.9227,1823.0491,227.3056,1834.9396,245.95,1831.42" style="stroke:#181818;stroke-width:1;"/></g><!--link Participante to Usuario--><g class="link" data-entity-1="Participante" data-entity-2="Usuario" data-source-line="11" data-uid="lnk7" id="link_Participante_Usuario"><path d="M50.34,1235.98 C51.92,1351.95 62.42,1694.56 131.14,1777.41 C159.15,1811.19 190.1142,1822.4033 228.1342,1828.0333 " fill="none" id="Participante-to-Usuario" style="stroke:#181818;stroke-width:1;"/><polygon fill="none" points="245.94,1830.67,229.0131,1822.098,227.2553,1833.9686,245.94,1830.67" style="stroke:#181818;stroke-width:1;"/></g><!--link Organizador to Usuario--><g class="link" data-entity-1="Organizador" data-entity-2="Usuario" data-source-line="12" data-uid="lnk8" id="link_Organizador_Usuario"><path d="M92.54,1860.98 C134.81,1855.58 182.0054,1849.5532 228.0654,1843.6632 " fill="none" id="Organizador-to-Usuario" style="stroke:#181818;stroke-width:1;"/><polygon fill="none" points="245.92,1841.38,227.3043,1837.7117,228.8265,1849.6147,245.92,1841.38" style="stroke:#181818;stroke-width:1;"/></g><!--link Usuario to Acessar sistema--><g class="link" data-entity-1="Usuario" data-entity-2="Acessar sistema" data-source-line="17" data-uid="lnk11" id="link_Usuario_Acessar sistema"><path d="M356.74,1819.65 C385.36,1810.31 420.14,1796.37 447.71,1777.41 C462.41,1767.31 634.88,1574.21 688.42,1514.11 " fill="none" id="Usuario-Acessar sistema" style="stroke:#181818;stroke-width:1;"/></g><!--reverse link Recuperar senha to Acessar sistema--><g class="link" data-entity-1="Recuperar senha" data-entity-2="Acessar sistema" data-source-line="18" data-uid="lnk13" id="link_Recuperar senha_Acessar sistema"><path d="M364.6516,1398.1214 C391.6316,1404.6514 418.52,1411.42 447.71,1419.41 C521.47,1439.61 606.33,1465.64 657.57,1481.67 " fill="none" id="Recuperar senha-backto-Acessar sistema" style="stroke:#181818;stroke-width:1;stroke-dasharray:7.0,7.0;"/><polygon fill="#181818" points="358.82,1396.71,366.6265,1402.7149,363.6797,1397.8862,368.5084,1394.9394,358.82,1396.71" style="stroke:#181818;stroke-width:1;"/><text fill="#000000" font-family="sans-serif" font-size="13" lengthAdjust="spacing" textLength="67.958" x="479.71" y="1425.4769">&#171;extends&#187;</text></g><!--link Participante to Acesso sem login--><g class="link" data-entity-1="Participante" data-entity-2="Acesso sem login" data-source-line="19" data-uid="lnk15" id="link_Participante_Acesso sem login"><path d="M81.73,1235.97 C95.49,1250.38 112.68,1265.62 131.14,1275.41 C159.94,1290.69 194.73,1299.49 225.27,1304.55 " fill="none" id="Participante-Acesso sem login" style="stroke:#181818;stroke-width:1;"/></g><!--link Expositor to Gerenciar perfil expositor--><g class="link" data-entity-1="Expositor" data-entity-2="Gerenciar perfil expositor" data-source-line="20" data-uid="lnk17" id="link_Expositor_Gerenciar perfil expositor"><path d="M80.97,497.83 C94.85,512.8 112.34,528.87 131.14,539.41 C155.44,553.03 184.14,562.29 210.93,568.56 " fill="none" id="Expositor-Gerenciar perfil expositor" style="stroke:#181818;stroke-width:1;"/></g><!--link Expositor to Gerenciar produtos--><g class="link" data-entity-1="Expositor" data-entity-2="Gerenciar produtos" data-source-line="21" data-uid="lnk19" id="link_Expositor_Gerenciar produtos"><path d="M58.93,497.82 C69.63,535.34 91.35,591.21 131.14,622.41 C155.08,641.18 186.48,651.06 215.73,656.14 " fill="none" id="Expositor-Gerenciar produtos" style="stroke:#181818;stroke-width:1;"/></g><!--link Expositor to Notificar estoque--><g class="link" data-entity-1="Expositor" data-entity-2="Notificar estoque" data-source-line="22" data-uid="lnk21" id="link_Expositor_Notificar estoque"><path d="M51.88,497.87 C56.54,550.91 73.03,645.83 131.14,697.41 C155.41,718.96 189.33,728.73 220.44,732.83 " fill="none" id="Expositor-Notificar estoque" style="stroke:#181818;stroke-width:1;"/></g><!--link Expositor to Visualizar registro das vendas--><g class="link" data-entity-1="Expositor" data-entity-2="Visualizar registro das vendas" data-source-line="23" data-uid="lnk23" id="link_Expositor_Visualizar registro das vendas"><path d="M51.86,420.83 C56.5,367 72.96,269.85 131.14,215.41 C147.77,199.85 169.19,189.63 191.16,182.96 " fill="none" id="Expositor-Visualizar registro das vendas" style="stroke:#181818;stroke-width:1;"/></g><!--reverse link Visualizar registro das vendas to Registrar vendas manualmente--><g class="link" data-entity-1="Visualizar registro das vendas" data-entity-2="Registrar vendas manualmente" data-source-line="24" data-uid="lnk25" id="link_Visualizar registro das vendas_Registrar vendas manualmente"><path d="M381.9752,194.6 C404.9552,201.52 424.59,207.68 447.71,215.41 C461.18,219.92 463.73,223.93 477.71,226.41 C508.78,231.93 517.6,231.66 548.71,226.41 C582.24,220.75 618.19,208.69 647.06,197.39 " fill="none" id="Visualizar registro das vendas-backto-Registrar vendas manualmente" style="stroke:#181818;stroke-width:1;stroke-dasharray:7.0,7.0;"/><polygon fill="#181818" points="376.23,192.87,383.6944,199.2952,381.0176,194.3117,386.0011,191.635,376.23,192.87" style="stroke:#181818;stroke-width:1;"/><text fill="#000000" font-family="sans-serif" font-size="13" lengthAdjust="spacing" textLength="67.958" x="479.71" y="222.4769">&#171;extends&#187;</text></g><!--reverse link Visualizar registro das vendas to Registrar vendas manualmente--><g class="link" data-entity-1="Visualizar registro das vendas" data-entity-2="Registrar vendas manualmente" data-source-line="26" data-uid="lnk27" id="link_Visualizar registro das vendas_Registrar vendas manualmente"><path d="M429.24,171.7247 C478.23,171.8447 528.81,171.97 578.3,172.1 " fill="none" id="Visualizar registro das vendas-backto-Registrar vendas manualmente-1" style="stroke:#181818;stroke-width:1;stroke-dasharray:7.0,7.0;"/><polygon fill="#181818" points="423.24,171.71,432.2302,175.732,428.24,171.7222,432.2498,167.7321,423.24,171.71" style="stroke:#181818;stroke-width:1;"/><text fill="#000000" font-family="sans-serif" font-size="13" lengthAdjust="spacing" textLength="69.7798" x="478.71" y="168.4769">&#171;includes&#187;</text></g><!--link Expositor to Registrar vendas manualmente--><g class="link" data-entity-1="Expositor" data-entity-2="Registrar vendas manualmente" data-source-line="25" data-uid="lnk26" id="link_Expositor_Registrar vendas manualmente"><path d="M53.62,420.99 C61.83,341.55 85.06,163.6 131.14,127.41 C285.76,6 541.75,98.1 651.53,147 " fill="none" id="Expositor-Registrar vendas manualmente" style="stroke:#181818;stroke-width:1;"/></g><!--link Expositor to Notificar vendas on-line--><g class="link" data-entity-1="Expositor" data-entity-2="Notificar vendas on-line" data-source-line="27" data-uid="lnk29" id="link_Expositor_Notificar vendas on-line"><path d="M58.94,420.87 C69.64,383.2 91.37,327.04 131.14,295.41 C152.29,278.59 179.35,268.64 205.59,262.81 " fill="none" id="Expositor-Notificar vendas on-line" style="stroke:#181818;stroke-width:1;"/></g><!--link Participante to Visualizar hist?rico de compras--><g class="link" data-entity-1="Participante" data-entity-2="Visualizar hist&#243;rico de compras" data-source-line="28" data-uid="lnk31" id="link_Participante_Visualizar hist&#243;rico de compras"><path d="M53.41,1235.9 C59.81,1285.51 78.28,1371.12 131.14,1419.41 C147.64,1434.49 168.62,1444.62 190.15,1451.39 " fill="none" id="Participante-Visualizar hist&#243;rico de compras" style="stroke:#181818;stroke-width:1;"/></g><!--link Participante to Filtrar produtos--><g class="link" data-entity-1="Participante" data-entity-2="Filtrar produtos" data-source-line="29" data-uid="lnk33" id="link_Participante_Filtrar produtos"><path d="M53.58,1158.99 C61.94,1076 85.83,883.88 131.14,839.41 C155.88,815.13 192.76,805.64 225.78,802.53 " fill="none" id="Participante-Filtrar produtos" style="stroke:#181818;stroke-width:1;"/></g><!--link Participante to Enviar mensagem ao expositor--><g class="link" data-entity-1="Participante" data-entity-2="Enviar mensagem ao expositor" data-source-line="30" data-uid="lnk35" id="link_Participante_Enviar mensagem ao expositor"><path d="M50.51,1159.07 C53.31,1101.02 67.35,991.07 131.14,929.41 C147.1,913.98 167.73,903.69 189.05,896.87 " fill="none" id="Participante-Enviar mensagem ao expositor" style="stroke:#181818;stroke-width:1;"/></g><!--link Participante to Comprar produto com autentica??o--><g class="link" data-entity-1="Participante" data-entity-2="Comprar produto com autentica&#231;&#227;o" data-source-line="31" data-uid="lnk37" id="link_Participante_Comprar produto com autentica&#231;&#227;o"><path d="M58.34,1158.86 C68.72,1119.69 90.35,1060 131.14,1025.41 C147.1,1011.88 166.64,1002.15 186.7,995.16 " fill="none" id="Participante-Comprar produto com autentica&#231;&#227;o" style="stroke:#181818;stroke-width:1;"/></g><!--link Participante to Suporte t?cnico ao participante--><g class="link" data-entity-1="Participante" data-entity-2="Suporte t&#233;cnico ao participante" data-source-line="32" data-uid="lnk39" id="link_Participante_Suporte t&#233;cnico ao participante"><path d="M80.62,1159.13 C94.57,1143.88 112.2,1127.38 131.14,1116.41 C152.75,1103.89 177.88,1094.67 202.07,1087.92 " fill="none" id="Participante-Suporte t&#233;cnico ao participante" style="stroke:#181818;stroke-width:1;"/></g><!--link Expositor to Suporte t?cnico ao expositor--><g class="link" data-entity-1="Expositor" data-entity-2="Suporte t&#233;cnico ao expositor" data-source-line="33" data-uid="lnk41" id="link_Expositor_Suporte t&#233;cnico ao expositor"><path d="M82.04,421.77 C95.84,407.6 112.98,392.5 131.14,382.41 C154.1,369.66 180.88,360.5 206.26,353.96 " fill="none" id="Expositor-Suporte t&#233;cnico ao expositor" style="stroke:#181818;stroke-width:1;"/></g><!--link Participante to Adicionar ? lista de desejos--><g class="link" data-entity-1="Participante" data-entity-2="Adicionar &#224; lista de desejos" data-source-line="34" data-uid="lnk43" id="link_Participante_Adicionar &#224; lista de desejos"><path d="M91.41,1190.97 C123.08,1186.04 167.99,1179.04 208.07,1172.8 " fill="none" id="Participante-Adicionar &#224; lista de desejos" style="stroke:#181818;stroke-width:1;"/></g><!--link Usuario to Personalizar apar?ncia da plataforma--><g class="link" data-entity-1="Usuario" data-entity-2="Personalizar apar&#234;ncia da plataforma" data-source-line="35" data-uid="lnk45" id="link_Usuario_Personalizar apar&#234;ncia da plataforma"><path d="M245.98,1825.48 C180.76,1812.07 84.58,1781.56 111.64,1720.91 C123.02,1695.4 145.82,1679.35 171.8,1669.32 " fill="none" id="Usuario-Personalizar apar&#234;ncia da plataforma" style="stroke:#181818;stroke-width:1;"/></g><!--link Usuario to Comprar produto sem autentica??o--><g class="link" data-entity-1="Usuario" data-entity-2="Comprar produto sem autentica&#231;&#227;o" data-source-line="36" data-uid="lnk47" id="link_Usuario_Comprar produto sem autentica&#231;&#227;o"><path d="M246.09,1832.12 C198.44,1826.65 133.92,1809.85 111.64,1759.91 C86.83,1704.31 86.83,1678.52 111.64,1622.91 C123.43,1596.49 147.52,1580.32 174.7,1570.52 " fill="none" id="Usuario-Comprar produto sem autentica&#231;&#227;o" style="stroke:#181818;stroke-width:1;"/></g><!--link Participante to Avaliar compra--><g class="link" data-entity-1="Participante" data-entity-2="Avaliar compra" data-source-line="37" data-uid="lnk49" id="link_Participante_Avaliar compra"><path d="M51.64,1235.79 C57.71,1374.85 81.82,1846.53 131.14,1890.41 C236.25,1983.94 315.54,1938.66 447.71,1890.41 C559.81,1849.49 656.83,1735.6 691.04,1691.84 " fill="none" id="Participante-Avaliar compra" style="stroke:#181818;stroke-width:1;"/></g><!--reverse link Visualizar hist?rico de compras to Avaliar compra--><g class="link" data-entity-1="Visualizar hist&#243;rico de compras" data-entity-2="Avaliar compra" data-source-line="38" data-uid="lnk50" id="link_Visualizar hist&#243;rico de compras_Avaliar compra"><path d="M389.9284,1487.2747 C411.0484,1493.8547 427.73,1500.1 447.71,1509.41 C540.57,1552.68 639.58,1624.81 682.38,1657.45 " fill="none" id="Visualizar hist&#243;rico de compras-backto-Avaliar compra" style="stroke:#181818;stroke-width:1;stroke-dasharray:7.0,7.0;"/><polygon fill="#181818" points="384.2,1485.49,391.6028,1491.986,388.9737,1486.9773,393.9824,1484.3481,384.2,1485.49" style="stroke:#181818;stroke-width:1;"/><text fill="#000000" font-family="sans-serif" font-size="13" lengthAdjust="spacing" textLength="69.7798" x="478.71" y="1524.4769">&#171;includes&#187;</text></g><!--link Expositor to Oferecer descontos--><g class="link" data-entity-1="Expositor" data-entity-2="Oferecer descontos" data-source-line="39" data-uid="lnk52" id="link_Expositor_Oferecer descontos"><path d="M82.29,454.26 C119.07,448.39 180.38,438.59 228.65,430.88 " fill="none" id="Expositor-Oferecer descontos" style="stroke:#181818;stroke-width:1;"/></g><!--link Participante to Notificar descontos--><g class="link" data-entity-1="Participante" data-entity-2="Notificar descontos" data-source-line="40" data-uid="lnk54" id="link_Participante_Notificar descontos"><path d="M91.41,1204.18 C128.91,1210.32 184.98,1219.51 229.62,1226.81 " fill="none" id="Participante-Notificar descontos" style="stroke:#181818;stroke-width:1;"/></g><!--link Expositor to Realizar opera??es offline--><g class="link" data-entity-1="Expositor" data-entity-2="Realizar opera&#231;&#245;es offline" data-source-line="41" data-uid="lnk56" id="link_Expositor_Realizar opera&#231;&#245;es offline"><path d="M82.29,464.43 C114.91,469.51 166.82,477.6 211.82,484.61 " fill="none" id="Expositor-Realizar opera&#231;&#245;es offline" style="stroke:#181818;stroke-width:1;"/></g><!--link Organizador to Visualizar relat?rios--><g class="link" data-entity-1="Organizador" data-entity-2="Visualizar relat&#243;rios" data-source-line="42" data-uid="lnk58" id="link_Organizador_Visualizar relat&#243;rios"><path d="M76.81,1827.9 C90.99,1810.26 109.88,1790.61 131.14,1778.41 C157.63,1763.22 189.72,1754.26 218.82,1748.97 " fill="none" id="Organizador-Visualizar relat&#243;rios" style="stroke:#181818;stroke-width:1;"/></g><!--SRC=[ZLHBRjj03Dth58GtZHV90Oh0WD4csTL6WtPFZ2YRYJHKPaP1-hjBYowATblq1BfOEUEVFaOShKR3H_BnaPoIYW11mF5g7I1dHoQmsCpViwtHOGKrcdjSqMtuL194SvQzWhTKiENsL_jJ81SF6CIH1u8raqFtq31cQFGI9Xzyq_vmB62aQge9e0UzGhtP8QwUQl6insJS_-tCItI13TTe0oL4zs87MhWLMlwC-JPAvp_BzY7X_FphR9- -6wTlwNZt3R7s9He9McnEOD1BEZHUigrGCBczkLuk9l0b0_ssdXe6pkQ6l4S7ddsW2gS9SFQUJ5D7rS2JNUFqyk9Y38NNS7b9Ju5ixcUpvDZJ0Gu9HEDKKCgARSpGBHxERiYHDQoHDMN19T3EF8Ndm4xo9eWV1tmdWGisYY4VvA6X8t4-iefGgfvE1sYb5JcT6ctIerQ3FZcSnAWggbGoA6Hp2nLQTQf81PWE1UfJUDRrHGHUne2jAPkSZb4uABNr5NjUijNqCVzW67jyrfgp_UlOI1ewgMg7gHKZfsik4xjElqQOA_iOMwgSlOvh1IYT8JWMz4rAk0yQ2G0sghJ2CBq1nzBSDhKuFOVsjx6HkkQfEo3rwUjppA5BR9HXdkklM6NMVeTIDS8eZufFTwdoxkejoNc5RlH4vT7-YPEj7OQwn825kBIGNPzXtN6jJjSzVzGiwhLfqpGxtSZDQ0tyHiCqK6jHw78QSh5U8tQxcsCwXwdh0OVRiIKeyI7Iqlxf-oP5aSPJqVttSB0hAb-iASRzzXy0]--></g></svg>